<svg width="330" height="266" viewBox="0 0 330 266" fill="none" xmlns="http://www.w3.org/2000/svg">
<path d="M313.244 84.7299H277.28C274.411 84.7299 272.066 87.0786 272.066 89.9525V105.752C272.066 108.392 274.221 110.551 276.858 110.551H277.776L276.042 117.875L286.923 110.551H313.55C316.42 110.551 318.765 108.203 318.765 105.329V90.2589C318.765 87.2099 316.274 84.7299 313.244 84.7299Z" fill="#88EEFB"/>
<path d="M314.206 97.8481H276.712C276.202 97.8481 275.78 97.425 275.78 96.9143C275.78 96.4037 276.202 95.9806 276.712 95.9806H314.206C314.716 95.9806 315.138 96.4037 315.138 96.9143C315.138 97.425 314.716 97.8481 314.206 97.8481Z" fill="white"/>
<path d="M314.206 102.006H276.712C276.202 102.006 275.78 101.583 275.78 101.072C275.78 100.561 276.202 100.138 276.712 100.138H314.206C314.716 100.138 315.138 100.561 315.138 101.072C315.138 101.597 314.716 102.006 314.206 102.006Z" fill="white"/>
<path d="M314.206 106.178H276.712C276.202 106.178 275.78 105.755 275.78 105.244C275.78 104.734 276.202 104.311 276.712 104.311H314.206C314.716 104.311 315.138 104.734 315.138 105.244C315.138 105.755 314.716 106.178 314.206 106.178Z" fill="white"/>
<path d="M293.784 91.3859H277.863C277.251 91.3859 276.756 90.8899 276.756 90.2771C276.756 89.6643 277.251 89.1682 277.863 89.1682H293.784C294.396 89.1682 294.891 89.6643 294.891 90.2771C294.876 90.8899 294.381 91.3859 293.784 91.3859Z" fill="white"/>
<path d="M307.462 91.3859H297.877C297.396 91.3859 297.003 90.992 297.003 90.5105V90.0436C297.003 89.5621 297.396 89.1682 297.877 89.1682H307.462C307.942 89.1682 308.335 89.5621 308.335 90.0436V90.5105C308.335 90.992 307.942 91.3859 307.462 91.3859Z" fill="white"/>
<path d="M126.593 180.32H176.584C178.157 180.32 179.424 179.051 179.424 177.476V162.07C179.424 160.495 178.157 159.226 176.584 159.226H126.593C125.019 159.226 123.752 160.495 123.752 162.07V177.476C123.767 179.037 125.034 180.32 126.593 180.32Z" fill="white"/>
<path d="M206.27 10.6355V195.136C206.27 199.687 202.585 203.363 198.04 203.363H94.9114C90.3668 203.363 86.6815 199.673 86.6815 195.136V10.6355C86.6815 6.08394 90.3668 2.39307 94.9114 2.39307H198.04C202.6 2.40765 206.27 6.08394 206.27 10.6355Z" fill="#C0D8FB"/>
<path d="M113.673 149.779H163.984C165.456 149.779 166.65 148.583 166.65 147.11V133.761C166.65 132.288 165.456 131.092 163.984 131.092H113.673C112.202 131.092 111.007 132.288 111.007 133.761V147.095C111.007 148.583 112.202 149.779 113.673 149.779Z" fill="#FCE29E"/>
<path d="M204.187 2.40735H88.4584V79.6677H204.187V2.40735Z" fill="#F0F6FF"/>
<path d="M161.086 12.4446H131.91C127.584 12.4446 124.088 8.94336 124.088 4.6106H168.908C168.894 8.94336 165.398 12.4446 161.086 12.4446Z" fill="#2B478B"/>
<path d="M198.259 205.58H94.7074C89.1285 205.58 84.5984 200.795 84.5984 194.916V10.8537C84.5984 4.97459 89.1285 0.189575 94.7074 0.189575H198.259C203.838 0.189575 208.368 4.97459 208.368 10.8537V194.916C208.368 200.795 203.838 205.58 198.259 205.58ZM94.7074 4.60988C91.4445 4.60988 88.7935 7.41085 88.7935 10.8537V194.916C88.7935 198.359 91.4445 201.16 94.7074 201.16H198.259C201.521 201.16 204.173 198.359 204.173 194.916V10.8537C204.173 7.41085 201.521 4.60988 198.259 4.60988H94.7074Z" fill="#2B478B"/>
<path d="M197.72 203.304H92.0421C89.0269 203.304 86.5652 200.854 86.5652 197.834V190.408H206.402V194.61C206.402 199.409 202.512 203.304 197.72 203.304Z" fill="#2B478B"/>
<path d="M216.103 103.272C220.618 102.309 225.323 103.68 228.673 106.861C230.145 108.261 231.761 110.026 233.247 112.112C236.932 117.262 229.882 122.368 230.815 124.104C231.747 125.855 233.932 127.226 232.97 130.873C232.024 134.52 225.746 139.247 223.706 139.451C202.978 141.581 193.991 130.144 200.91 123.973C207.829 117.802 205.018 108.859 210.64 105.387C212.388 104.308 214.296 103.666 216.103 103.272Z" fill="#233862"/>
<path d="M226.648 135.177C226.648 135.177 246.167 143.696 249.707 143.536C253.246 143.375 275.081 136.884 275.081 136.884L274.528 140.647C274.528 140.647 257.674 150.349 251.79 150.903C245.992 151.443 226.168 145.695 224.245 144.47C222.322 143.244 221.084 136.402 226.648 135.177Z" fill="#FDB888"/>
<path d="M229.008 144.484C227.289 145.681 225.148 146.658 222.453 147.285C212.344 149.62 208.47 141.071 207.013 135.192C208.397 134.404 209.693 134.229 210.436 134.141C211.164 134.054 211.936 133.995 212.577 133.966C213.713 133.091 215.403 129.531 215.782 123.988L216.263 124.119L224.23 126.307C224.23 126.307 223.866 128.846 223.691 131.238C223.56 133.12 223.531 134.914 223.881 135.352C224.507 135.483 224.871 135.571 224.871 135.571C224.871 135.571 224.871 135.571 224.871 135.585C224.973 135.746 227.289 139.554 229.008 144.484Z" fill="#FFB27D"/>
<path d="M224.216 126.292C224.216 126.292 223.851 128.831 223.677 131.223C219.161 130.771 217.064 126.467 216.248 124.104L224.216 126.292Z" fill="#ED985F"/>
<path d="M225.57 128.67C225.57 128.67 214.85 128.072 215.316 121.405C215.782 114.724 214.718 110.158 221.579 110.245C228.44 110.347 229.591 112.988 229.969 115.249C230.363 117.51 228.367 128.656 225.57 128.67Z" fill="#FFB27D"/>
<path d="M229.94 111.515C228.425 109.385 227.144 109.735 226.401 110.29C220.778 106.643 216.671 111.136 216.671 111.136C215.607 115.877 211.966 118.372 211.966 118.372C211.966 118.372 213.859 119.889 218.419 118.882C224.23 117.584 226.226 112.536 226.503 111.763C227.115 112.405 227.901 112.799 228.513 114.185C229.227 115.819 229.678 116.767 229.693 119.451C229.678 119.451 232.198 114.71 229.94 111.515Z" fill="#233862"/>
<path d="M203.954 166.309C202.993 161.349 199.832 141.552 202.993 135.177C204.129 132.886 208.572 132.682 213.451 132.886C214.966 133.864 220.749 137.584 223.138 137.117C223.167 137.117 223.211 137.103 223.269 137.088C224.391 136.811 224.813 136.023 223.881 135.337C223.881 135.337 226.299 135.104 229.299 135.673C230.989 135.994 235.563 138.357 235.563 138.357C235.563 138.357 233.261 142.529 229.867 143.959C230.45 149.138 229.591 151.414 224.23 163.362C219.7 173.457 224.842 182.56 224.842 182.56C224.842 182.56 198.186 204.02 198.04 193.093C197.924 184.865 205.192 172.64 203.954 166.309Z" fill="white"/>
<path d="M226.153 205.887C227.609 205.727 228.906 204.924 229.722 203.713C229.853 203.524 229.984 203.319 230.129 203.086C233.159 198.491 234.339 184.398 241.171 169.387C242.831 165.74 248.803 165.083 250.42 160.94C250.42 160.94 254.426 147.548 242.758 147.154C231.091 146.76 211.514 184.398 211.193 188.352C210.902 192.203 203.488 208.455 226.153 205.887Z" fill="#FDCD51"/>
<path d="M272.532 205.581H255.926C255.926 205.581 255.3 202.926 256.393 201.117C257.354 199.526 256.99 198.607 256.276 197.294C257.033 197.601 257.995 197.878 259.073 197.82C259.903 197.776 260.777 197.397 261.549 196.944C262.263 197.761 265.322 201.233 266.283 201.919C267.361 202.721 272.197 202.43 272.532 205.581Z" fill="#233862"/>
<path d="M250.799 151.049C251.805 158.562 255.708 182.254 262.598 193.822C264.812 197.557 257.005 199.643 256.961 199.629C255.912 199.351 254.164 197.674 253.363 196.959C247.77 191.911 236.423 177.615 236.423 166.163C236.423 160.575 236.321 149.897 240.385 147.183C242.875 145.506 250.406 148.073 250.799 151.049Z" fill="#FDCD51"/>
<path d="M216.248 205.581C216.248 205.581 216.86 204.72 217.938 203.101C219.219 201.16 220.632 197.353 222.337 192.466C224.143 187.33 226.27 181.028 228.95 174.449C229.78 172.421 230.654 170.364 231.586 168.322C233.247 164.675 237.821 165.171 239.452 161.042C239.452 161.042 245.803 146.731 234.135 146.322C222.468 145.928 200.298 184.617 199.016 188.366C197.618 192.48 190.801 209.519 216.248 205.581Z" fill="#FCE29E"/>
<path d="M260.34 205.581H243.735C243.735 205.581 243.108 202.926 244.201 201.117C245.162 199.526 244.798 198.607 244.084 197.294C244.842 197.601 245.803 197.878 246.881 197.82C247.711 197.776 248.585 197.397 249.357 196.944C250.071 197.761 253.13 201.233 254.091 201.919C255.169 202.721 260.005 202.43 260.34 205.581Z" fill="#2B478B"/>
<path d="M222.337 192.466C224.143 187.331 226.27 181.028 228.95 174.449C228.251 169.474 226.75 165.112 224.216 163.362C224.216 163.362 218.083 182.4 222.337 192.466Z" fill="#FFDB7D"/>
<path d="M241.113 150.524C242.118 158.037 243.516 182.268 250.406 193.822C252.62 197.557 244.812 199.643 244.769 199.628C243.72 199.351 241.972 197.674 241.171 196.959C235.577 191.911 224.23 177.614 224.23 166.163C224.23 160.575 230.785 150.349 234.835 147.635C237.325 145.958 240.705 147.533 241.113 150.524Z" fill="#FCE29E"/>
<path d="M277.062 127.212L260.049 125.403C259.553 125.344 259.087 125.636 258.912 126.103L252.824 142.121C252.562 142.821 253.057 143.58 253.8 143.609L270.682 144.295C271.134 144.309 271.556 144.047 271.745 143.624L277.965 128.743C278.242 128.043 277.79 127.284 277.062 127.212Z" fill="#233862"/>
<path d="M278.533 127.358L261.52 125.549C261.024 125.49 260.558 125.782 260.383 126.249L254.295 142.267C254.033 142.967 254.528 143.726 255.271 143.755L272.153 144.441C272.605 144.455 273.027 144.193 273.216 143.77L279.436 128.89C279.713 128.204 279.261 127.431 278.533 127.358Z" fill="#2B478B"/>
<path d="M269.108 134.842C269.312 134.273 269.021 133.806 268.453 133.806C267.885 133.806 267.244 134.273 267.04 134.842C266.836 135.411 267.127 135.877 267.695 135.877C268.263 135.877 268.904 135.411 269.108 134.842Z" fill="#EBF3FA"/>
<path d="M278.023 128.875C278.125 128.598 277.98 128.365 277.703 128.365C277.426 128.365 277.106 128.598 277.004 128.875C276.902 129.152 277.047 129.386 277.324 129.386C277.615 129.386 277.921 129.152 278.023 128.875Z" fill="#EBF3FA"/>
<path d="M207.013 135.177C207.013 135.177 230.581 143.871 234.121 143.696C236.408 143.58 255.446 136.884 255.446 136.884L257.15 140.122C257.15 140.122 238.636 152.041 233.538 151.983C223.488 151.866 206.518 145.68 204.61 144.47C202.702 143.259 201.449 136.402 207.013 135.177Z" fill="#FFB27D"/>
<path d="M255.446 136.884C255.446 136.884 257.15 134.258 258.854 134.17C260.559 134.097 263.486 135.337 264.491 135.527C265.496 135.717 268.351 136.651 267.507 138.051C266.662 139.452 262.714 139.758 261.01 139.452C259.306 139.145 257.15 140.138 257.15 140.138L255.446 136.884Z" fill="#FFB27D"/>
<path d="M258.388 134.258C258.388 134.258 261.098 133.018 261.87 132.784C262.642 132.551 262.481 132.784 262.263 133.528C262.03 134.258 260.646 134.958 260.646 135.192C260.646 135.425 258.388 134.258 258.388 134.258Z" fill="#FFB27D"/>
<path d="M276.785 135.484C276.785 135.484 275.081 132.784 274.527 132.668C272.823 132.332 272.823 134.579 273.187 136.023C273.581 137.57 274.892 139.044 275.241 138.912C275.605 138.795 277.178 136.913 276.785 135.484Z" fill="#FFB27D"/>
<path d="M276.844 136.023C276.844 136.023 277.383 139.058 274.513 140.633L275.358 138.547L276.844 136.023Z" fill="#FFB27D"/>
<path d="M227.581 124.833C227.581 124.833 226.561 124.425 223.721 124.658C223.721 124.658 223.866 125.767 225.979 125.884C227.158 125.942 227.581 124.833 227.581 124.833Z" fill="white"/>
<path d="M219.147 139.466C219.147 139.466 217.035 146.147 209.795 147.664C209.795 147.664 197.837 143.974 203.794 135.819C203.794 135.819 209.693 131.442 219.147 139.466Z" fill="white"/>
<path d="M172.374 140.88C172.374 144.367 173.845 147.503 176.191 149.721C178.361 151.763 181.274 153.018 184.493 153.018C184.756 153.018 185.018 153.003 185.265 152.989C188.295 152.799 191.034 151.486 193.058 149.458C193.32 149.196 193.583 148.918 193.816 148.627C194.194 148.174 194.544 147.693 194.85 147.182C195.971 145.344 196.612 143.185 196.612 140.88C196.612 137.525 195.258 134.491 193.058 132.302C190.859 130.114 187.844 128.743 184.493 128.743C181.143 128.743 178.113 130.099 175.928 132.302C173.743 134.505 172.374 137.54 172.374 140.88Z" fill="white"/>
<path d="M177.458 146.38C177.676 146.526 177.909 146.658 178.171 146.745C180.065 148.394 183.066 151.049 185.265 152.989C188.295 152.799 191.033 151.486 193.058 149.459C193.32 149.196 193.583 148.919 193.816 148.627C194.194 148.175 194.544 147.693 194.85 147.183C194.588 146.716 194.282 146.249 193.903 145.782C191.951 143.258 190.363 142.398 190.8 139.145C191.033 137.379 189.897 131.121 185.848 130.8C185.513 130.771 183.459 130.421 181.973 130.844C178.375 131.821 173.321 143.521 177.458 146.38Z" fill="#233862"/>
<path d="M181.653 145.681C181.639 145.681 183.343 146.716 184.683 146.439C185.95 146.177 187.247 144.455 187.218 144.455C186.693 144.324 186.212 143.725 186.431 140.603L186.183 140.632L182.119 141.172C182.119 141.172 182.134 142.442 182.061 143.638C182.017 144.645 181.886 145.593 181.653 145.681Z" fill="#FFB27D"/>
<path d="M182.134 141.187C182.134 141.187 182.148 142.456 182.075 143.653C184.319 143.726 185.644 141.756 186.198 140.647L182.134 141.187Z" fill="#ED975D"/>
<path d="M181.318 142.267C181.318 142.267 186.62 142.69 186.839 139.378C187.057 136.067 187.873 133.893 184.493 133.47C181.114 133.062 180.371 134.287 180.036 135.367C179.701 136.461 179.934 142.063 181.318 142.267Z" fill="#FFB27D"/>
<path d="M180.604 133.645C180.604 133.645 183.284 137.205 185.484 137.92C187.683 138.635 188.688 138.095 188.688 138.095C188.688 138.095 187.596 136.709 187.188 134.754C187.072 134.185 186.649 133.718 186.081 133.543C184.522 133.076 181.493 132.347 180.604 133.645Z" fill="#233862"/>
<path d="M182.716 133.849C182.716 133.849 181.376 134.681 180.866 135.396C180.371 136.082 179.876 137.906 179.978 138.679C179.978 138.679 178.987 134.958 180.313 133.543C181.711 132.04 182.716 133.849 182.716 133.849Z" fill="#233862"/>
<path d="M176.191 149.721C178.361 151.764 181.274 153.018 184.493 153.018H185.295C185.28 153.004 185.28 153.004 185.265 152.989C188.295 152.799 191.034 151.486 193.058 149.459C193.32 149.196 193.583 148.919 193.816 148.627C193.393 147.708 192.985 146.964 192.65 146.482C191.15 144.382 186.809 144.119 186.809 144.119C186.795 144.119 186.795 144.134 186.78 144.134C185.134 145.111 184.042 145.418 183.328 145.418C182.279 145.418 182.032 144.746 181.988 144.586C181.988 144.557 181.988 144.557 181.988 144.557C181.988 144.557 178.856 145.082 177.458 146.395C177.167 146.672 176.948 146.978 176.861 147.314C176.744 147.737 176.497 148.612 176.191 149.721Z" fill="#FCE29E"/>
<path d="M65.7383 124.688H165.124C168.081 124.688 170.484 122.281 170.484 119.319V91.9512C170.484 88.9897 168.081 86.5826 165.124 86.5826H65.7383C62.7814 86.5826 60.3779 88.9897 60.3779 91.9512V119.319C60.3779 122.281 62.7814 124.688 65.7383 124.688Z" fill="white"/>
<path d="M118.338 102.981H104.529V104.776H118.338V102.981Z" fill="#CBE1FD"/>
<path d="M121.746 106.569H104.528V108.364H121.746V106.569Z" fill="#CBE1FD"/>
<path d="M135.787 106.569H123.115V108.364H135.787V106.569Z" fill="#CBE1FD"/>
<path d="M117.201 110.07H104.528V111.865H117.201V110.07Z" fill="#CBE1FD"/>
<path d="M129.029 102.98H119.823V104.775H129.029V102.98Z" fill="#CBE1FD"/>
<path d="M149.625 102.98H131.009V104.775H149.625V102.98Z" fill="#CBE1FD"/>
<path d="M124.207 94.0959H104.66V96.6346H124.207V94.0959Z" fill="#CBE1FD"/>
<path d="M153.398 94.0957H126.378V96.6344H153.398V94.0957Z" fill="#CBE1FD"/>
<path d="M124.234 140.429H115.159V141.611H124.234V140.429Z" fill="white"/>
<path d="M126.476 142.792H115.158V143.973H126.476V142.792Z" fill="white"/>
<path d="M135.711 142.792H127.38V143.973H135.711V142.792Z" fill="white"/>
<path d="M123.49 145.096H115.158V146.278H123.49V145.096Z" fill="white"/>
<path d="M131.269 140.429H125.209V141.611H131.269V140.429Z" fill="white"/>
<path d="M144.815 140.429H132.565V141.611H144.815V140.429Z" fill="white"/>
<path d="M128.109 134.593H115.247V136.256H128.109V134.593Z" fill="white"/>
<path d="M147.291 134.593H129.521V136.256H147.291V134.593Z" fill="white"/>
<path d="M137.139 168.921H128.064V170.103H137.139V168.921Z" fill="white"/>
<path d="M139.382 171.268H128.064V172.45H139.382V171.268Z" fill="white"/>
<path d="M148.617 171.268H140.285V172.45H148.617V171.268Z" fill="white"/>
<path d="M136.396 173.573H128.064V174.755H136.396V173.573Z" fill="white"/>
<path d="M144.174 168.92H138.115V170.102H144.174V168.92Z" fill="white"/>
<path d="M157.721 168.92H145.471V170.102H157.721V168.92Z" fill="white"/>
<path d="M141.016 163.07H128.154V164.733H141.016V163.07Z" fill="white"/>
<path d="M160.197 163.07H142.427V164.733H160.197V163.07Z" fill="white"/>
<path d="M193.729 15.5668L192.534 16.4276L191.34 15.5814C191.602 15.202 192.039 14.954 192.534 14.954C193.015 14.954 193.452 15.202 193.729 15.5668Z" fill="#2B478B"/>
<path d="M192.535 12.8679C191.34 12.8679 190.277 13.4661 189.636 14.3707L190.393 14.896C190.874 14.2248 191.646 13.7871 192.535 13.7871C193.409 13.7871 194.181 14.2248 194.661 14.8814L195.419 14.3415C194.763 13.4515 193.714 12.8679 192.535 12.8679Z" fill="#2B478B"/>
<path d="M192.534 8.91357C190 8.91357 187.771 10.1683 186.402 12.0942L187.159 12.6195C188.354 10.927 190.32 9.83275 192.534 9.83275C194.734 9.83275 196.686 10.927 197.88 12.5903L198.623 12.0505C197.268 10.1392 195.04 8.91357 192.534 8.91357Z" fill="#2B478B"/>
<path d="M192.534 11.0734C190.728 11.0734 189.14 11.9634 188.165 13.3348L188.922 13.8601C189.723 12.7367 191.049 11.9925 192.534 11.9925C194.006 11.9925 195.317 12.7221 196.132 13.8309L196.875 13.2911C195.899 11.9488 194.311 11.0734 192.534 11.0734Z" fill="#2B478B"/>
<path d="M249.166 79.1852L243.913 70.8859L250.566 74.9613L249.413 75.8424L249.998 78.172L249.166 79.1852Z" fill="#685ED6"/>
<path d="M243.913 70.8861L251.029 76.5525L254.65 83.619L243.913 70.8861Z" fill="#18E1F7"/>
<path d="M250.565 74.9625L243.914 70.8878L252.218 72.6179L250.565 74.9625Z" fill="#18E1F7"/>
<g clip-path="url(#clip0)">
<path d="M187.936 72.3676H104.934V80.2995H187.936V72.3676Z" fill="white"/>
<path d="M148.969 61.4178C148.969 61.4178 147.829 62.5801 146.689 63.8851C146.201 64.4152 145.732 64.9862 145.325 65.4959C143.961 67.2087 142.679 67.6981 141.172 69.3701C140.236 70.4101 139.014 71.2053 136.734 71.5723C134.454 71.9394 126.107 72.5307 126.107 72.5307C126.107 72.5307 125.903 71.4296 126.046 71.0626C126.087 70.9606 125.985 70.7567 125.842 70.4712C125.476 69.7372 124.865 68.6157 126.046 68.473C127.654 68.2894 135.492 66.3931 135.859 65.8222C136.225 65.2512 138.342 62.6209 139.482 60.2352C140.622 57.8495 142.333 54.9336 144.083 52.0789C145.61 49.5709 146.058 49.4485 146.872 48.7145L147.829 54.5462L148.969 61.4178Z" fill="#6D9BFF"/>
<path d="M122.28 72.2862H116.701V72.0415C116.701 70.5121 117.943 69.2477 119.49 69.2477C121.017 69.2477 122.28 70.4917 122.28 72.0415V72.2862Z" fill="#A5A5A5"/>
<path d="M122.464 69.1053C122.016 68.9421 120.652 68.2896 119.919 68.2896C119.186 68.2896 117.965 69.5335 117.272 70.1453C116.58 70.7571 117.537 71.3281 118.087 71.0426C118.657 70.7571 119.186 70.0434 119.715 70.0637C120.245 70.0841 120.489 70.5532 120.774 70.6551C120.917 70.6959 120.998 71.1038 120.733 71.2873C120.448 71.4913 119.817 71.4913 119.654 71.5932C119.308 71.8176 119.532 72.409 120.123 72.409C120.713 72.409 121.202 72.4701 121.914 72.3274C122.606 72.1846 123.482 72.3886 124.011 72.1642C124.561 71.9399 126.088 72.4905 126.088 72.4905L124.988 69.4927C124.988 69.5335 123.339 69.452 122.464 69.1053Z" fill="#FDD2BB"/>
<path d="M122.87 69.1051C122.992 69.5537 123.277 69.8596 123.501 70.553C124.01 72.0417 123.359 72.3272 123.359 72.3272C123.359 72.3272 126.209 72.5311 126.718 72.3272C126.718 72.3272 127.41 71.5522 126.718 70.0228C126.026 68.4933 126.026 68.4933 126.026 68.4933C126.026 68.4933 125.598 68.4933 124.336 68.6768C123.298 68.8196 122.87 69.1051 122.87 69.1051Z" fill="#2C5CFF"/>
<path d="M162.691 38.6824C162.691 38.6824 162.121 40.3544 162.06 41.8021C161.999 43.2499 161.999 45.2481 162.427 46.023C162.854 46.7978 167.313 49.4078 167.313 49.4078C167.313 49.4078 162.244 50.4681 157.235 50.1623C152.227 49.8564 151.148 47.7358 151.148 47.7358C151.148 47.7358 154.955 46.2473 155.057 45.8599C155.159 45.4724 155.892 42.5974 155.892 42.5974L162.691 38.6824Z" fill="#F6C1AA"/>
<path opacity="0.28" d="M162.325 45.7579C162.02 44.8607 162.02 43.1071 162.06 41.8021C162.121 40.3544 162.691 38.6824 162.691 38.6824L155.912 42.5566C155.912 42.5566 155.179 45.4521 155.077 45.8191C154.976 46.2065 151.169 47.695 151.169 47.695C151.169 47.695 151.209 47.7766 151.311 47.8989C154.996 47.2872 158.66 46.5328 162.325 45.7579Z" fill="#EB9271"/>
<path d="M153.856 38.3359C154.019 37.1329 154.06 32.7489 154.06 32.7489L159.903 30.6895L165.013 33.5441C165.013 33.5441 163.791 37.4184 163.771 38.6418C163.75 39.8652 163.669 41.4965 162.895 42.6587C162.142 43.821 160.147 45.6358 159.679 45.8601C158.274 46.5126 157.358 46.064 156.299 45.4522C155.851 45.1872 155.24 43.8618 154.65 42.5976C154.039 41.3333 153.693 39.539 153.856 38.3359Z" fill="#FDD2BB"/>
<path d="M163.017 35.2975C163.017 35.2975 163.038 36.8676 163.445 37.8871C163.526 38.091 163.465 38.7028 163.384 39.4368C163.587 39.1921 163.811 38.9678 164.015 38.7435C164.442 38.2949 164.829 37.8463 165.196 37.3774C165.42 36.4802 165.807 35.2771 165.786 34.5839C165.745 32.4836 165.745 31.3214 161.918 29.4454C161.185 29.0988 159.699 28.12 158.946 28.4055C157.806 28.8337 157.48 29.2415 156.584 29.996C156.584 29.996 155.383 29.7513 153.876 31.3825C153.001 32.3409 153.266 33.7274 153.306 34.7674C153.408 36.888 153.978 36.7656 153.978 36.7656C154.06 35.6849 153.876 35.2364 154.202 33.6051C154.304 33.0546 155.118 32.871 155.688 32.7487C156.218 32.6264 156.401 32.4224 158.172 34.1964C159.231 35.2567 159.801 35.1752 163.017 35.2975Z" fill="#5C3000"/>
<path d="M163.16 38.601C163.445 37.5406 163.893 36.7656 164.382 36.786C164.85 36.8268 165.338 37.7037 164.748 38.703C164.158 39.7022 163.771 40.314 163.445 40.7015C163.119 41.1298 162.977 39.274 163.16 38.601Z" fill="#FDD2BB"/>
<path d="M163.445 38.7232C163.608 38.1522 163.872 37.4384 164.3 37.4792C164.727 37.52 164.789 37.989 164.198 38.8048C163.608 39.6001 163.486 40.0283 163.486 40.0283C163.486 40.0283 163.363 39.0495 163.445 38.7232Z" fill="#EB9271"/>
<path d="M158.334 60.1536C157.703 63.8647 157.418 72.9793 155.851 72.286C154.996 71.8986 152.349 71.919 150.11 72.0006C148.277 72.0821 146.75 72.2045 146.75 72.2045C146.75 72.2045 146.649 68.0856 146.689 63.8851C146.71 61.8664 146.75 59.8478 146.873 58.2369C146.913 57.7068 146.934 57.197 146.954 56.7076C147.097 51.9974 146.323 49.2651 146.873 48.7349C147.483 48.1436 154.589 46.3492 154.935 45.4928L155.464 48.0008C156.767 50.0807 158.457 49.4486 158.457 49.4486C158.457 49.4486 158.966 56.4425 158.334 60.1536Z" fill="#6D9BFF"/>
<path d="M156.665 50.1418C156.319 52.2012 156.237 53.8121 155.647 57.7678C155.057 61.7236 155.342 63.3549 155.077 65.8425C154.812 68.3302 154.324 72.0209 154.324 72.0209L158.579 72.653C158.579 72.653 158.721 65.5163 158.945 60.5002C159.169 55.4841 160.004 51.0185 160.004 51.0185L160.574 47.96C160.574 47.96 159.006 49.632 157.378 49.4689C155.729 49.265 156.665 50.1418 156.665 50.1418Z" fill="#2C5CFF"/>
<path d="M169.389 53.0985C169.227 54.6278 169.939 56.5242 169.613 58.6652C169.389 60.0925 169.104 61.8257 168.799 63.5589C168.371 66.0262 168.616 72.2657 168.616 72.2657C168.616 72.2657 158.905 71.9191 157.256 72.388C155.627 72.8366 156.645 63.7832 156.543 60.011C156.441 56.2387 157.968 49.4282 157.968 49.4282C157.968 49.4282 159.231 49.4282 161.165 47.9193C162.366 47.0018 162.569 45.7783 162.569 45.7783C162.793 46.6551 169.41 48.6534 169.939 49.3467C170.021 49.4486 170.082 49.6525 170.122 49.9176C170.183 50.5905 169.532 51.6712 169.389 53.0985Z" fill="#6D9BFF"/>
<path d="M157.947 49.428C158.538 49.2649 160.513 48.1638 161.246 47.1851C161.978 46.2063 162.182 45.1052 162.182 45.1052C162.182 45.1052 162.874 46.2267 162.956 46.9404C163.037 47.654 161.368 51.1205 161.062 52.0788C161.062 52.0788 160.533 51.9769 159.556 51.1408C158.579 50.3048 157.947 49.428 157.947 49.428Z" fill="#2C5CFF"/>
<path d="M155.179 45.3907C155.179 45.3907 154.853 45.8801 155.586 47.0832C156.319 48.2862 157.927 49.4485 157.927 49.4485L155.322 51.9769C155.322 51.9769 154.711 50.468 154.344 49.163C153.978 47.858 154.039 46.4714 154.222 46.0636C154.426 45.6762 155.179 45.3907 155.179 45.3907Z" fill="#2C5CFF"/>
<path d="M158.721 55.0357C158.701 55.4231 158.375 55.6882 157.988 55.6678C157.601 55.6475 157.337 55.3212 157.357 54.9337C157.377 54.5462 157.703 54.2811 158.09 54.3015C158.477 54.3219 158.762 54.6482 158.721 55.0357Z" fill="#2C5CFF"/>
<path d="M158.192 62.3764C158.172 62.7638 157.846 63.0289 157.459 63.0086C157.072 62.9882 156.808 62.6619 156.828 62.2744C156.848 61.8869 157.174 61.6218 157.561 61.6422C157.948 61.6626 158.233 61.9889 158.192 62.3764Z" fill="#2C5CFF"/>
<path d="M157.662 69.6966C157.642 70.084 157.316 70.3491 156.93 70.3287C156.543 70.3084 156.278 69.9821 156.298 69.5946C156.319 69.2071 156.645 68.942 157.031 68.9624C157.418 69.0032 157.703 69.3295 157.662 69.6966Z" fill="#2C5CFF"/>
<path d="M161.612 57.7473C163.302 57.89 165.154 58.094 165.867 58.0124V59.0932C165.867 59.0932 164.177 58.9097 162.691 58.9097C160.574 58.9097 160.574 58.9097 160.574 58.9097L160.757 57.7473C160.757 57.7473 160.737 57.6861 161.612 57.7473Z" fill="#2C5CFF"/>
<path d="M148.338 71.2052H139.014V72.286H148.338V71.2052Z" fill="#E9EBEE"/>
<path d="M160.33 71.2052H148.318V72.286H160.33V71.2052Z" fill="#E9EBEE"/>
<path d="M148.97 70.7361V71.2051H149.54H150.639V70.7361H149.54H148.97Z" fill="#D5D5D7"/>
<path d="M146.873 70.7361V71.2051H147.443H148.542V70.7361H147.443H146.873Z" fill="#D5D5D7"/>
<path d="M144.776 70.7361V71.2051H145.346H146.445V70.7361H145.346H144.776Z" fill="#D5D5D7"/>
<path d="M142.679 70.7361V71.2051H143.249H144.348V70.7361H143.249H142.679Z" fill="#D5D5D7"/>
<path d="M158.07 70.7361H157.479V71.2051H158.07H159.149V70.7361H158.07Z" fill="#D5D5D7"/>
<path d="M155.383 70.7361V71.2051H155.973H157.052V70.7361H155.973H155.383Z" fill="#D5D5D7"/>
<path d="M153.286 70.7361V71.2051H153.876H154.955V70.7361H153.876H153.286Z" fill="#D5D5D7"/>
<path d="M151.189 70.7361V71.2051H151.779H152.858V70.7361H151.779H151.189Z" fill="#D5D5D7"/>
<path d="M140.582 70.7365V71.2055H141.152H142.251V70.7365H141.152H140.582Z" fill="#D5D5D7"/>
<path d="M142.027 41.7206H109.107C108.578 41.7206 108.171 42.1488 108.232 42.6993L110.532 65.027C110.593 65.5572 111.062 66.0058 111.611 66.0058H144.531C145.06 66.0058 145.467 65.5776 145.406 65.027L143.106 42.6993C143.045 42.1488 142.556 41.7206 142.027 41.7206Z" fill="#FAFCFF"/>
<path d="M142.027 41.7206H109.107C108.578 41.7206 108.171 42.1488 108.232 42.6993L110.532 65.027C110.593 65.5572 111.062 66.0058 111.611 66.0058H144.531C145.06 66.0058 145.467 65.5776 145.406 65.027L143.106 42.6993C143.045 42.1488 142.556 41.7206 142.027 41.7206Z" fill="#6B6B6B"/>
<path d="M141.417 41.7208H108.497C107.968 41.7208 107.561 42.149 107.601 42.6996L109.576 65.0273C109.617 65.5574 110.105 66.006 110.635 66.006H143.554C144.084 66.006 144.491 65.5778 144.45 65.0273L142.475 42.6996C142.435 42.149 141.946 41.7208 141.417 41.7208Z" fill="#D5D5D7"/>
<path d="M135.879 64.1916C135.676 64.1916 135.472 64.0285 135.452 63.8041L135.289 61.9688C135.268 61.7648 135.431 61.5813 135.635 61.5813C135.839 61.5813 136.042 61.7444 136.062 61.9688L136.225 63.8041C136.246 64.0285 136.103 64.1916 135.879 64.1916Z" fill="#E9EBEE"/>
<path d="M137.1 64.1911C136.897 64.1911 136.693 64.028 136.673 63.8037L136.51 61.9683C136.49 61.7644 136.653 61.5808 136.856 61.5808C137.06 61.5808 137.263 61.744 137.284 61.9683L137.447 63.8037C137.467 64.028 137.324 64.1911 137.1 64.1911Z" fill="#E9EBEE"/>
<path d="M138.322 64.1911C138.119 64.1911 137.915 64.028 137.895 63.8037L137.732 61.9683C137.711 61.7644 137.874 61.5808 138.078 61.5808C138.281 61.5808 138.485 61.744 138.505 61.9683L138.668 63.8037C138.689 64.028 138.526 64.1911 138.322 64.1911Z" fill="#E9EBEE"/>
<path d="M139.544 64.1911C139.34 64.1911 139.137 64.028 139.116 63.8037L138.953 61.9683C138.933 61.7644 139.096 61.5808 139.299 61.5808C139.503 61.5808 139.707 61.744 139.727 61.9683L139.89 63.8037C139.91 64.028 139.747 64.1911 139.544 64.1911Z" fill="#E9EBEE"/>
<path d="M140.765 64.1911C140.562 64.1911 140.358 64.028 140.338 63.8037L140.175 61.9683C140.154 61.7644 140.317 61.5808 140.521 61.5808C140.724 61.5808 140.928 61.744 140.948 61.9683L141.111 63.8037C141.132 64.028 140.969 64.1911 140.765 64.1911Z" fill="#E9EBEE"/>
<path d="M133.7 71.5111H129.12V72.3676L133.7 72.5104V71.5111Z" fill="#6B6B6B"/>
<path d="M127.411 67.6368L128.571 53.8732H123.542L121.364 67.4941C121.059 69.0642 121.547 70.7362 122.525 71.4906L123.644 72.3674H129.854L129.752 71.511C127.94 70.8178 127.207 69.1457 127.411 67.6368Z" fill="#6B6B6B"/>
<path d="M126.677 67.6373L127.837 53.8737H122.809L120.63 67.4946C120.325 69.0646 120.814 70.7367 121.791 71.4911L122.911 72.3679H129.12L127.878 71.4096C126.962 70.6959 126.473 69.1462 126.677 67.6373Z" fill="#A5A5A5"/>
<path d="M126.779 69.574H120.651C120.834 70.3693 121.242 71.0831 121.771 71.4909L122.891 72.3678H129.1L127.858 71.4094C127.369 71.0015 126.983 70.3489 126.779 69.574Z" fill="#6B6B6B"/>
<path d="M177.919 69.2888C177.919 69.2888 176.026 68.2489 174.499 67.5556C172.972 66.8623 170.753 68.1061 170.753 68.1061C170.753 68.1061 170.489 67.3925 170.102 66.4953C169.715 65.5573 169.226 64.4154 168.779 63.5794C168.534 63.0901 168.31 62.723 168.127 62.5395C167.353 61.7239 167.435 60.7655 167.211 60.2965C167.211 60.2762 167.191 60.2558 167.191 60.2354C167.028 59.6237 167.455 57.136 167.923 54.8726C168.412 52.5277 169.064 48.8778 169.064 48.8778C169.287 49.0817 170.061 49.2652 170.468 49.7546C170.468 49.7546 173.237 53.9551 174.397 56.8505C176.515 62.1113 176.861 63.192 177.207 65.1291C177.594 67.0458 177.919 69.2888 177.919 69.2888Z" fill="#6D9BFF"/>
<path d="M154.202 70.37C155.831 70.0438 157.032 70.8391 158.05 70.9003C159.068 70.9614 162.712 70.574 162.712 70.574L161.897 68.6978C161.897 68.6978 157.744 68.6162 156.34 69.0853C154.935 69.5543 154.202 70.37 154.202 70.37Z" fill="#FDD2BB"/>
<path d="M162.733 68.4344C162.733 68.4344 160.575 68.047 159.537 68.0266C157.786 67.9858 155.811 67.9858 155.404 68.3121C154.997 68.6384 152.9 71.0244 152.615 71.4118C152.33 71.7993 152.472 72.248 153.348 71.9421C154.223 71.6362 155.668 69.9639 156.544 69.5765C157.419 69.189 159.048 69.5153 159.048 69.5153L162.285 69.2094L162.733 68.4344Z" fill="#FDD2BB"/>
<path opacity="0.28" d="M160.187 68.0677C157.602 68.6999 155.077 69.5564 152.899 71.0451C152.757 71.2083 152.655 71.351 152.594 71.4122C152.309 71.7997 152.451 72.2483 153.327 71.9424C154.202 71.6365 155.647 69.9643 156.523 69.5768C157.398 69.1894 159.027 69.5157 159.027 69.5157L162.264 69.2098L162.712 68.4348C162.732 68.4348 161.287 68.1901 160.187 68.0677Z" fill="#EB9271"/>
<path d="M160.574 68.5145C160.574 68.5145 157.561 68.3105 156.787 68.229C155.994 68.1474 155.383 68.8 154.955 69.5749C154.507 70.3498 153.612 71.6958 153.815 72.0832C153.998 72.4911 154.507 72.4503 154.915 72.0017C155.342 71.553 155.892 70.4314 156.482 70.2071C157.073 69.9828 159.068 69.5137 159.068 69.5137L160.574 68.5145Z" fill="#FDD2BB"/>
<path opacity="0.28" d="M156.828 69.0039C155.587 69.5341 154.487 72.4299 154.915 72.0017C155.342 71.553 155.892 70.4314 156.482 70.2071C157.073 69.9828 159.068 69.5137 159.068 69.5137L160.595 68.4941C160.595 68.4941 159.841 68.4329 158.986 68.3717C158.233 68.5145 157.521 68.7184 156.828 69.0039Z" fill="#EB9271"/>
<path d="M165.867 71.2062C165.867 71.2062 164.32 71.1043 163.77 71.6345C163.221 72.1647 162.671 72.4094 162.162 72.3483C161.633 72.2871 160.696 71.818 160.269 71.5529C159.841 71.2878 158.457 72.1851 158.029 72.389C157.581 72.6134 157.195 72.2259 157.398 71.7569C157.622 71.2878 158.07 70.8392 158.437 70.6556C158.803 70.4721 160.371 70.0846 160.371 70.0846H160.35H160.33C160.147 70.0642 159.434 69.9827 158.966 70.0031C158.437 70.0438 157.887 70.3701 157.378 71.0227C156.889 71.6753 156.36 72.4094 156.075 72.5318C155.994 72.5726 155.892 72.5522 155.81 72.4502C155.627 72.2667 155.546 71.8588 155.79 71.3286C156.156 70.5537 157.093 69.3301 157.581 68.7183C158.07 68.1065 158.803 68.0453 159.516 68.0249C160.208 68.0045 161.836 68.0045 161.836 68.0045C161.836 68.0045 163.628 67.9637 164.626 67.9637C165.236 67.9841 165.867 71.2062 165.867 71.2062Z" fill="#FDD2BB"/>
<path opacity="0.28" d="M164.646 67.9843C164.422 67.9843 164.178 67.9843 163.913 67.9843C163.933 69.2486 163.852 70.513 163.648 71.757C163.689 71.7162 163.73 71.6754 163.791 71.6346C164.341 71.1044 165.888 71.2064 165.888 71.2064C165.888 71.2064 165.236 67.9843 164.646 67.9843Z" fill="#EB9271"/>
<path opacity="0.28" d="M160.371 70.064H160.35H160.33C160.147 70.0436 159.434 69.9621 158.966 69.9825C158.437 70.0233 157.887 70.3495 157.378 71.0021C156.889 71.6547 156.36 72.3889 156.075 72.5112C155.994 72.552 155.892 72.5316 155.81 72.4296C156.34 71.7771 156.889 70.7778 157.154 70.3292C157.561 69.6358 158.742 69.5134 159.047 69.5134C159.332 69.5134 160.371 70.064 160.371 70.064Z" fill="#EB9271"/>
<path d="M172.036 65.2107C172.036 65.2107 170.509 66.3933 168.392 67.0458C166.071 67.7595 164.646 67.9838 164.646 67.9838C164.646 67.9838 164.809 69.9005 164.87 71.8988C164.87 71.8988 169.959 72.694 173.278 72.0619C176.596 71.4094 177.431 71.5318 177.98 70.084C178.53 68.6363 177.614 65.802 177.186 64.5582C176.759 63.294 174.092 64.2727 172.036 65.2107Z" fill="#6D9BFF"/>
<path d="M164.035 67.9637C164.585 68.6979 164.564 69.7991 164.707 71.3286C164.809 72.389 164.442 72.3686 164.442 72.3686L167.231 72.2871C167.231 72.2871 167.537 70.676 167.109 69.1873C166.661 67.6986 166.661 67.6986 166.661 67.6986L164.035 67.9637Z" fill="#2C5CFF"/>
<path d="M180.871 66.1893C180.933 65.7815 181.258 65.4144 181.665 65.2921C181.971 65.2105 182.317 65.2309 182.541 65.0066C182.785 64.7619 182.683 64.3541 182.683 64.0075C182.683 63.3142 183.131 62.6617 183.783 62.417C184.068 62.3151 184.393 62.2947 184.617 62.0908C184.841 61.8869 184.923 61.5606 185.004 61.2548C185.228 60.5003 185.696 59.8478 186.307 59.3584C186.572 59.1545 186.898 58.9914 187.203 59.073C187.447 59.1545 187.63 59.3788 187.692 59.6235C187.753 59.8682 187.712 60.1333 187.63 60.378C187.305 61.2955 186.368 61.948 186.165 62.9064C186.063 63.3754 186.165 63.8851 186.063 64.3541C185.941 64.9047 185.554 65.3737 185.045 65.598C184.801 65.6999 184.495 65.7611 184.332 65.9854C184.149 66.2301 184.21 66.5971 184.17 66.9029C184.088 67.5758 183.437 68.0856 182.765 68.1264C182.093 68.1672 181.441 67.7594 181.075 67.2088C181.034 67.2292 180.81 66.6175 180.871 66.1893Z" fill="#4BBD6D"/>
<path d="M183.986 65.5364C184.23 65.2305 184.271 64.8023 184.108 64.4557C183.986 64.211 183.742 63.9663 183.762 63.7012C183.782 63.3954 184.108 63.2119 184.353 62.9876C184.821 62.5798 184.984 61.8457 184.739 61.2748C184.23 60.0513 185.33 58.991 185.228 57.686C185.208 57.4006 185.126 57.0743 184.861 56.9112C184.658 56.7888 184.393 56.8092 184.19 56.9316C183.986 57.0335 183.844 57.2374 183.721 57.4413C183.375 58.0938 183.375 58.7871 183.151 59.46C182.927 60.0921 182.398 60.4184 182.032 60.9485C181.747 61.3563 181.665 61.9273 181.828 62.3962C181.91 62.6409 182.052 62.8652 181.991 63.1099C181.93 63.3954 181.665 63.5585 181.482 63.7828C181.095 64.2518 181.136 65.0062 181.523 65.4752C181.91 65.9442 182.581 66.1481 183.172 66.0462C183.192 66.0462 183.742 65.8219 183.986 65.5364Z" fill="#44AB63"/>
<path d="M183.66 66.2914C183.62 65.9448 183.355 65.6186 183.009 65.5166C182.765 65.435 182.459 65.4554 182.276 65.2515C182.093 65.0272 182.174 64.701 182.195 64.4155C182.215 63.8446 181.848 63.2736 181.299 63.0697C181.054 62.9882 180.79 62.9474 180.607 62.7843C180.423 62.6007 180.362 62.3357 180.301 62.091C180.118 61.4589 179.752 60.8879 179.243 60.4801C179.039 60.317 178.754 60.1539 178.489 60.2354C178.286 60.2966 178.123 60.4801 178.082 60.684C178.021 60.8879 178.062 61.1122 178.123 61.3161C178.388 62.091 179.161 62.6619 179.304 63.4572C179.385 63.865 179.283 64.2728 179.365 64.6806C179.446 65.1292 179.772 65.537 180.199 65.7409C180.403 65.8429 180.647 65.904 180.79 66.0875C180.932 66.3118 180.871 66.5973 180.912 66.8624C180.973 67.4129 181.502 67.8615 182.052 67.9023C182.622 67.9431 183.172 67.6372 183.498 67.1682C183.477 67.1478 183.701 66.6381 183.66 66.2914Z" fill="#44AB63"/>
<path d="M180.159 64.4966C180.077 64.2111 179.853 63.9868 179.752 63.7217C179.548 63.2528 179.67 62.7022 179.874 62.2128C180.037 61.8662 180.24 61.4992 180.22 61.1321C180.199 60.8875 180.098 60.6632 180.016 60.4389C179.853 59.8883 179.874 59.297 179.914 58.726C179.935 58.3794 179.955 58.0124 180.098 57.7065C180.24 57.3803 180.505 57.0948 180.851 57.0336C181.319 56.9521 181.787 57.3191 181.95 57.7677C182.134 58.2163 182.093 58.7057 182.032 59.1746C181.971 59.6436 181.91 60.133 182.052 60.602C182.195 61.1321 182.581 61.54 182.805 62.0497C183.07 62.6614 183.009 63.4159 182.683 63.9868C182.52 64.2723 182.276 64.5374 182.174 64.8636C181.971 65.5365 182.398 66.2502 182.48 66.9435C182.541 67.3921 182.439 67.8814 182.134 68.2077C181.462 68.9825 180.342 68.4524 180.098 67.5756C179.976 67.127 179.833 66.556 179.894 66.0871C179.955 65.5569 180.322 65.0471 180.159 64.4966Z" fill="#4BBD6D"/>
<path d="M184.821 72.3673H180.343L178.856 65.149H186.308L184.821 72.3673Z" fill="#D5D5D7"/>
<path d="M189.025 72.4994H102.705V75.2932H189.025V72.4994Z" stroke="#D4DBF1" stroke-width="0.128969" stroke-miterlimit="10"/>
</g>
<circle cx="79.8553" cy="100.846" r="13.6895" fill="#CBE1FD"/>
<mask id="mask0" mask-type="alpha" maskUnits="userSpaceOnUse" x="69" y="91" width="30" height="30">
<path d="M98.0436 105.935C98.0436 108.67 97.2807 111.228 95.9603 113.404C95.5936 114.007 95.1828 114.58 94.7427 115.109C94.4639 115.447 94.1559 115.786 93.8478 116.094C93.0849 116.859 92.2487 117.535 91.3244 118.109C89.3586 119.343 87.07 120.123 84.62 120.27C84.3119 120.284 84.0038 120.299 83.6957 120.299C80.7763 120.299 78.0476 119.417 75.7883 117.917C75.0988 117.462 74.4679 116.962 73.8664 116.403C72.7808 115.389 71.8566 114.198 71.1377 112.889C69.9934 110.831 69.3479 108.449 69.3479 105.921C69.3479 101.951 70.947 98.3493 73.5584 95.7471C76.155 93.1449 79.7347 91.5424 83.7104 91.5424C87.6715 91.5424 91.2657 93.1449 93.8624 95.7471C96.4445 98.3787 98.0436 101.966 98.0436 105.935Z" fill="#DFEBFD"/>
</mask>
<g mask="url(#mask0)">
<path d="M77.2852 115.485C77.2852 115.485 76.5173 116.268 75.7494 117.147C75.4204 117.505 75.105 117.889 74.8307 118.233C73.912 119.387 73.0482 119.717 72.0335 120.844C71.4028 121.545 70.5801 122.081 69.0443 122.328C67.5086 122.575 61.8867 122.974 61.8867 122.974C61.8867 122.974 61.7496 122.232 61.8456 121.984C61.873 121.916 61.8045 121.778 61.7085 121.586C61.4617 121.091 61.0503 120.335 61.8456 120.239C62.9288 120.116 68.2079 118.838 68.4547 118.453C68.7015 118.068 70.1276 116.295 70.8954 114.688C71.6633 113.08 72.8151 111.115 73.9943 109.191C75.0227 107.501 75.3244 107.418 75.8728 106.923L76.5173 110.854L77.2852 115.485Z" fill="#6D9BFF"/>
<path d="M86.5275 100.162C86.5275 100.162 86.1436 101.289 86.1025 102.264C86.0613 103.24 86.0613 104.587 86.3493 105.109C86.6372 105.631 89.6401 107.39 89.6401 107.39C89.6401 107.39 86.2259 108.105 82.8527 107.899C79.4796 107.693 78.7529 106.263 78.7529 106.263C78.7529 106.263 81.317 105.26 81.3856 104.999C81.4541 104.738 81.9477 102.8 81.9477 102.8L86.5275 100.162Z" fill="#F6C1AA"/>
<path opacity="0.28" d="M86.2805 104.931C86.0748 104.326 86.0748 103.144 86.1023 102.265C86.1434 101.289 86.5273 100.162 86.5273 100.162L81.9613 102.773C81.9613 102.773 81.4677 104.725 81.3991 104.972C81.3305 105.233 78.7664 106.237 78.7664 106.237C78.7664 106.237 78.7938 106.292 78.8624 106.374C81.3442 105.962 83.8124 105.453 86.2805 104.931Z" fill="#EB9271"/>
<path d="M80.5766 99.9287C80.6863 99.1179 80.7137 96.1634 80.7137 96.1634L84.649 94.7755L88.0907 96.6994C88.0907 96.6994 87.268 99.3103 87.2543 100.135C87.2406 100.959 87.1857 102.059 86.6647 102.842C86.1573 103.625 84.8136 104.848 84.4982 104.999C83.5521 105.439 82.9351 105.137 82.222 104.725C81.9204 104.546 81.509 103.653 81.1114 102.801C80.7 101.949 80.4669 100.739 80.5766 99.9287Z" fill="#FDD2BB"/>
<path d="M86.7471 97.881C86.7471 97.881 86.7608 98.9391 87.0351 99.6262C87.0899 99.7636 87.0488 100.176 86.9939 100.671C87.1311 100.506 87.2819 100.355 87.419 100.203C87.707 99.901 87.9675 99.5987 88.2143 99.2826C88.3651 98.678 88.6256 97.8672 88.6119 97.4C88.5845 95.9846 88.5845 95.2013 86.0067 93.9371C85.5131 93.7035 84.5121 93.0439 84.0047 93.2362C83.2369 93.5248 83.0175 93.7997 82.4142 94.3081C82.4142 94.3081 81.6052 94.1432 80.5905 95.2425C80.0009 95.8884 80.1791 96.8229 80.2065 97.5237C80.2751 98.9528 80.659 98.8704 80.659 98.8704C80.7139 98.1421 80.9929 98.172 81.2122 97.0726C81.2808 96.7016 81.3802 96.6021 81.7641 96.5196C82.1206 96.4372 82.2908 95.9434 83.4837 97.1389C84.1967 97.8535 84.5806 97.7985 86.7471 97.881Z" fill="#5C3000"/>
<path d="M86.8432 100.108C87.0351 99.3937 87.3368 98.8714 87.6659 98.8852C87.9812 98.9126 88.3103 99.5036 87.9127 100.177C87.515 100.85 87.2545 101.263 87.0351 101.524C86.8158 101.813 86.7198 100.562 86.8432 100.108Z" fill="#FDD2BB"/>
<path d="M87.0352 100.191C87.145 99.8059 87.3234 99.3248 87.6116 99.3523C87.8998 99.3798 87.941 99.6959 87.543 100.246C87.145 100.782 87.0626 101.07 87.0626 101.07C87.0626 101.07 86.9803 100.411 87.0352 100.191Z" fill="#EB9271"/>
<path d="M83.5933 114.632C83.1682 117.133 82.9762 123.276 81.9204 122.809C81.3445 122.548 79.562 122.561 78.0537 122.616C76.8196 122.671 75.7912 122.754 75.7912 122.754C75.7912 122.754 75.7226 119.978 75.7501 117.147C75.7638 115.787 75.7912 114.426 75.8735 113.341C75.9009 112.983 75.9146 112.64 75.9283 112.31C76.0243 109.136 75.5033 107.294 75.8735 106.937C76.2848 106.538 81.0703 105.329 81.3034 104.752L81.6599 106.442C82.5374 107.844 83.6755 107.418 83.6755 107.418C83.6755 107.418 84.0183 112.131 83.5933 114.632Z" fill="#6D9BFF"/>
<path d="M82.4685 107.885C82.2354 109.273 82.1806 110.359 81.7829 113.025C81.3853 115.691 81.5773 116.79 81.399 118.466C81.2207 120.143 80.8917 122.63 80.8917 122.63L83.7574 123.056C83.7574 123.056 83.8534 118.247 84.0042 114.866C84.1551 111.486 84.7173 108.476 84.7173 108.476L85.1012 106.415C85.1012 106.415 84.0454 107.542 82.9484 107.432C81.8378 107.294 82.4685 107.885 82.4685 107.885Z" fill="#2C5CFF"/>
<path d="M91.0386 109.877C90.9289 110.908 91.4088 112.186 91.1894 113.629C91.0386 114.591 90.8466 115.759 90.6409 116.927C90.353 118.59 90.5175 122.795 90.5175 122.795C90.5175 122.795 83.977 122.561 82.8663 122.877C81.7694 123.18 82.455 117.078 82.3864 114.536C82.3178 111.994 83.3462 107.404 83.3462 107.404C83.3462 107.404 84.1964 107.404 85.499 106.387C86.308 105.769 86.4451 104.944 86.4451 104.944C86.5959 105.535 91.0523 106.882 91.4088 107.349C91.4637 107.418 91.5048 107.555 91.5322 107.734C91.5734 108.187 91.1346 108.915 91.0386 109.877Z" fill="#6D9BFF"/>
<path d="M83.3324 107.404C83.73 107.294 85.0601 106.552 85.5537 105.893C86.0474 105.233 86.1845 104.491 86.1845 104.491C86.1845 104.491 86.6507 105.247 86.7055 105.728C86.7604 106.209 85.636 108.545 85.4303 109.191C85.4303 109.191 85.0738 109.122 84.4156 108.559C83.7575 107.995 83.3324 107.404 83.3324 107.404Z" fill="#2C5CFF"/>
<path d="M81.4682 104.683C81.4682 104.683 81.2488 105.013 81.7425 105.824C82.2361 106.635 83.3194 107.418 83.3194 107.418L81.5642 109.122C81.5642 109.122 81.1529 108.105 80.906 107.226C80.6592 106.346 80.7004 105.412 80.8238 105.137C80.9609 104.876 81.4682 104.683 81.4682 104.683Z" fill="#2C5CFF"/>
<path d="M83.8534 111.183C83.8397 111.445 83.6203 111.623 83.3598 111.609C83.0993 111.596 82.921 111.376 82.9348 111.115C82.9485 110.854 83.1679 110.675 83.4284 110.689C83.6889 110.702 83.8809 110.922 83.8534 111.183Z" fill="#2C5CFF"/>
<path d="M83.4971 116.131C83.4834 116.392 83.264 116.57 83.0035 116.557C82.743 116.543 82.5647 116.323 82.5784 116.062C82.5921 115.801 82.8115 115.622 83.0721 115.636C83.3326 115.649 83.5246 115.869 83.4971 116.131Z" fill="#2C5CFF"/>
<path d="M85.8008 113.011C86.9389 113.107 88.1867 113.245 88.6666 113.19V113.918C88.6666 113.918 87.5285 113.794 86.5275 113.794C85.1015 113.794 85.1015 113.794 85.1015 113.794L85.2249 113.011C85.2249 113.011 85.2112 112.97 85.8008 113.011Z" fill="#2C5CFF"/>
<path d="M96.7838 120.789C96.7838 120.789 95.5086 120.088 94.4802 119.621C93.4518 119.153 91.9572 119.992 91.9572 119.992C91.9572 119.992 91.7789 119.511 91.5184 118.906C91.2579 118.274 90.9288 117.504 90.6271 116.941C90.4626 116.611 90.3117 116.364 90.1883 116.24C89.6673 115.691 89.7221 115.045 89.5713 114.729C89.5713 114.715 89.5576 114.701 89.5576 114.687C89.4479 114.275 89.7358 112.599 90.0512 111.073C90.3803 109.493 90.8191 107.033 90.8191 107.033C90.9699 107.171 91.491 107.294 91.7652 107.624C91.7652 107.624 93.63 110.455 94.4116 112.406C95.8376 115.952 96.0707 116.68 96.3039 117.985C96.5644 119.277 96.7838 120.789 96.7838 120.789Z" fill="#6D9BFF"/>
<path d="M92.8212 118.04C92.8212 118.04 91.7928 118.838 90.3668 119.277C88.8036 119.758 87.8438 119.91 87.8438 119.91C87.8438 119.91 87.9535 121.201 87.9946 122.548C87.9946 122.548 91.4226 123.084 93.6576 122.658C95.8927 122.218 96.4549 122.301 96.8251 121.325C97.1953 120.349 96.5783 118.439 96.2903 117.601C96.0024 116.749 94.2061 117.408 92.8212 118.04Z" fill="#6D9BFF"/>
<path d="M87.4324 119.896C87.8026 120.391 87.7889 121.133 87.8849 122.164C87.9534 122.878 87.7066 122.865 87.7066 122.865L89.5851 122.81C89.5851 122.81 89.7908 121.724 89.5029 120.721C89.2012 119.717 89.2012 119.717 89.2012 119.717L87.4324 119.896Z" fill="#2C5CFF"/>
</g>
<circle cx="106.322" cy="161.536" r="10.9516" fill="white"/>
<mask id="mask1" mask-type="alpha" maskUnits="userSpaceOnUse" x="99" y="158" width="24" height="24">
<path d="M122.913 169.677C122.913 171.864 122.303 173.911 121.247 175.651C120.953 176.134 120.625 176.592 120.272 177.016C120.049 177.286 119.803 177.557 119.556 177.804C118.946 178.415 118.277 178.956 117.538 179.415C115.965 180.403 114.134 181.026 112.174 181.144C111.928 181.156 111.681 181.168 111.435 181.168C109.099 181.168 106.916 180.462 105.109 179.262C104.557 178.898 104.053 178.498 103.571 178.051C102.703 177.239 101.964 176.287 101.388 175.24C100.473 173.593 99.9566 171.688 99.9566 169.665C99.9566 166.489 101.236 163.608 103.325 161.526C105.402 159.444 108.266 158.162 111.447 158.162C114.615 158.162 117.491 159.444 119.568 161.526C121.634 163.631 122.913 166.501 122.913 169.677Z" fill="#DFEBFD"/>
</mask>
<g mask="url(#mask1)">
<path d="M106.345 177.278C106.345 177.278 105.731 177.905 105.117 178.609C104.854 178.894 104.601 179.202 104.382 179.477C103.647 180.401 102.956 180.664 102.144 181.566C101.64 182.126 100.981 182.555 99.7528 182.753C98.5242 182.951 94.0267 183.27 94.0267 183.27C94.0267 183.27 93.917 182.676 93.9938 182.478C94.0158 182.423 93.9609 182.313 93.8841 182.159C93.6867 181.764 93.3576 181.159 93.9938 181.082C94.8604 180.983 99.0837 179.961 99.2811 179.653C99.4786 179.345 100.619 177.927 101.234 176.641C101.848 175.355 102.769 173.782 103.713 172.243C104.536 170.891 104.777 170.825 105.216 170.429L105.731 173.574L106.345 177.278Z" fill="#6D9BFF"/>
<path d="M113.74 165.021C113.74 165.021 113.433 165.923 113.4 166.703C113.367 167.484 113.367 168.561 113.597 168.979C113.827 169.397 116.23 170.804 116.23 170.804C116.23 170.804 113.498 171.376 110.8 171.211C108.101 171.046 107.52 169.903 107.52 169.903C107.52 169.903 109.571 169.1 109.626 168.891C109.681 168.682 110.076 167.132 110.076 167.132L113.74 165.021Z" fill="#F6C1AA"/>
<path opacity="0.28" d="M113.542 168.836C113.378 168.352 113.378 167.407 113.4 166.703C113.433 165.923 113.74 165.021 113.74 165.021L110.087 167.11C110.087 167.11 109.692 168.671 109.637 168.869C109.582 169.078 107.531 169.881 107.531 169.881C107.531 169.881 107.553 169.925 107.608 169.991C109.593 169.661 111.568 169.254 113.542 168.836Z" fill="#EB9271"/>
<path d="M108.98 164.834C109.067 164.185 109.089 161.822 109.089 161.822L112.238 160.711L114.991 162.251C114.991 162.251 114.333 164.339 114.322 164.999C114.311 165.658 114.267 166.538 113.85 167.165C113.444 167.791 112.369 168.77 112.117 168.891C111.36 169.242 110.866 169.001 110.296 168.671C110.055 168.528 109.726 167.813 109.407 167.132C109.078 166.45 108.892 165.483 108.98 164.834Z" fill="#FDD2BB"/>
<path d="M113.915 163.196C113.915 163.196 113.926 164.043 114.146 164.593C114.19 164.702 114.157 165.032 114.113 165.428C114.222 165.296 114.343 165.175 114.453 165.054C114.683 164.812 114.892 164.571 115.089 164.318C115.21 163.834 115.418 163.185 115.407 162.811C115.385 161.679 115.385 161.052 113.323 160.041C112.928 159.854 112.127 159.326 111.721 159.48C111.107 159.711 110.932 159.931 110.449 160.338C110.449 160.338 109.802 160.206 108.99 161.085C108.518 161.602 108.661 162.35 108.683 162.91C108.738 164.054 109.045 163.988 109.045 163.988C109.089 163.405 109.312 163.429 109.487 162.549C109.542 162.253 109.622 162.173 109.929 162.107C110.214 162.041 110.35 161.646 111.305 162.602C111.875 163.174 112.182 163.13 113.915 163.196Z" fill="#5C3000"/>
<path d="M113.992 164.977C114.146 164.406 114.387 163.988 114.65 163.999C114.903 164.021 115.166 164.494 114.848 165.032C114.53 165.571 114.321 165.901 114.146 166.11C113.97 166.341 113.893 165.34 113.992 164.977Z" fill="#FDD2BB"/>
<path d="M114.146 165.043C114.234 164.735 114.376 164.351 114.606 164.373C114.837 164.395 114.87 164.647 114.552 165.087C114.234 165.516 114.168 165.747 114.168 165.747C114.168 165.747 114.102 165.219 114.146 165.043Z" fill="#EB9271"/>
<path d="M111.392 176.597C111.052 178.597 110.898 183.511 110.054 183.138C109.593 182.929 108.167 182.94 106.96 182.984C105.973 183.028 105.15 183.094 105.15 183.094C105.15 183.094 105.096 180.873 105.117 178.608C105.128 177.52 105.15 176.432 105.216 175.563C105.238 175.277 105.249 175.003 105.26 174.739C105.337 172.199 104.92 170.726 105.216 170.44C105.545 170.121 109.374 169.154 109.56 168.692L109.845 170.044C110.547 171.166 111.458 170.825 111.458 170.825C111.458 170.825 111.732 174.596 111.392 176.597Z" fill="#6D9BFF"/>
<path d="M110.492 171.199C110.306 172.309 110.262 173.178 109.944 175.31C109.626 177.443 109.779 178.323 109.637 179.664C109.494 181.005 109.231 182.995 109.231 182.995L111.523 183.336C111.523 183.336 111.6 179.488 111.721 176.783C111.842 174.079 112.291 171.671 112.291 171.671L112.598 170.022C112.598 170.022 111.754 170.924 110.876 170.836C109.988 170.726 110.492 171.199 110.492 171.199Z" fill="#2C5CFF"/>
<path d="M117.348 172.793C117.26 173.617 117.644 174.64 117.469 175.794C117.348 176.564 117.195 177.498 117.03 178.432C116.8 179.763 116.931 183.127 116.931 183.127C116.931 183.127 111.699 182.94 110.81 183.193C109.933 183.435 110.481 178.553 110.426 176.52C110.372 174.486 111.194 170.814 111.194 170.814C111.194 170.814 111.874 170.814 112.916 170.001C113.564 169.506 113.673 168.846 113.673 168.846C113.794 169.319 117.359 170.396 117.644 170.77C117.688 170.825 117.721 170.935 117.743 171.078C117.776 171.441 117.425 172.023 117.348 172.793Z" fill="#6D9BFF"/>
<path d="M111.184 170.814C111.502 170.726 112.566 170.133 112.961 169.605C113.356 169.077 113.465 168.484 113.465 168.484C113.465 168.484 113.838 169.088 113.882 169.473C113.926 169.858 113.026 171.727 112.862 172.244C112.862 172.244 112.577 172.189 112.05 171.738C111.524 171.287 111.184 170.814 111.184 170.814Z" fill="#2C5CFF"/>
<path d="M109.692 168.637C109.692 168.637 109.516 168.901 109.911 169.55C110.306 170.199 111.173 170.825 111.173 170.825L109.769 172.189C109.769 172.189 109.44 171.375 109.242 170.671C109.045 169.968 109.078 169.22 109.176 169C109.286 168.791 109.692 168.637 109.692 168.637Z" fill="#2C5CFF"/>
<path d="M111.601 173.837C111.59 174.046 111.414 174.189 111.206 174.178C110.997 174.167 110.854 173.991 110.865 173.782C110.876 173.573 111.052 173.431 111.261 173.442C111.469 173.453 111.623 173.628 111.601 173.837Z" fill="#2C5CFF"/>
<path d="M111.316 177.795C111.305 178.004 111.129 178.147 110.92 178.136C110.712 178.125 110.569 177.949 110.58 177.74C110.591 177.531 110.767 177.388 110.975 177.399C111.184 177.41 111.338 177.586 111.316 177.795Z" fill="#2C5CFF"/>
<path d="M113.158 175.3C114.068 175.377 115.067 175.486 115.45 175.443V176.025C115.45 176.025 114.54 175.926 113.739 175.926C112.598 175.926 112.598 175.926 112.598 175.926L112.697 175.3C112.697 175.3 112.686 175.267 113.158 175.3Z" fill="#2C5CFF"/>
<path d="M121.945 181.522C121.945 181.522 120.925 180.961 120.102 180.587C119.279 180.213 118.084 180.884 118.084 180.884C118.084 180.884 117.941 180.499 117.733 180.016C117.524 179.51 117.261 178.894 117.02 178.443C116.888 178.18 116.767 177.982 116.669 177.883C116.252 177.443 116.296 176.926 116.175 176.674C116.175 176.663 116.164 176.652 116.164 176.641C116.076 176.311 116.307 174.97 116.559 173.749C116.822 172.485 117.173 170.517 117.173 170.517C117.294 170.627 117.711 170.726 117.93 170.99C117.93 170.99 119.422 173.255 120.047 174.816C121.188 177.652 121.374 178.235 121.561 179.279C121.769 180.312 121.945 181.522 121.945 181.522Z" fill="#6D9BFF"/>
<path d="M118.776 179.323C118.776 179.323 117.953 179.961 116.812 180.313C115.562 180.697 114.794 180.818 114.794 180.818C114.794 180.818 114.881 181.852 114.914 182.929C114.914 182.929 117.657 183.358 119.445 183.017C121.233 182.666 121.683 182.731 121.979 181.951C122.275 181.17 121.781 179.642 121.551 178.971C121.321 178.29 119.884 178.817 118.776 179.323Z" fill="#6D9BFF"/>
<path d="M114.464 180.807C114.76 181.203 114.749 181.797 114.826 182.622C114.88 183.193 114.683 183.182 114.683 183.182L116.186 183.138C116.186 183.138 116.35 182.27 116.12 181.467C115.879 180.664 115.879 180.664 115.879 180.664L114.464 180.807Z" fill="#2C5CFF"/>
</g>
<line x1="283.768" y1="205.909" x2="80.775" y2="205.909" stroke="black" stroke-width="0.508754"/>
<path d="M245.498 77.5739C265.12 91.4915 242.76 121.152 231.353 122.293" stroke="#685ED6" stroke-width="0.456317" stroke-linecap="round" stroke-linejoin="round" stroke-dasharray="2.28 3.19"/>
<path d="M58.4085 65.4816C31.2577 96.2069 15.7886 150.493 34.2238 184.808C57.2678 227.702 101.759 231.353 176.138 237.057" stroke="#18E1F7" stroke-width="0.456317" stroke-linecap="round" stroke-linejoin="round" stroke-dasharray="2.28 3.19"/>
<path d="M226.561 65.0252C220.325 62.2112 212.05 58.1348 210.59 49.7385C209.13 41.3423 224.964 26.6946 213.556 20.9906" stroke="#685ED6" stroke-width="0.456317" stroke-linecap="round" stroke-linejoin="round" stroke-dasharray="2.28 3.19"/>
<path d="M16.5412 31.2248L41.8933 35.4477L25.2624 23.3969L24.3266 27.1378L18.1243 28.1334L16.5412 31.2248Z" fill="#685ED6"/>
<path d="M41.8933 35.4466L20.9641 23.924L0.253941 22.4158L41.8933 35.4466Z" fill="#18E1F7"/>
<path d="M25.2609 23.3961L41.8924 35.4477L29.2021 16.9023L25.2609 23.3961Z" fill="#18E1F7"/>
<path d="M297.808 19.3428L283.906 25.2018L291.771 16.0642L292.811 18.0709L296.486 17.7948L297.808 19.3428Z" fill="#685ED6"/>
<path d="M283.906 25.2015L294.295 15.7816L305.913 12.1033L283.906 25.2015Z" fill="#18E1F7"/>
<path d="M291.773 16.0602L283.907 25.2001L288.646 12.8916L291.773 16.0602Z" fill="#18E1F7"/>
<path d="M159.739 42.8497C159.739 42.8497 158.065 43.1353 156.391 42.656C156.391 42.656 156.63 43.6147 158.304 43.7747C159.5 43.6147 159.739 42.8497 159.739 42.8497Z" fill="white"/>
<path d="M203.832 256.735L223.016 248.719L206.94 248.231L207.698 250.939L203.768 254.157L203.832 256.735Z" fill="#685ED6"/>
<path d="M223.016 248.718L204.156 250.358L189.216 258.107L223.016 248.718Z" fill="#18E1F7"/>
<path d="M206.937 248.23L223.016 248.719L207.229 242.555L206.937 248.23Z" fill="#18E1F7"/>
<path d="M224.28 237.513C255.081 245.042 307.329 250.746 307.329 213.328C307.329 173.596 291.586 174.769 281.547 115.448" stroke="#18E1F7" stroke-width="0.456317" stroke-linecap="round" stroke-linejoin="round" stroke-dasharray="2.28 3.19"/>
<defs>
<clipPath id="clip0">
<rect width="86.5234" height="51.9349" fill="white" transform="translate(104.934 28.3539)"/>
</clipPath>
</defs>
</svg>
