<svg width="420" height="338" viewBox="0 0 420 338" fill="none" xmlns="http://www.w3.org/2000/svg">
<path d="M398.674 107.664H352.902C349.25 107.664 346.265 110.649 346.265 114.301V134.376C346.265 137.732 349.009 140.475 352.364 140.475H353.532L351.326 149.781L365.175 140.475H399.064C402.716 140.475 405.701 137.491 405.701 133.839V114.69C405.701 110.816 402.531 107.664 398.674 107.664Z" fill="#88EEFB"/>
<path d="M399.898 124.333H352.179C351.53 124.333 350.993 123.796 350.993 123.147C350.993 122.498 351.53 121.96 352.179 121.96H399.898C400.547 121.96 401.085 122.498 401.085 123.147C401.085 123.796 400.547 124.333 399.898 124.333Z" fill="white"/>
<path d="M399.898 129.616H352.179C351.53 129.616 350.993 129.079 350.993 128.43C350.993 127.781 351.53 127.243 352.179 127.243H399.898C400.547 127.243 401.085 127.781 401.085 128.43C401.085 129.097 400.547 129.616 399.898 129.616Z" fill="white"/>
<path d="M399.898 134.918H352.179C351.53 134.918 350.993 134.38 350.993 133.732C350.993 133.083 351.53 132.545 352.179 132.545H399.898C400.547 132.545 401.085 133.083 401.085 133.732C401.085 134.38 400.547 134.918 399.898 134.918Z" fill="white"/>
<path d="M373.907 116.122H353.644C352.865 116.122 352.235 115.492 352.235 114.713C352.235 113.934 352.865 113.304 353.644 113.304H373.907C374.685 113.304 375.316 113.934 375.316 114.713C375.297 115.492 374.667 116.122 373.907 116.122Z" fill="white"/>
<path d="M391.315 116.122H379.116C378.504 116.122 378.004 115.622 378.004 115.01V114.416C378.004 113.805 378.504 113.304 379.116 113.304H391.315C391.926 113.304 392.427 113.805 392.427 114.416V115.01C392.427 115.622 391.926 116.122 391.315 116.122Z" fill="white"/>
<path d="M161.118 229.129H224.743C226.745 229.129 228.358 227.516 228.358 225.514V205.939C228.358 203.937 226.745 202.324 224.743 202.324H161.118C159.116 202.324 157.503 203.937 157.503 205.939V225.514C157.521 227.498 159.134 229.129 161.118 229.129Z" fill="white"/>
<path d="M262.526 13.5143V247.954C262.526 253.738 257.835 258.409 252.051 258.409H120.796C115.012 258.409 110.322 253.719 110.322 247.954V13.5143C110.322 7.73068 115.012 3.04077 120.796 3.04077H252.051C257.854 3.05931 262.526 7.73068 262.526 13.5143Z" fill="#C0D8FB"/>
<path d="M144.674 190.321H208.707C210.58 190.321 212.1 188.801 212.1 186.929V169.967C212.1 168.095 210.58 166.575 208.707 166.575H144.674C142.802 166.575 141.282 168.095 141.282 169.967V186.91C141.282 188.801 142.802 190.321 144.674 190.321Z" fill="#FCE29E"/>
<path d="M259.874 3.05896H112.583V101.232H259.874V3.05896Z" fill="#F0F6FF"/>
<path d="M205.019 15.8131H167.885C162.379 15.8131 157.93 11.3642 157.93 5.85864H214.974C214.956 11.3642 210.506 15.8131 205.019 15.8131Z" fill="#2B478B"/>
<path d="M252.329 261.226H120.536C113.436 261.226 107.671 255.146 107.671 247.675V13.7917C107.671 6.32117 113.436 0.240967 120.536 0.240967H252.329C259.429 0.240967 265.195 6.32117 265.195 13.7917V247.675C265.195 255.146 259.429 261.226 252.329 261.226ZM120.536 5.85774C116.384 5.85774 113.01 9.41688 113.01 13.7917V247.675C113.01 252.05 116.384 255.609 120.536 255.609H252.329C256.482 255.609 259.856 252.05 259.856 247.675V13.7917C259.856 9.41688 256.482 5.85774 252.329 5.85774H120.536Z" fill="#2B478B"/>
<path d="M251.644 258.334H117.144C113.307 258.334 110.174 255.22 110.174 251.383V241.947H262.693V247.286C262.693 253.385 257.743 258.334 251.644 258.334Z" fill="#2B478B"/>
<path d="M275.04 131.225C280.787 130.002 286.775 131.744 291.039 135.785C292.911 137.565 294.969 139.808 296.86 142.459C301.55 149.002 292.577 155.49 293.764 157.696C294.95 159.921 297.731 161.663 296.508 166.297C295.303 170.932 287.312 176.938 284.717 177.197C258.336 179.904 246.898 165.371 255.704 157.529C264.509 149.688 260.932 138.325 268.088 133.913C270.312 132.541 272.741 131.726 275.04 131.225Z" fill="#233862"/>
<path d="M288.461 171.766C288.461 171.766 313.303 182.592 317.808 182.388C322.313 182.184 350.103 173.935 350.103 173.935L349.399 178.717C349.399 178.717 327.949 191.045 320.459 191.749C313.081 192.435 287.85 185.131 285.403 183.574C282.955 182.017 281.38 173.323 288.461 171.766Z" fill="#FDB888"/>
<path d="M291.465 183.593C289.277 185.113 286.552 186.355 283.122 187.152C270.256 190.118 265.325 179.255 263.471 171.785C265.232 170.784 266.882 170.561 267.828 170.45C268.754 170.339 269.737 170.265 270.553 170.228C271.999 169.115 274.149 164.592 274.631 157.548L275.243 157.715L285.384 160.496C285.384 160.496 284.92 163.721 284.698 166.761C284.531 169.152 284.494 171.433 284.939 171.989C285.736 172.156 286.2 172.267 286.2 172.267C286.2 172.267 286.2 172.267 286.2 172.285C286.329 172.489 289.277 177.327 291.465 183.593Z" fill="#FFB27D"/>
<path d="M285.365 160.477C285.365 160.477 284.902 163.702 284.679 166.742C278.932 166.168 276.263 160.699 275.225 157.696L285.365 160.477Z" fill="#ED985F"/>
<path d="M287.089 163.499C287.089 163.499 273.445 162.739 274.038 154.267C274.631 145.777 273.278 139.975 282.01 140.086C290.741 140.216 292.206 143.571 292.688 146.444C293.189 149.318 290.649 163.48 287.089 163.499Z" fill="#FFB27D"/>
<path d="M292.651 141.7C290.723 138.993 289.092 139.438 288.146 140.143C280.99 135.508 275.762 141.218 275.762 141.218C274.409 147.242 269.774 150.412 269.774 150.412C269.774 150.412 272.184 152.34 277.987 151.061C285.384 149.411 287.924 142.997 288.276 142.015C289.055 142.83 290.056 143.331 290.834 145.092C291.743 147.168 292.317 148.373 292.336 151.784C292.317 151.784 295.525 145.759 292.651 141.7Z" fill="#233862"/>
<path d="M259.578 211.324C258.354 205.022 254.331 179.867 258.354 171.766C259.8 168.856 265.455 168.596 271.665 168.856C273.593 170.098 280.953 174.825 283.993 174.231C284.031 174.231 284.086 174.213 284.16 174.194C285.588 173.842 286.125 172.841 284.939 171.97C284.939 171.97 288.016 171.673 291.835 172.396C293.986 172.804 299.807 175.807 299.807 175.807C299.807 175.807 296.878 181.109 292.558 182.925C293.3 189.506 292.206 192.398 285.384 207.58C279.618 220.408 286.162 231.975 286.162 231.975C286.162 231.975 252.236 259.243 252.051 245.359C251.903 234.904 261.154 219.37 259.578 211.324Z" fill="white"/>
<path d="M287.831 261.616C289.685 261.412 291.335 260.393 292.373 258.854C292.54 258.613 292.707 258.353 292.892 258.057C296.748 252.218 298.25 234.311 306.944 215.236C309.058 210.602 316.659 209.768 318.716 204.503C318.716 204.503 323.815 187.486 308.965 186.985C294.115 186.485 269.199 234.311 268.791 239.334C268.421 244.228 258.984 264.879 287.831 261.616Z" fill="#FDCD51"/>
<path d="M346.859 261.226H325.724C325.724 261.226 324.927 257.853 326.318 255.554C327.541 253.534 327.078 252.366 326.169 250.697C327.133 251.087 328.357 251.439 329.729 251.365C330.785 251.309 331.898 250.827 332.88 250.252C333.789 251.291 337.682 255.702 338.905 256.574C340.277 257.593 346.432 257.222 346.859 261.226Z" fill="#233862"/>
<path d="M319.199 191.935C320.478 201.481 325.447 231.586 334.216 246.286C337.033 251.031 327.097 253.682 327.041 253.664C325.706 253.311 323.482 251.18 322.462 250.271C315.343 243.857 300.901 225.691 300.901 211.139C300.901 204.039 300.772 190.47 305.944 187.022C309.114 184.891 318.699 188.153 319.199 191.935Z" fill="#FDCD51"/>
<path d="M275.225 261.227C275.225 261.227 276.003 260.133 277.375 258.075C279.006 255.61 280.805 250.772 282.974 244.562C285.273 238.037 287.979 230.028 291.39 221.668C292.447 219.092 293.559 216.478 294.746 213.883C296.859 209.248 302.681 209.879 304.757 204.633C304.757 204.633 312.84 186.448 297.99 185.928C283.141 185.428 254.925 234.589 253.293 239.353C251.513 244.58 242.837 266.232 275.225 261.227Z" fill="#FCE29E"/>
<path d="M331.342 261.226H310.207C310.207 261.226 309.41 257.853 310.801 255.554C312.024 253.534 311.561 252.366 310.652 250.697C311.616 251.087 312.84 251.439 314.212 251.365C315.268 251.309 316.381 250.827 317.363 250.252C318.272 251.291 322.165 255.702 323.388 256.574C324.76 257.593 330.915 257.222 331.342 261.226Z" fill="#2B478B"/>
<path d="M282.974 244.562C285.273 238.037 287.979 230.029 291.39 221.668C290.5 215.347 288.591 209.805 285.365 207.58C285.365 207.58 277.56 231.771 282.974 244.562Z" fill="#FFDB7D"/>
<path d="M306.871 191.267C308.15 200.814 309.929 231.604 318.698 246.285C321.516 251.031 311.579 253.682 311.524 253.663C310.189 253.311 307.964 251.179 306.945 250.271C299.826 243.857 285.384 225.691 285.384 211.139C285.384 204.039 293.726 191.045 298.88 187.597C302.05 185.465 306.351 187.467 306.871 191.267Z" fill="#FCE29E"/>
<path d="M352.624 161.645L330.971 159.346C330.34 159.272 329.747 159.643 329.525 160.236L321.775 180.59C321.442 181.48 322.072 182.444 323.018 182.481L344.504 183.352C345.079 183.37 345.616 183.037 345.857 182.499L353.773 163.591C354.126 162.701 353.551 161.737 352.624 161.645Z" fill="#233862"/>
<path d="M354.496 161.83L332.843 159.532C332.213 159.458 331.619 159.828 331.397 160.422L323.648 180.775C323.314 181.665 323.944 182.629 324.89 182.666L346.376 183.537C346.951 183.556 347.489 183.222 347.73 182.685L355.646 163.777C355.998 162.906 355.423 161.923 354.496 161.83Z" fill="#2B478B"/>
<path d="M342.501 171.34C342.761 170.617 342.39 170.024 341.667 170.024C340.944 170.024 340.128 170.617 339.869 171.34C339.609 172.063 339.98 172.656 340.703 172.656C341.426 172.656 342.242 172.063 342.501 171.34Z" fill="#EBF3FA"/>
<path d="M353.848 163.759C353.977 163.406 353.792 163.11 353.44 163.11C353.087 163.11 352.68 163.406 352.55 163.759C352.42 164.111 352.605 164.408 352.958 164.408C353.328 164.408 353.718 164.111 353.848 163.759Z" fill="#EBF3FA"/>
<path d="M263.471 171.766C263.471 171.766 293.467 182.814 297.972 182.592C300.882 182.443 325.113 173.935 325.113 173.935L327.282 178.05C327.282 178.05 303.719 193.195 297.23 193.121C284.438 192.972 262.841 185.113 260.412 183.574C257.984 182.035 256.389 173.323 263.471 171.766Z" fill="#FFB27D"/>
<path d="M325.113 173.935C325.113 173.935 327.282 170.598 329.451 170.487C331.62 170.394 335.346 171.97 336.625 172.211C337.904 172.452 341.538 173.639 340.463 175.419C339.387 177.198 334.363 177.588 332.194 177.198C330.025 176.809 327.282 178.07 327.282 178.07L325.113 173.935Z" fill="#FFB27D"/>
<path d="M328.858 170.598C328.858 170.598 332.306 169.023 333.288 168.726C334.271 168.429 334.067 168.726 333.789 169.671C333.492 170.598 331.731 171.488 331.731 171.785C331.731 172.082 328.858 170.598 328.858 170.598Z" fill="#FFB27D"/>
<path d="M352.272 172.156C352.272 172.156 350.103 168.726 349.398 168.578C347.229 168.151 347.229 171.006 347.693 172.842C348.193 174.807 349.862 176.679 350.307 176.513C350.77 176.364 352.772 173.973 352.272 172.156Z" fill="#FFB27D"/>
<path d="M352.346 172.841C352.346 172.841 353.032 176.698 349.38 178.7L350.455 176.049L352.346 172.841Z" fill="#FFB27D"/>
<path d="M289.648 158.623C289.648 158.623 288.35 158.104 284.735 158.401C284.735 158.401 284.921 159.809 287.609 159.958C289.11 160.032 289.648 158.623 289.648 158.623Z" fill="white"/>
<path d="M278.914 177.216C278.914 177.216 276.226 185.706 267.012 187.634C267.012 187.634 251.792 182.944 259.374 172.582C259.374 172.582 266.882 167.021 278.914 177.216Z" fill="white"/>
<path d="M219.385 179.013C219.385 183.444 221.258 187.429 224.242 190.247C227.005 192.842 230.713 194.436 234.81 194.436C235.143 194.436 235.477 194.418 235.792 194.399C239.648 194.158 243.134 192.49 245.71 189.913C246.044 189.579 246.378 189.227 246.674 188.857C247.156 188.282 247.601 187.67 247.991 187.021C249.418 184.686 250.234 181.942 250.234 179.013C250.234 174.75 248.51 170.894 245.71 168.113C242.911 165.333 239.074 163.59 234.81 163.59C230.546 163.59 226.69 165.314 223.909 168.113C221.128 170.913 219.385 174.768 219.385 179.013Z" fill="white"/>
<path d="M225.855 186.002C226.133 186.187 226.43 186.354 226.764 186.466C229.174 188.56 232.993 191.934 235.792 194.399C239.648 194.158 243.133 192.49 245.71 189.913C246.044 189.58 246.378 189.228 246.674 188.857C247.156 188.282 247.601 187.67 247.991 187.022C247.657 186.428 247.268 185.835 246.786 185.242C244.301 182.035 242.281 180.941 242.837 176.808C243.133 174.565 241.687 166.612 236.534 166.204C236.107 166.167 233.493 165.722 231.602 166.26C227.023 167.502 220.59 182.369 225.855 186.002Z" fill="#233862"/>
<path d="M231.195 185.113C231.176 185.113 233.345 186.429 235.051 186.077C236.664 185.743 238.314 183.556 238.277 183.556C237.609 183.389 236.998 182.629 237.276 178.661L236.96 178.698L231.788 179.384C231.788 179.384 231.807 180.997 231.714 182.517C231.658 183.797 231.491 185.002 231.195 185.113Z" fill="#FFB27D"/>
<path d="M231.806 179.403C231.806 179.403 231.825 181.016 231.732 182.536C234.587 182.629 236.274 180.126 236.979 178.717L231.806 179.403Z" fill="#ED975D"/>
<path d="M230.768 180.775C230.768 180.775 237.516 181.313 237.794 177.105C238.073 172.897 239.111 170.135 234.81 169.597C230.509 169.078 229.563 170.635 229.137 172.007C228.711 173.398 229.007 180.516 230.768 180.775Z" fill="#FFB27D"/>
<path d="M229.86 169.82C229.86 169.82 233.271 174.344 236.07 175.252C238.87 176.161 240.149 175.475 240.149 175.475C240.149 175.475 238.758 173.713 238.239 171.229C238.091 170.506 237.553 169.913 236.83 169.69C234.847 169.097 230.991 168.17 229.86 169.82Z" fill="#233862"/>
<path d="M232.548 170.079C232.548 170.079 230.842 171.136 230.193 172.045C229.563 172.916 228.933 175.233 229.063 176.216C229.063 176.216 227.802 171.488 229.489 169.69C231.269 167.781 232.548 170.079 232.548 170.079Z" fill="#233862"/>
<path d="M224.243 190.247C227.005 192.842 230.713 194.437 234.81 194.437H235.829C235.811 194.418 235.811 194.418 235.792 194.399C239.648 194.158 243.134 192.49 245.711 189.913C246.044 189.58 246.378 189.228 246.675 188.857C246.137 187.689 245.618 186.744 245.191 186.132C243.282 183.462 237.757 183.129 237.757 183.129C237.739 183.129 237.739 183.147 237.72 183.147C235.625 184.389 234.235 184.779 233.327 184.779C231.992 184.779 231.677 183.926 231.621 183.722C231.621 183.685 231.621 183.685 231.621 183.685C231.621 183.685 227.635 184.352 225.855 186.021C225.485 186.373 225.207 186.762 225.095 187.188C224.947 187.726 224.632 188.838 224.243 190.247Z" fill="#FCE29E"/>
<path d="M83.6669 158.438H210.157C213.921 158.438 216.98 155.379 216.98 151.616V116.84C216.98 113.077 213.921 110.018 210.157 110.018H83.6669C79.9035 110.018 76.8446 113.077 76.8446 116.84V151.616C76.8446 155.379 79.9035 158.438 83.6669 158.438Z" fill="white"/>
<path d="M150.612 130.855H133.037V133.136H150.612V130.855Z" fill="#CBE1FD"/>
<path d="M154.949 135.415H133.036V137.696H154.949V135.415Z" fill="#CBE1FD"/>
<path d="M172.82 135.415H156.692V137.696H172.82V135.415Z" fill="#CBE1FD"/>
<path d="M149.165 139.864H133.036V142.144H149.165V139.864Z" fill="#CBE1FD"/>
<path d="M164.218 130.855H152.502V133.135H164.218V130.855Z" fill="#CBE1FD"/>
<path d="M190.432 130.855H166.739V133.135H190.432V130.855Z" fill="#CBE1FD"/>
<path d="M158.082 119.566H133.203V122.791H158.082V119.566Z" fill="#CBE1FD"/>
<path d="M195.234 119.565H160.845V122.791H195.234V119.565Z" fill="#CBE1FD"/>
<path d="M158.116 178.44H146.566V179.942H158.116V178.44Z" fill="white"/>
<path d="M160.97 181.442H146.565V182.944H160.97V181.442Z" fill="white"/>
<path d="M172.724 181.442H162.12V182.944H172.724V181.442Z" fill="white"/>
<path d="M157.169 184.371H146.565V185.873H157.169V184.371Z" fill="white"/>
<path d="M167.069 178.44H159.357V179.941H167.069V178.44Z" fill="white"/>
<path d="M184.31 178.44H168.719V179.941H184.31V178.44Z" fill="white"/>
<path d="M163.047 171.024H146.678V173.138H163.047V171.024Z" fill="white"/>
<path d="M187.462 171.024H164.844V173.137H187.462V171.024Z" fill="white"/>
<path d="M174.54 214.644H162.99V216.146H174.54V214.644Z" fill="white"/>
<path d="M177.395 217.627H162.991V219.128H177.395V217.627Z" fill="white"/>
<path d="M189.149 217.627H178.545V219.128H189.149V217.627Z" fill="white"/>
<path d="M173.595 220.555H162.991V222.057H173.595V220.555Z" fill="white"/>
<path d="M183.495 214.643H175.783V216.145H183.495V214.643Z" fill="white"/>
<path d="M200.736 214.643H185.145V216.145H200.736V214.643Z" fill="white"/>
<path d="M179.473 207.209H163.103V209.322H179.473V207.209Z" fill="white"/>
<path d="M203.887 207.209H181.27V209.322H203.887V207.209Z" fill="white"/>
<path d="M246.564 19.7805L245.044 20.8743L243.523 19.799C243.857 19.317 244.413 19.0018 245.044 19.0018C245.655 19.0018 246.212 19.317 246.564 19.7805Z" fill="#2B478B"/>
<path d="M245.044 16.3507C243.524 16.3507 242.17 17.1108 241.355 18.2603L242.319 18.9277C242.93 18.0749 243.913 17.5187 245.044 17.5187C246.156 17.5187 247.139 18.0749 247.751 18.9092L248.715 18.2232C247.88 17.0923 246.546 16.3507 245.044 16.3507Z" fill="#2B478B"/>
<path d="M245.044 11.3262C241.818 11.3262 238.981 12.9206 237.239 15.3678L238.203 16.0352C239.723 13.8846 242.226 12.4942 245.044 12.4942C247.843 12.4942 250.327 13.8846 251.847 15.9981L252.793 15.3121C251.069 12.8835 248.232 11.3262 245.044 11.3262Z" fill="#2B478B"/>
<path d="M245.044 14.0706C242.745 14.0706 240.724 15.2015 239.482 16.9442L240.446 17.6116C241.466 16.1841 243.153 15.2385 245.044 15.2385C246.916 15.2385 248.585 16.1655 249.623 17.5745L250.568 16.8886C249.326 15.1829 247.305 14.0706 245.044 14.0706Z" fill="#2B478B"/>
<path d="M317.123 100.619L310.435 90.0709L318.901 95.2527L317.435 96.3718L318.18 99.3323L317.123 100.619Z" fill="#685ED6"/>
<path d="M310.435 90.0708L319.489 97.2742L324.1 106.255L310.435 90.0708Z" fill="#18E1F7"/>
<path d="M318.901 95.2545L310.436 90.0726L321.004 92.2756L318.901 95.2545Z" fill="#18E1F7"/>
<g clip-path="url(#clip0)">
<path d="M239.191 91.9558H133.553V102.035H239.191V91.9558Z" fill="white"/>
<path d="M189.597 78.0421C189.597 78.0421 188.146 79.519 186.695 81.1772C186.073 81.8508 185.478 82.5763 184.959 83.2241C183.223 85.4005 181.591 86.0223 179.674 88.1469C178.482 89.4683 176.927 90.4788 174.025 90.9452C171.123 91.4116 160.5 92.163 160.5 92.163C160.5 92.163 160.24 90.7638 160.422 90.2975C160.474 90.1679 160.344 89.9088 160.163 89.5461C159.696 88.6133 158.919 87.1883 160.422 87.0069C162.469 86.7737 172.444 84.3641 172.911 83.6386C173.377 82.9132 176.072 79.5708 177.523 76.5393C178.974 73.5079 181.15 69.8028 183.379 66.1754C185.322 62.9885 185.892 62.833 186.929 61.9003L188.146 69.3105L189.597 78.0421Z" fill="#6D9BFF"/>
<path d="M155.629 91.8525H148.529V91.5415C148.529 89.5981 150.11 87.9915 152.079 87.9915C154.022 87.9915 155.629 89.5721 155.629 91.5415V91.8525Z" fill="#A5A5A5"/>
<path d="M155.862 87.8104C155.292 87.6031 153.556 86.7739 152.623 86.7739C151.691 86.7739 150.136 88.3546 149.255 89.132C148.374 89.9094 149.592 90.635 150.291 90.2722C151.017 89.9094 151.691 89.0024 152.364 89.0284C153.038 89.0543 153.349 89.6503 153.712 89.7798C153.893 89.8317 153.997 90.3499 153.66 90.5831C153.297 90.8423 152.494 90.8423 152.287 90.9718C151.846 91.2569 152.131 92.0084 152.882 92.0084C153.634 92.0084 154.256 92.0861 155.163 91.9047C156.044 91.7233 157.158 91.9824 157.831 91.6974C158.531 91.4124 160.474 92.112 160.474 92.112L159.075 88.3028C159.075 88.3546 156.976 88.251 155.862 87.8104Z" fill="#FDD2BB"/>
<path d="M156.38 87.8103C156.536 88.3804 156.898 88.7691 157.183 89.6502C157.831 91.5418 157.002 91.9046 157.002 91.9046C157.002 91.9046 160.629 92.1637 161.277 91.9046C161.277 91.9046 162.158 90.9199 161.277 88.9764C160.396 87.033 160.396 87.033 160.396 87.033C160.396 87.033 159.852 87.033 158.246 87.2662C156.924 87.4476 156.38 87.8103 156.38 87.8103Z" fill="#2C5CFF"/>
<path d="M207.062 49.1526C207.062 49.1526 206.336 51.2772 206.258 53.1168C206.181 54.9564 206.181 57.4956 206.725 58.4801C207.269 59.4647 212.943 62.7812 212.943 62.7812C212.943 62.7812 206.492 64.1285 200.118 63.7398C193.744 63.3512 192.37 60.6566 192.37 60.6566C192.37 60.6566 197.216 58.7651 197.345 58.2729C197.475 57.7806 198.407 54.1273 198.407 54.1273L207.062 49.1526Z" fill="#F6C1AA"/>
<path opacity="0.28" d="M206.595 58.1433C206.207 57.0033 206.207 54.775 206.258 53.1168C206.336 51.2772 207.062 49.1526 207.062 49.1526L198.433 54.0755C198.433 54.0755 197.501 57.7547 197.371 58.221C197.241 58.7133 192.396 60.6048 192.396 60.6048C192.396 60.6048 192.448 60.7084 192.577 60.8638C197.267 60.0866 201.931 59.1279 206.595 58.1433Z" fill="#EB9271"/>
<path d="M195.818 48.7127C196.025 47.184 196.077 41.6134 196.077 41.6134L203.513 38.9965L210.017 42.6238C210.017 42.6238 208.462 47.5467 208.436 49.1013C208.41 50.6559 208.307 52.7287 207.322 54.2055C206.363 55.6824 203.824 57.9884 203.228 58.2734C201.44 59.1025 200.274 58.5325 198.927 57.7552C198.357 57.4184 197.58 55.7342 196.828 54.1278C196.051 52.5214 195.61 50.2413 195.818 48.7127Z" fill="#FDD2BB"/>
<path d="M207.476 44.8518C207.476 44.8518 207.502 46.8468 208.021 48.1423C208.124 48.4014 208.047 49.1787 207.943 50.1115C208.202 49.8006 208.487 49.5155 208.746 49.2305C209.29 48.6605 209.783 48.0905 210.249 47.4946C210.534 46.3545 211.026 44.8259 211 43.9449C210.949 41.2762 210.949 39.7994 206.077 37.4156C205.145 36.9752 203.253 35.7315 202.294 36.0942C200.843 36.6383 200.429 37.1565 199.289 38.1152C199.289 38.1152 197.76 37.8043 195.843 39.8771C194.728 41.0948 195.065 42.8567 195.117 44.1781C195.247 46.8727 195.972 46.7173 195.972 46.7173C196.076 45.3441 195.843 44.774 196.257 42.7013C196.387 42.0017 197.423 41.7685 198.149 41.613C198.822 41.4576 199.056 41.1985 201.31 43.4526C202.657 44.8 203.383 44.6963 207.476 44.8518Z" fill="#5C3000"/>
<path d="M207.658 49.0493C208.021 47.7018 208.591 46.7171 209.213 46.7431C209.809 46.7949 210.431 47.9091 209.679 49.1789C208.928 50.4486 208.435 51.226 208.021 51.7184C207.606 52.2625 207.425 49.9044 207.658 49.0493Z" fill="#FDD2BB"/>
<path d="M208.021 49.2046C208.228 48.4791 208.565 47.5721 209.109 47.624C209.653 47.6758 209.731 48.2718 208.98 49.3083C208.228 50.3189 208.073 50.8631 208.073 50.8631C208.073 50.8631 207.917 49.6193 208.021 49.2046Z" fill="#EB9271"/>
<path d="M201.517 76.4357C200.713 81.1513 200.351 92.733 198.355 91.8521C197.267 91.3598 193.899 91.3857 191.049 91.4893C188.717 91.593 186.773 91.7484 186.773 91.7484C186.773 91.7484 186.644 86.5146 186.696 81.1772C186.721 78.6121 186.773 76.0471 186.929 74.0002C186.981 73.3265 187.007 72.6788 187.032 72.0569C187.214 66.0718 186.229 62.5998 186.929 61.9262C187.706 61.1748 196.749 58.8947 197.189 57.8065L197.863 60.9934C199.521 63.6362 201.672 62.833 201.672 62.833C201.672 62.833 202.32 71.7201 201.517 76.4357Z" fill="#6D9BFF"/>
<path d="M199.392 63.7139C198.951 66.3308 198.848 68.3777 198.096 73.4042C197.345 78.4307 197.707 80.5035 197.371 83.6645C197.034 86.8255 196.412 91.5152 196.412 91.5152L201.827 92.3184C201.827 92.3184 202.009 83.2499 202.294 76.8761C202.579 70.5023 203.641 64.828 203.641 64.828L204.367 60.9415C204.367 60.9415 202.371 63.0661 200.299 62.8589C198.2 62.5998 199.392 63.7139 199.392 63.7139Z" fill="#2C5CFF"/>
<path d="M215.586 67.4709C215.379 69.4142 216.286 71.8238 215.871 74.5443C215.586 76.358 215.224 78.5604 214.835 80.7627C214.291 83.8978 214.602 91.8262 214.602 91.8262C214.602 91.8262 202.242 91.3857 200.143 91.9817C198.071 92.5517 199.366 81.0477 199.237 76.2544C199.107 71.4611 201.05 62.8072 201.05 62.8072C201.05 62.8072 202.657 62.8072 205.118 60.8898C206.647 59.7239 206.906 58.1693 206.906 58.1693C207.191 59.2834 215.612 61.8226 216.286 62.7035C216.39 62.8331 216.467 63.0922 216.519 63.429C216.597 64.284 215.768 65.6573 215.586 67.4709Z" fill="#6D9BFF"/>
<path d="M201.024 62.8071C201.775 62.5998 204.289 61.2007 205.221 59.957C206.154 58.7133 206.413 57.3142 206.413 57.3142C206.413 57.3142 207.294 58.7393 207.398 59.6461C207.502 60.5529 205.377 64.9576 204.988 66.1754C204.988 66.1754 204.315 66.0458 203.071 64.9835C201.827 63.9212 201.024 62.8071 201.024 62.8071Z" fill="#2C5CFF"/>
<path d="M197.5 57.6769C197.5 57.6769 197.086 58.2987 198.019 59.8274C198.951 61.3561 200.998 62.8329 200.998 62.8329L197.682 66.0458C197.682 66.0458 196.904 64.1284 196.438 62.4702C195.972 60.812 196.049 59.0501 196.283 58.5319C196.542 58.0396 197.5 57.6769 197.5 57.6769Z" fill="#2C5CFF"/>
<path d="M202.008 69.9324C201.983 70.4248 201.568 70.7616 201.076 70.7357C200.583 70.7098 200.247 70.2952 200.272 69.8029C200.298 69.3105 200.713 68.9737 201.205 68.9996C201.698 69.0255 202.06 69.4401 202.008 69.9324Z" fill="#2C5CFF"/>
<path d="M201.335 79.2602C201.309 79.7525 200.895 80.0894 200.402 80.0635C199.91 80.0376 199.573 79.623 199.599 79.1306C199.625 78.6383 200.04 78.3014 200.532 78.3273C201.024 78.3532 201.387 78.7678 201.335 79.2602Z" fill="#2C5CFF"/>
<path d="M200.661 88.5617C200.635 89.0541 200.221 89.3909 199.728 89.365C199.236 89.3391 198.899 88.9245 198.925 88.4321C198.951 87.9398 199.366 87.6029 199.858 87.6288C200.35 87.6807 200.713 88.0953 200.661 88.5617Z" fill="#2C5CFF"/>
<path d="M205.688 73.3782C207.838 73.5596 210.196 73.8187 211.103 73.715V75.0884C211.103 75.0884 208.953 74.8552 207.061 74.8552C204.366 74.8552 204.366 74.8552 204.366 74.8552L204.6 73.3782C204.6 73.3782 204.574 73.3004 205.688 73.3782Z" fill="#2C5CFF"/>
<path d="M188.794 90.4789H176.927V91.8523H188.794V90.4789Z" fill="#E9EBEE"/>
<path d="M204.056 90.4789H188.768V91.8523H204.056V90.4789Z" fill="#E9EBEE"/>
<path d="M189.598 89.8826V90.4786H190.323H191.722V89.8826H190.323H189.598Z" fill="#D5D5D7"/>
<path d="M186.928 89.8826V90.4786H187.654H189.053V89.8826H187.654H186.928Z" fill="#D5D5D7"/>
<path d="M184.26 89.8826V90.4786H184.985H186.384V89.8826H184.985H184.26Z" fill="#D5D5D7"/>
<path d="M181.591 89.8826V90.4786H182.316H183.715V89.8826H182.316H181.591Z" fill="#D5D5D7"/>
<path d="M201.18 89.8826H200.428V90.4786H201.18H202.553V89.8826H201.18Z" fill="#D5D5D7"/>
<path d="M197.759 89.8826V90.4786H198.511H199.884V89.8826H198.511H197.759Z" fill="#D5D5D7"/>
<path d="M195.09 89.8826V90.4786H195.842H197.215V89.8826H195.842H195.09Z" fill="#D5D5D7"/>
<path d="M192.422 89.8826V90.4786H193.173H194.546V89.8826H193.173H192.422Z" fill="#D5D5D7"/>
<path d="M178.922 89.8829V90.4789H179.647H181.047V89.8829H179.647H178.922Z" fill="#D5D5D7"/>
<path d="M180.762 53.0132H138.865C138.191 53.0132 137.673 53.5573 137.751 54.2569L140.678 82.6281C140.756 83.3018 141.352 83.8718 142.052 83.8718H183.949C184.623 83.8718 185.141 83.3277 185.064 82.6281L182.136 54.2569C182.058 53.5573 181.436 53.0132 180.762 53.0132Z" fill="#FAFCFF"/>
<path d="M180.762 53.0132H138.865C138.191 53.0132 137.673 53.5573 137.751 54.2569L140.678 82.6281C140.756 83.3018 141.352 83.8718 142.052 83.8718H183.949C184.623 83.8718 185.141 83.3277 185.064 82.6281L182.136 54.2569C182.058 53.5573 181.436 53.0132 180.762 53.0132Z" fill="#6B6B6B"/>
<path d="M179.985 53.0134H138.087C137.413 53.0134 136.895 53.5575 136.947 54.2571L139.46 82.6284C139.512 83.302 140.134 83.8721 140.808 83.8721H182.705C183.379 83.8721 183.897 83.328 183.846 82.6284L181.332 54.2571C181.28 53.5575 180.659 53.0134 179.985 53.0134Z" fill="#D5D5D7"/>
<path d="M172.937 81.5666C172.678 81.5666 172.419 81.3593 172.393 81.0743L172.186 78.7421C172.16 78.483 172.367 78.2498 172.626 78.2498C172.885 78.2498 173.144 78.4571 173.17 78.7421L173.378 81.0743C173.404 81.3593 173.222 81.5666 172.937 81.5666Z" fill="#E9EBEE"/>
<path d="M174.491 81.566C174.232 81.566 173.973 81.3587 173.947 81.0737L173.74 78.7415C173.714 78.4824 173.921 78.2491 174.181 78.2491C174.44 78.2491 174.699 78.4565 174.725 78.7415L174.932 81.0737C174.958 81.3587 174.776 81.566 174.491 81.566Z" fill="#E9EBEE"/>
<path d="M176.046 81.566C175.787 81.566 175.528 81.3587 175.502 81.0737L175.295 78.7415C175.269 78.4824 175.476 78.2491 175.735 78.2491C175.994 78.2491 176.254 78.4565 176.279 78.7415L176.487 81.0737C176.513 81.3587 176.305 81.566 176.046 81.566Z" fill="#E9EBEE"/>
<path d="M177.601 81.566C177.342 81.566 177.083 81.3587 177.057 81.0737L176.85 78.7415C176.824 78.4824 177.031 78.2491 177.29 78.2491C177.549 78.2491 177.808 78.4565 177.834 78.7415L178.042 81.0737C178.067 81.3587 177.86 81.566 177.601 81.566Z" fill="#E9EBEE"/>
<path d="M179.155 81.566C178.896 81.566 178.637 81.3587 178.611 81.0737L178.404 78.7415C178.378 78.4824 178.585 78.2491 178.845 78.2491C179.104 78.2491 179.363 78.4565 179.389 78.7415L179.596 81.0737C179.622 81.3587 179.415 81.566 179.155 81.566Z" fill="#E9EBEE"/>
<path d="M170.164 90.8674H164.334V91.9558L170.164 92.1372V90.8674Z" fill="#6B6B6B"/>
<path d="M162.159 85.9445L163.636 68.4553H157.236L154.463 85.7631C154.075 87.7582 154.697 89.8828 155.94 90.8414L157.365 91.9556H165.268L165.139 90.8673C162.833 89.9864 161.9 87.8618 162.159 85.9445Z" fill="#6B6B6B"/>
<path d="M161.225 85.945L162.702 68.4558H156.302L153.53 85.7636C153.141 87.7587 153.763 89.8833 155.006 90.8419L156.432 91.9561H164.334L162.754 90.7383C161.588 89.8314 160.966 87.8623 161.225 85.945Z" fill="#A5A5A5"/>
<path d="M161.355 88.4059H153.556C153.789 89.4165 154.307 90.3234 154.981 90.8417L156.406 91.956H164.309L162.728 90.7381C162.106 90.2198 161.614 89.3906 161.355 88.4059Z" fill="#6B6B6B"/>
<path d="M226.443 88.0436C226.443 88.0436 224.033 86.7221 222.09 85.8412C220.147 84.9603 217.322 86.5408 217.322 86.5408C217.322 86.5408 216.985 85.6339 216.493 84.4939C216.001 83.302 215.379 81.8511 214.809 80.7888C214.498 80.167 214.213 79.7006 213.98 79.4674C212.995 78.431 213.099 77.2132 212.814 76.6173C212.814 76.5914 212.788 76.5655 212.788 76.5396C212.581 75.7623 213.125 72.6013 213.721 69.7253C214.342 66.7457 215.172 62.1078 215.172 62.1078C215.457 62.3669 216.441 62.6001 216.959 63.2219C216.959 63.2219 220.483 68.5593 221.96 72.2385C224.655 78.9233 225.095 80.2965 225.536 82.7579C226.028 85.1935 226.443 88.0436 226.443 88.0436Z" fill="#6D9BFF"/>
<path d="M196.257 89.4177C198.33 89.0031 199.858 90.0137 201.154 90.0914C202.45 90.1691 207.088 89.6768 207.088 89.6768L206.051 87.2928C206.051 87.2928 200.765 87.1891 198.977 87.7851C197.19 88.3811 196.257 89.4177 196.257 89.4177Z" fill="#FDD2BB"/>
<path d="M207.114 86.9568C207.114 86.9568 204.367 86.4645 203.046 86.4386C200.817 86.3868 198.304 86.3867 197.786 86.8014C197.268 87.216 194.599 90.2478 194.236 90.7402C193.873 91.2325 194.055 91.8026 195.169 91.4139C196.283 91.0252 198.123 88.9003 199.237 88.408C200.351 87.9156 202.424 88.3302 202.424 88.3302L206.544 87.9415L207.114 86.9568Z" fill="#FDD2BB"/>
<path opacity="0.28" d="M203.875 86.4904C200.584 87.2937 197.371 88.382 194.599 90.2737C194.417 90.481 194.288 90.6624 194.21 90.7401C193.847 91.2324 194.029 91.8025 195.143 91.4138C196.257 91.0251 198.097 88.9003 199.211 88.4079C200.325 87.9156 202.398 88.3302 202.398 88.3302L206.518 87.9415L207.088 86.9568C207.114 86.9568 205.274 86.6458 203.875 86.4904Z" fill="#EB9271"/>
<path d="M204.367 87.0597C204.367 87.0597 200.532 86.8005 199.548 86.6969C198.537 86.5932 197.76 87.4225 197.216 88.4072C196.646 89.3918 195.506 91.1021 195.765 91.5945C195.998 92.1127 196.646 92.0609 197.164 91.4908C197.708 90.9207 198.408 89.4955 199.159 89.2105C199.91 88.9254 202.45 88.3294 202.45 88.3294L204.367 87.0597Z" fill="#FDD2BB"/>
<path opacity="0.28" d="M199.6 87.6816C198.019 88.3553 196.62 92.035 197.164 91.4908C197.708 90.9207 198.408 89.4955 199.159 89.2105C199.911 88.9254 202.45 88.3294 202.45 88.3294L204.393 87.0338C204.393 87.0338 203.435 86.956 202.346 86.8783C201.388 87.0597 200.481 87.3188 199.6 87.6816Z" fill="#EB9271"/>
<path d="M211.104 90.4802C211.104 90.4802 209.135 90.3506 208.435 91.0243C207.735 91.6981 207.036 92.009 206.388 91.9313C205.714 91.8535 204.522 91.2575 203.978 90.9207C203.434 90.5838 201.672 91.724 201.128 91.9831C200.558 92.2681 200.066 91.7758 200.325 91.1798C200.61 90.5838 201.18 90.0137 201.646 89.7805C202.113 89.5473 204.108 89.0549 204.108 89.0549H204.082H204.056C203.823 89.029 202.916 88.9254 202.32 88.9513C201.646 89.0031 200.947 89.4177 200.299 90.2469C199.677 91.0761 199.003 92.009 198.641 92.1645C198.537 92.2163 198.408 92.1904 198.304 92.0608C198.071 91.8276 197.967 91.3094 198.278 90.6356C198.744 89.6509 199.936 88.0962 200.558 87.3188C201.18 86.5414 202.113 86.4636 203.02 86.4377C203.901 86.4118 205.973 86.4118 205.973 86.4118C205.973 86.4118 208.254 86.36 209.523 86.36C210.301 86.3859 211.104 90.4802 211.104 90.4802Z" fill="#FDD2BB"/>
<path opacity="0.28" d="M209.549 86.386C209.264 86.386 208.953 86.386 208.616 86.386C208.642 87.9926 208.539 89.5992 208.28 91.1799C208.331 91.1281 208.383 91.0762 208.461 91.0244C209.161 90.3507 211.13 90.4802 211.13 90.4802C211.13 90.4802 210.301 86.386 209.549 86.386Z" fill="#EB9271"/>
<path opacity="0.28" d="M204.108 89.0289H204.082H204.056C203.823 89.003 202.916 88.8993 202.32 88.9252C201.647 88.9771 200.947 89.3917 200.299 90.2209C199.677 91.0501 199.004 91.983 198.641 92.1384C198.537 92.1903 198.408 92.1644 198.304 92.0348C198.978 91.2056 199.677 89.9358 200.014 89.3657C200.532 88.4847 202.035 88.3292 202.424 88.3292C202.787 88.3292 204.108 89.0289 204.108 89.0289Z" fill="#EB9271"/>
<path d="M218.955 82.8615C218.955 82.8615 217.011 84.3643 214.317 85.1934C211.363 86.1002 209.549 86.3852 209.549 86.3852C209.549 86.3852 209.756 88.8208 209.834 91.3599C209.834 91.3599 216.312 92.3704 220.535 91.5672C224.759 90.7381 225.821 90.8936 226.521 89.054C227.22 87.2144 226.054 83.6129 225.51 82.0324C224.966 80.426 221.572 81.6696 218.955 82.8615Z" fill="#6D9BFF"/>
<path d="M208.772 86.3601C209.471 87.2929 209.446 88.6922 209.627 90.6357C209.756 91.9832 209.29 91.9573 209.29 91.9573L212.84 91.8536C212.84 91.8536 213.229 89.8065 212.684 87.9148C212.114 86.0232 212.114 86.0232 212.114 86.0232L208.772 86.3601Z" fill="#2C5CFF"/>
<path d="M230.2 84.1051C230.278 83.5869 230.692 83.1205 231.21 82.965C231.599 82.8614 232.04 82.8873 232.325 82.6023C232.636 82.2914 232.506 81.7732 232.506 81.3327C232.506 80.4518 233.076 79.6227 233.905 79.3117C234.268 79.1822 234.682 79.1563 234.967 78.8972C235.252 78.6381 235.356 78.2235 235.46 77.8349C235.745 76.8762 236.341 76.0471 237.118 75.4253C237.455 75.1662 237.869 74.9589 238.258 75.0625C238.569 75.1662 238.802 75.4512 238.88 75.7621C238.958 76.073 238.906 76.4098 238.802 76.7208C238.388 77.8867 237.196 78.7158 236.937 79.9336C236.807 80.5295 236.937 81.1773 236.807 81.7732C236.652 82.4728 236.159 83.0687 235.512 83.3537C235.201 83.4832 234.812 83.561 234.605 83.846C234.372 84.1569 234.449 84.6233 234.397 85.0119C234.294 85.8669 233.465 86.5147 232.61 86.5665C231.755 86.6183 230.925 86.1001 230.459 85.4006C230.407 85.4265 230.122 84.6492 230.2 84.1051Z" fill="#4BBD6D"/>
<path d="M234.164 83.2756C234.475 82.887 234.527 82.3429 234.319 81.9024C234.164 81.5915 233.853 81.2806 233.879 80.9437C233.905 80.5551 234.319 80.3219 234.63 80.0369C235.226 79.5187 235.434 78.5859 235.123 77.8605C234.475 76.3059 235.874 74.9586 235.744 73.3003C235.719 72.9376 235.615 72.523 235.278 72.3157C235.019 72.1603 234.682 72.1862 234.423 72.3417C234.164 72.4712 233.983 72.7303 233.827 72.9894C233.387 73.8185 233.387 74.6995 233.102 75.5545C232.817 76.3577 232.143 76.7722 231.676 77.4459C231.314 77.9641 231.21 78.6896 231.417 79.2855C231.521 79.5964 231.702 79.8814 231.625 80.1923C231.547 80.5551 231.21 80.7624 230.977 81.0474C230.485 81.6433 230.536 82.602 231.029 83.1979C231.521 83.7938 232.376 84.0529 233.127 83.9234C233.153 83.9234 233.853 83.6384 234.164 83.2756Z" fill="#44AB63"/>
<path d="M233.749 84.235C233.698 83.7945 233.361 83.38 232.92 83.2504C232.609 83.1468 232.221 83.1727 231.988 82.9136C231.754 82.6286 231.858 82.214 231.884 81.8513C231.91 81.1258 231.443 80.4003 230.744 80.1412C230.433 80.0376 230.096 79.9858 229.863 79.7785C229.63 79.5453 229.552 79.2085 229.474 78.8976C229.241 78.0944 228.775 77.3689 228.127 76.8507C227.868 76.6434 227.505 76.4361 227.168 76.5398C226.909 76.6175 226.702 76.8507 226.65 77.1098C226.572 77.3689 226.624 77.6539 226.702 77.913C227.039 78.8976 228.023 79.623 228.205 80.6335C228.308 81.1517 228.179 81.6699 228.282 82.1881C228.386 82.7581 228.8 83.2763 229.345 83.5354C229.604 83.665 229.915 83.7427 230.096 83.9759C230.277 84.2609 230.2 84.6236 230.251 84.9605C230.329 85.66 231.003 86.2301 231.702 86.2819C232.428 86.3337 233.128 85.945 233.542 85.3491C233.516 85.3232 233.801 84.6755 233.749 84.235Z" fill="#44AB63"/>
<path d="M229.293 81.9543C229.189 81.5916 228.904 81.3066 228.775 80.9697C228.515 80.3738 228.671 79.6742 228.93 79.0524C229.137 78.6119 229.396 78.1455 229.37 77.6792C229.345 77.3683 229.215 77.0832 229.111 76.7982C228.904 76.0987 228.93 75.3473 228.982 74.6218C229.008 74.1813 229.034 73.715 229.215 73.3263C229.396 72.9118 229.733 72.549 230.174 72.4713C230.77 72.3677 231.366 72.834 231.573 73.404C231.806 73.9741 231.754 74.5959 231.677 75.1918C231.599 75.7878 231.521 76.4096 231.702 77.0055C231.884 77.6792 232.376 78.1974 232.661 78.8451C232.998 79.6224 232.92 80.5811 232.506 81.3066C232.298 81.6693 231.987 82.0061 231.858 82.4207C231.599 83.2757 232.143 84.1825 232.247 85.0635C232.324 85.6335 232.195 86.2553 231.806 86.6699C230.951 87.6545 229.526 86.9808 229.215 85.8667C229.06 85.2967 228.878 84.5712 228.956 83.9753C229.034 83.3016 229.5 82.6539 229.293 81.9543Z" fill="#4BBD6D"/>
<path d="M235.227 91.9555H229.527L227.635 82.7834H237.119L235.227 91.9555Z" fill="#D5D5D7"/>
<path d="M240.577 92.1234H130.716V95.6735H240.577V92.1234Z" stroke="#D4DBF1" stroke-width="0.163878" stroke-miterlimit="10"/>
</g>
<circle cx="101.47" cy="128.143" r="17.3949" fill="#CBE1FD"/>
<mask id="mask0" mask-type="alpha" maskUnits="userSpaceOnUse" x="88" y="116" width="37" height="37">
<path d="M124.783 134.61C124.783 138.084 123.812 141.335 122.131 144.1C121.664 144.866 121.142 145.594 120.581 146.267C120.227 146.696 119.835 147.126 119.443 147.518C118.472 148.49 117.407 149.349 116.231 150.078C113.729 151.647 110.816 152.637 107.698 152.824C107.306 152.843 106.914 152.861 106.522 152.861C102.806 152.861 99.3332 151.74 96.4577 149.835C95.5802 149.256 94.7773 148.621 94.0117 147.911C92.63 146.622 91.4537 145.108 90.5388 143.446C89.0824 140.83 88.2609 137.804 88.2609 134.591C88.2609 129.547 90.2961 124.97 93.6196 121.664C96.9245 118.357 101.48 116.321 106.54 116.321C111.582 116.321 116.156 118.357 119.461 121.664C122.747 125.007 124.783 129.566 124.783 134.61Z" fill="#DFEBFD"/>
</mask>
<g mask="url(#mask0)">
<path d="M98.3629 146.744C98.3629 146.744 97.3856 147.739 96.4083 148.856C95.9895 149.31 95.5881 149.799 95.239 150.236C94.0698 151.703 92.9703 152.122 91.6789 153.554C90.8762 154.444 89.8291 155.125 87.8745 155.439C85.9199 155.754 78.7648 156.26 78.7648 156.26C78.7648 156.26 78.5903 155.317 78.7125 155.003C78.7474 154.916 78.6601 154.741 78.538 154.496C78.2238 153.868 77.7003 152.907 78.7125 152.785C80.0912 152.628 86.81 151.004 87.1241 150.515C87.4382 150.026 89.2532 147.774 90.2305 145.731C91.2077 143.688 92.6737 141.191 94.1745 138.746C95.4834 136.598 95.8673 136.494 96.5654 135.865L97.3856 140.859L98.3629 146.744Z" fill="#6D9BFF"/>
<path d="M110.126 127.273C110.126 127.273 109.637 128.705 109.585 129.945C109.533 131.185 109.533 132.896 109.899 133.559C110.266 134.223 114.088 136.458 114.088 136.458C114.088 136.458 109.742 137.366 105.449 137.104C101.156 136.842 100.231 135.026 100.231 135.026C100.231 135.026 103.495 133.752 103.582 133.42C103.669 133.088 104.297 130.626 104.297 130.626L110.126 127.273Z" fill="#F6C1AA"/>
<path opacity="0.28" d="M109.812 133.333C109.55 132.565 109.55 131.063 109.585 129.945C109.637 128.705 110.126 127.273 110.126 127.273L104.315 130.591C104.315 130.591 103.686 133.071 103.599 133.386C103.512 133.717 100.248 134.992 100.248 134.992C100.248 134.992 100.283 135.062 100.371 135.167C103.529 134.643 106.67 133.997 109.812 133.333Z" fill="#EB9271"/>
<path d="M102.553 126.977C102.692 125.947 102.727 122.192 102.727 122.192L107.736 120.429L112.116 122.873C112.116 122.873 111.069 126.191 111.052 127.239C111.034 128.286 110.965 129.683 110.301 130.679C109.656 131.674 107.945 133.228 107.544 133.42C106.34 133.979 105.555 133.595 104.647 133.071C104.263 132.844 103.74 131.709 103.233 130.626C102.71 129.544 102.413 128.007 102.553 126.977Z" fill="#FDD2BB"/>
<path d="M110.405 124.375C110.405 124.375 110.423 125.72 110.772 126.593C110.842 126.767 110.789 127.291 110.72 127.92C110.894 127.71 111.086 127.518 111.261 127.326C111.627 126.942 111.959 126.558 112.273 126.156C112.465 125.388 112.796 124.358 112.779 123.764C112.744 121.965 112.744 120.97 109.463 119.364C108.835 119.067 107.561 118.229 106.915 118.473C105.938 118.84 105.659 119.189 104.891 119.835C104.891 119.835 103.861 119.626 102.57 121.022C101.819 121.843 102.046 123.03 102.081 123.921C102.168 125.737 102.657 125.632 102.657 125.632C102.727 124.707 103.082 124.745 103.361 123.348C103.448 122.876 103.575 122.75 104.063 122.645C104.517 122.54 104.734 121.913 106.252 123.432C107.159 124.34 107.648 124.27 110.405 124.375Z" fill="#5C3000"/>
<path d="M110.528 127.205C110.772 126.297 111.156 125.634 111.575 125.651C111.976 125.686 112.395 126.437 111.889 127.293C111.383 128.148 111.051 128.672 110.772 129.004C110.493 129.371 110.371 127.782 110.528 127.205Z" fill="#FDD2BB"/>
<path d="M110.772 127.31C110.911 126.821 111.138 126.21 111.505 126.244C111.872 126.279 111.925 126.681 111.418 127.38C110.911 128.061 110.807 128.427 110.807 128.427C110.807 128.427 110.702 127.589 110.772 127.31Z" fill="#EB9271"/>
<path d="M106.391 145.66C105.85 148.838 105.606 156.644 104.262 156.05C103.529 155.718 101.261 155.736 99.341 155.806C97.7704 155.875 96.4615 155.98 96.4615 155.98C96.4615 155.98 96.3742 152.453 96.4091 148.856C96.4266 147.127 96.4615 145.399 96.5662 144.019C96.6011 143.565 96.6186 143.129 96.636 142.71C96.7582 138.676 96.095 136.336 96.5662 135.882C97.0898 135.376 103.18 133.839 103.477 133.106L103.931 135.253C105.048 137.035 106.496 136.493 106.496 136.493C106.496 136.493 106.932 142.483 106.391 145.66Z" fill="#6D9BFF"/>
<path d="M104.96 137.087C104.663 138.851 104.594 140.23 104.088 143.618C103.582 147.005 103.826 148.402 103.599 150.532C103.372 152.663 102.953 155.823 102.953 155.823L106.601 156.364C106.601 156.364 106.723 150.253 106.915 145.957C107.107 141.662 107.822 137.838 107.822 137.838L108.311 135.219C108.311 135.219 106.967 136.65 105.571 136.511C104.157 136.336 104.96 137.087 104.96 137.087Z" fill="#2C5CFF"/>
<path d="M115.867 139.619C115.728 140.928 116.339 142.552 116.059 144.386C115.867 145.608 115.623 147.092 115.361 148.576C114.995 150.689 115.204 156.032 115.204 156.032C115.204 156.032 106.88 155.736 105.466 156.137C104.07 156.521 104.943 148.768 104.855 145.538C104.768 142.308 106.077 136.476 106.077 136.476C106.077 136.476 107.159 136.476 108.817 135.183C109.847 134.398 110.021 133.35 110.021 133.35C110.213 134.101 115.885 135.812 116.339 136.406C116.408 136.493 116.461 136.668 116.496 136.895C116.548 137.471 115.99 138.396 115.867 139.619Z" fill="#6D9BFF"/>
<path d="M106.06 136.476C106.566 136.336 108.259 135.393 108.887 134.555C109.515 133.717 109.69 132.774 109.69 132.774C109.69 132.774 110.283 133.734 110.353 134.346C110.423 134.957 108.992 137.926 108.73 138.746C108.73 138.746 108.276 138.659 107.438 137.943C106.601 137.227 106.06 136.476 106.06 136.476Z" fill="#2C5CFF"/>
<path d="M103.687 133.018C103.687 133.018 103.407 133.438 104.036 134.468C104.664 135.498 106.043 136.494 106.043 136.494L103.809 138.659C103.809 138.659 103.285 137.367 102.971 136.249C102.657 135.132 102.709 133.944 102.867 133.595C103.041 133.263 103.687 133.018 103.687 133.018Z" fill="#2C5CFF"/>
<path d="M106.723 141.278C106.705 141.61 106.426 141.837 106.094 141.819C105.763 141.802 105.536 141.522 105.553 141.191C105.571 140.859 105.85 140.632 106.182 140.649C106.513 140.667 106.757 140.946 106.723 141.278Z" fill="#2C5CFF"/>
<path d="M106.269 147.564C106.252 147.896 105.972 148.123 105.641 148.105C105.309 148.088 105.082 147.809 105.1 147.477C105.117 147.145 105.397 146.918 105.728 146.935C106.06 146.953 106.304 147.232 106.269 147.564Z" fill="#2C5CFF"/>
<path d="M109.201 143.6C110.649 143.722 112.238 143.897 112.848 143.827V144.753C112.848 144.753 111.4 144.595 110.126 144.595C108.311 144.595 108.311 144.595 108.311 144.595L108.468 143.6C108.468 143.6 108.451 143.548 109.201 143.6Z" fill="#2C5CFF"/>
<path d="M123.179 153.483C123.179 153.483 121.556 152.593 120.247 151.999C118.939 151.405 117.036 152.471 117.036 152.471C117.036 152.471 116.809 151.859 116.478 151.091C116.146 150.288 115.728 149.31 115.344 148.594C115.134 148.175 114.942 147.861 114.785 147.704C114.122 147.005 114.192 146.185 114 145.783C114 145.765 113.982 145.748 113.982 145.731C113.843 145.207 114.209 143.076 114.611 141.138C115.029 139.13 115.588 136.005 115.588 136.005C115.78 136.179 116.443 136.336 116.792 136.755C116.792 136.755 119.165 140.352 120.16 142.832C121.975 147.337 122.272 148.262 122.568 149.921C122.9 151.563 123.179 153.483 123.179 153.483Z" fill="#6D9BFF"/>
<path d="M118.137 149.991C118.137 149.991 116.828 151.004 115.013 151.563C113.023 152.174 111.802 152.366 111.802 152.366C111.802 152.366 111.941 154.008 111.994 155.719C111.994 155.719 116.357 156.4 119.201 155.859C122.046 155.3 122.761 155.405 123.233 154.165C123.704 152.925 122.918 150.498 122.552 149.432C122.185 148.35 119.899 149.188 118.137 149.991Z" fill="#6D9BFF"/>
<path d="M111.277 152.349C111.749 152.978 111.731 153.921 111.853 155.231C111.941 156.139 111.626 156.121 111.626 156.121L114.017 156.051C114.017 156.051 114.279 154.672 113.913 153.397C113.529 152.122 113.529 152.122 113.529 152.122L111.277 152.349Z" fill="#2C5CFF"/>
</g>
<circle cx="135.101" cy="205.26" r="13.9159" fill="white"/>
<mask id="mask1" mask-type="alpha" maskUnits="userSpaceOnUse" x="127" y="200" width="30" height="31">
<path d="M156.435 215.604C156.435 218.384 155.658 220.984 154.314 223.196C153.94 223.809 153.522 224.392 153.074 224.93C152.79 225.274 152.476 225.617 152.163 225.931C151.386 226.708 150.535 227.396 149.593 227.979C147.592 229.234 145.262 230.026 142.767 230.176C142.453 230.191 142.14 230.205 141.826 230.205C138.854 230.205 136.075 229.309 133.775 227.784C133.073 227.321 132.431 226.813 131.818 226.245C130.713 225.214 129.772 224.003 129.04 222.673C127.875 220.581 127.217 218.16 127.217 215.589C127.217 211.554 128.846 207.893 131.504 205.247C134.148 202.602 137.793 200.973 141.841 200.973C145.874 200.973 149.534 202.602 152.178 205.247C154.807 207.922 156.435 211.569 156.435 215.604Z" fill="#DFEBFD"/>
</mask>
<g mask="url(#mask1)">
<path d="M135.349 225.264C135.349 225.264 134.567 226.06 133.785 226.954C133.45 227.317 133.129 227.708 132.85 228.057C131.914 229.231 131.035 229.566 130.002 230.712C129.359 231.424 128.522 231.969 126.958 232.22C125.394 232.472 119.67 232.877 119.67 232.877C119.67 232.877 119.531 232.122 119.629 231.871C119.656 231.801 119.587 231.661 119.489 231.466C119.238 230.963 118.819 230.195 119.629 230.097C120.731 229.971 126.106 228.672 126.358 228.281C126.609 227.89 128.061 226.088 128.843 224.453C129.625 222.819 130.797 220.821 131.998 218.866C133.045 217.147 133.352 217.064 133.911 216.561L134.567 220.556L135.349 225.264Z" fill="#6D9BFF"/>
<path d="M144.76 209.688C144.76 209.688 144.369 210.834 144.327 211.826C144.285 212.818 144.285 214.187 144.578 214.718C144.871 215.249 147.929 217.037 147.929 217.037C147.929 217.037 144.452 217.764 141.018 217.554C137.584 217.345 136.844 215.892 136.844 215.892C136.844 215.892 139.454 214.872 139.524 214.606C139.594 214.341 140.097 212.371 140.097 212.371L144.76 209.688Z" fill="#F6C1AA"/>
<path opacity="0.28" d="M144.508 214.536C144.299 213.922 144.299 212.72 144.327 211.826C144.369 210.834 144.76 209.688 144.76 209.688L140.11 212.343C140.11 212.343 139.608 214.327 139.538 214.578C139.468 214.844 136.858 215.864 136.858 215.864C136.858 215.864 136.885 215.919 136.955 216.003C139.482 215.584 141.995 215.067 144.508 214.536Z" fill="#EB9271"/>
<path d="M138.701 209.451C138.812 208.627 138.84 205.623 138.84 205.623L142.847 204.212L146.352 206.168C146.352 206.168 145.514 208.822 145.5 209.66C145.486 210.498 145.43 211.616 144.9 212.412C144.383 213.208 143.015 214.452 142.694 214.605C141.73 215.052 141.102 214.745 140.376 214.326C140.069 214.144 139.65 213.236 139.245 212.37C138.826 211.504 138.589 210.275 138.701 209.451Z" fill="#FDD2BB"/>
<path d="M144.983 207.37C144.983 207.37 144.997 208.445 145.276 209.144C145.332 209.284 145.29 209.703 145.234 210.206C145.374 210.038 145.528 209.884 145.667 209.731C145.96 209.423 146.226 209.116 146.477 208.795C146.631 208.18 146.896 207.356 146.882 206.881C146.854 205.442 146.854 204.645 144.229 203.36C143.727 203.122 142.707 202.452 142.191 202.647C141.409 202.941 141.186 203.22 140.571 203.737C140.571 203.737 139.748 203.57 138.715 204.687C138.114 205.344 138.296 206.294 138.324 207.006C138.393 208.459 138.784 208.376 138.784 208.376C138.84 207.635 139.124 207.665 139.348 206.548C139.417 206.171 139.519 206.069 139.909 205.986C140.272 205.902 140.446 205.4 141.66 206.615C142.386 207.342 142.777 207.286 144.983 207.37Z" fill="#5C3000"/>
<path d="M145.081 209.633C145.276 208.907 145.584 208.376 145.919 208.39C146.24 208.418 146.575 209.018 146.17 209.703C145.765 210.387 145.5 210.807 145.276 211.072C145.053 211.365 144.955 210.094 145.081 209.633Z" fill="#FDD2BB"/>
<path d="M145.276 209.717C145.388 209.326 145.57 208.837 145.863 208.865C146.157 208.893 146.199 209.214 145.793 209.773C145.388 210.318 145.304 210.611 145.304 210.611C145.304 210.611 145.22 209.94 145.276 209.717Z" fill="#EB9271"/>
<path d="M141.772 224.397C141.339 226.94 141.143 233.184 140.068 232.709C139.482 232.444 137.667 232.458 136.131 232.513C134.875 232.569 133.828 232.653 133.828 232.653C133.828 232.653 133.758 229.831 133.786 226.954C133.8 225.571 133.828 224.188 133.911 223.084C133.939 222.721 133.953 222.372 133.967 222.037C134.065 218.81 133.534 216.938 133.911 216.575C134.33 216.17 139.203 214.94 139.44 214.354L139.803 216.072C140.697 217.497 141.855 217.064 141.855 217.064C141.855 217.064 142.204 221.855 141.772 224.397Z" fill="#6D9BFF"/>
<path d="M140.627 217.539C140.389 218.95 140.333 220.053 139.928 222.763C139.524 225.473 139.719 226.591 139.538 228.295C139.356 229.999 139.021 232.528 139.021 232.528L141.939 232.961C141.939 232.961 142.037 228.071 142.19 224.635C142.344 221.199 142.916 218.139 142.916 218.139L143.307 216.044C143.307 216.044 142.232 217.189 141.115 217.078C139.984 216.938 140.627 217.539 140.627 217.539Z" fill="#2C5CFF"/>
<path d="M149.352 219.564C149.241 220.612 149.729 221.911 149.506 223.378C149.352 224.355 149.157 225.543 148.947 226.73C148.654 228.42 148.822 232.695 148.822 232.695C148.822 232.695 142.162 232.458 141.031 232.779C139.915 233.086 140.613 226.884 140.543 224.3C140.473 221.715 141.52 217.05 141.52 217.05C141.52 217.05 142.386 217.05 143.712 216.016C144.536 215.387 144.675 214.549 144.675 214.549C144.829 215.15 149.366 216.519 149.729 216.994C149.785 217.064 149.827 217.203 149.855 217.385C149.897 217.846 149.45 218.586 149.352 219.564Z" fill="#6D9BFF"/>
<path d="M141.506 217.05C141.911 216.938 143.265 216.184 143.768 215.513C144.271 214.842 144.41 214.088 144.41 214.088C144.41 214.088 144.885 214.856 144.941 215.345C144.997 215.834 143.852 218.209 143.642 218.866C143.642 218.866 143.279 218.796 142.609 218.223C141.939 217.651 141.506 217.05 141.506 217.05Z" fill="#2C5CFF"/>
<path d="M139.608 214.284C139.608 214.284 139.384 214.619 139.887 215.443C140.39 216.268 141.493 217.064 141.493 217.064L139.706 218.796C139.706 218.796 139.287 217.762 139.035 216.868C138.784 215.974 138.826 215.024 138.952 214.745C139.091 214.479 139.608 214.284 139.608 214.284Z" fill="#2C5CFF"/>
<path d="M142.037 220.891C142.024 221.157 141.8 221.338 141.534 221.324C141.269 221.31 141.087 221.087 141.101 220.821C141.115 220.556 141.339 220.374 141.604 220.388C141.87 220.402 142.065 220.626 142.037 220.891Z" fill="#2C5CFF"/>
<path d="M141.674 225.92C141.66 226.186 141.437 226.367 141.171 226.353C140.906 226.339 140.724 226.116 140.738 225.85C140.752 225.585 140.976 225.403 141.241 225.417C141.507 225.431 141.702 225.655 141.674 225.92Z" fill="#2C5CFF"/>
<path d="M144.019 222.749C145.178 222.847 146.448 222.986 146.937 222.931V223.671C146.937 223.671 145.778 223.545 144.759 223.545C143.307 223.545 143.307 223.545 143.307 223.545L143.433 222.749C143.433 222.749 143.419 222.707 144.019 222.749Z" fill="#2C5CFF"/>
<path d="M155.202 230.656C155.202 230.656 153.904 229.943 152.857 229.468C151.81 228.993 150.288 229.845 150.288 229.845C150.288 229.845 150.107 229.356 149.841 228.742C149.576 228.099 149.241 227.317 148.934 226.744C148.766 226.409 148.613 226.158 148.487 226.032C147.957 225.473 148.012 224.816 147.859 224.495C147.859 224.481 147.845 224.467 147.845 224.453C147.733 224.034 148.026 222.33 148.347 220.779C148.683 219.173 149.129 216.672 149.129 216.672C149.283 216.812 149.813 216.938 150.093 217.273C150.093 217.273 151.991 220.151 152.787 222.134C154.239 225.738 154.476 226.479 154.714 227.806C154.979 229.119 155.202 230.656 155.202 230.656Z" fill="#6D9BFF"/>
<path d="M151.168 227.862C151.168 227.862 150.121 228.672 148.669 229.119C147.078 229.608 146.1 229.762 146.1 229.762C146.1 229.762 146.212 231.075 146.254 232.444C146.254 232.444 149.744 232.989 152.02 232.556C154.295 232.109 154.868 232.193 155.245 231.201C155.622 230.209 154.994 228.267 154.7 227.415C154.407 226.549 152.578 227.219 151.168 227.862Z" fill="#6D9BFF"/>
<path d="M145.681 229.748C146.058 230.251 146.044 231.005 146.142 232.053C146.211 232.78 145.96 232.766 145.96 232.766L147.873 232.71C147.873 232.71 148.082 231.606 147.789 230.586C147.482 229.566 147.482 229.566 147.482 229.566L145.681 229.748Z" fill="#2C5CFF"/>
</g>
<line x1="356.788" y1="260.937" x2="98.8495" y2="260.938" stroke="black" stroke-width="0.646462"/>
<path d="M311.949 98.5713C336.882 116.256 308.47 153.945 293.974 155.395" stroke="#685ED6" stroke-width="0.579831" stroke-linecap="round" stroke-linejoin="round" stroke-dasharray="2.9 4.06"/>
<path d="M74.2183 83.2058C39.7184 122.248 20.0623 191.228 43.4874 234.832C72.7689 289.336 129.302 293.974 223.815 301.222" stroke="#18E1F7" stroke-width="0.579831" stroke-linecap="round" stroke-linejoin="round" stroke-dasharray="2.9 4.06"/>
<path d="M287.886 82.6259C279.962 79.0503 269.447 73.8705 267.592 63.2016C265.736 52.5327 285.857 33.9201 271.361 26.6722" stroke="#685ED6" stroke-width="0.579831" stroke-linecap="round" stroke-linejoin="round" stroke-dasharray="2.9 4.06"/>
<path d="M21.0522 39.6774L53.3178 45.0417L32.1524 29.7293L30.9612 34.4833L23.0674 35.7488L21.0522 39.6774Z" fill="#685ED6"/>
<path d="M53.3182 45.0411L26.6817 30.399L0.323711 28.4833L53.3182 45.0411Z" fill="#18E1F7"/>
<path d="M32.151 29.7292L53.3166 45.0419L37.1673 21.4771L32.151 29.7292Z" fill="#18E1F7"/>
<path d="M379.027 24.5813L361.338 32.0233L371.344 20.4109L372.668 22.9623L377.345 22.6128L379.027 24.5813Z" fill="#685ED6"/>
<path d="M361.338 32.0231L374.556 20.051L389.341 15.3795L361.338 32.0231Z" fill="#18E1F7"/>
<path d="M371.344 20.409L361.338 32.0216L367.363 16.3806L371.344 20.409Z" fill="#18E1F7"/>
<path d="M203.304 54.4479C203.304 54.4479 201.174 54.8109 199.043 54.2018C199.043 54.2018 199.348 55.4199 201.478 55.6232C203 55.4199 203.304 54.4479 203.304 54.4479Z" fill="white"/>
<path d="M259.425 326.226L283.839 316.046L263.377 315.418L264.343 318.861L259.342 322.949L259.425 326.226Z" fill="#685ED6"/>
<path d="M283.839 316.046L259.833 318.122L240.82 327.965L283.839 316.046Z" fill="#18E1F7"/>
<path d="M263.376 315.417L283.839 316.046L263.745 308.206L263.376 315.417Z" fill="#18E1F7"/>
<path d="M284.987 301.802C324.125 311.369 390.516 318.617 390.516 271.071C390.516 220.585 370.512 222.075 357.756 146.697" stroke="#18E1F7" stroke-width="0.579831" stroke-linecap="round" stroke-linejoin="round" stroke-dasharray="2.9 4.06"/>
<defs>
<clipPath id="clip0">
<rect width="110.121" height="65.9924" fill="white" transform="translate(133.552 36.0286)"/>
</clipPath>
</defs>
</svg>
