<svg width="42" height="42" viewBox="0 0 42 42" fill="none" xmlns="http://www.w3.org/2000/svg">
<path d="M17.0625 9.40014H12.9826L21 0.320923L29.0174 9.39949H24.9375V24.2813H23.625V8.08764H26.1076L21 2.30411L15.8924 8.08764H18.375V24.2813H17.0625V9.40014ZM9.84379 25.5938H32.1563V41.3438H9.84379V25.5938ZM30.8438 26.9063H23.625V40.0313H30.8438V26.9063ZM15.0938 27.8959C15.0938 28.0737 15.2388 28.2188 15.4167 28.2188H18.0522C18.23 28.2188 18.375 28.0737 18.375 27.8959V26.9063H15.0938V27.8959ZM11.1563 40.0313H22.3125V26.9063H19.6875V27.8959C19.6875 28.7976 18.9539 29.5313 18.0522 29.5313H15.4167C14.515 29.5313 13.7813 28.7976 13.7813 27.8959V26.9063H11.1563V40.0313ZM5.90629 41.3438H7.21879V19.6875H5.93582L9.18754 15.5065L12.4393 19.6875H11.1563V24.2813H12.4688V21H15.1233L9.18754 13.3685L3.25176 21H5.90629V41.3438ZM29.5313 17.7188V24.2813H30.8438V16.4063H29.5608L32.8125 12.2253L36.0643 16.4063H34.7813V41.3438H36.0938V17.7188H38.7483L32.8125 10.0872L26.8768 17.7188H29.5313Z" fill="#685ED6"/>
</svg>
