<svg width="42" height="42" viewBox="0 0 42 42" fill="none" xmlns="http://www.w3.org/2000/svg">
<path d="M40.3721 1.58795C39.986 1.20193 39.4242 1.06871 38.906 1.24023L11.1899 10.4139C10.4347 10.6638 10.8212 11.8319 11.5765 11.5819L39.2926 2.40831C39.4855 2.38814 39.5719 2.47451 39.5517 2.66744L27.7943 38.19C27.7027 38.4666 27.3171 38.4897 27.1931 38.226L22.4454 28.1254L24.6977 24.4898C25.1167 23.8137 24.0707 23.1657 23.6518 23.8419L21.4225 27.4403L15.8609 26.9693L31.2455 11.5846L25.3584 21.0873C24.9394 21.7634 25.9854 22.4115 26.4043 21.7352L35.0873 7.71964C35.4221 7.18031 34.7781 6.53811 34.2394 6.87327L13.8667 19.5466L3.72998 14.768C3.46659 14.6438 3.48988 14.2585 3.76632 14.167L8.49606 12.6016C9.25121 12.3516 8.86462 11.1835 8.10946 11.4335L3.37972 12.9989C2.07408 13.431 1.96129 15.2945 3.20533 15.881L13.3226 20.6503L13.8762 27.5199C13.9002 27.8174 14.1417 28.0567 14.4375 28.0836L21.3409 28.6682L26.0795 38.7494C26.6618 39.9881 28.5305 39.8814 28.9623 38.5766L40.7198 3.05412C40.8914 2.53579 40.7581 1.97406 40.3721 1.58795ZM14.9958 26.0942L14.603 21.2197L14.5506 20.5702L30.3452 10.7449L14.9958 26.0942Z" fill="#685ED6"/>
<path d="M12.0481 29.5781C11.8039 29.3417 11.4145 29.348 11.1782 29.592L0.175213 40.9548C-0.376918 41.5249 0.503818 42.3842 1.05907 41.8107L12.062 30.448C12.2984 30.2039 12.2922 29.8145 12.0481 29.5781Z" fill="#685ED6"/>
<path d="M15.9985 29.5946L7.30207 38.6508C6.75273 39.2229 7.63609 40.0793 8.18953 39.5031L16.8859 30.4469C17.4369 29.8731 16.5495 29.0209 15.9985 29.5946Z" fill="#685ED6"/>
<path d="M2.66782 34.8246C2.82942 34.8246 2.99085 34.7613 3.11168 34.6355L11.808 25.5794C12.359 25.0056 11.4715 24.1534 10.9205 24.7271L2.22413 33.7832C1.86985 34.1522 2.15868 34.8246 2.66782 34.8246Z" fill="#685ED6"/>
</svg>
