<svg width="54" height="46" viewBox="0 0 54 46" fill="none" xmlns="http://www.w3.org/2000/svg">
<g clip-path="url(#clip0)">
<path fill-rule="evenodd" clip-rule="evenodd" d="M0.23682 38.8156C8.28934 34.8243 12.3155 30.1345 12.3155 24.7462C8.88332 24.3471 6.04517 22.9335 3.80103 20.5054C1.55688 18.0774 0.434834 15.2668 0.434834 12.0738C0.434834 8.68111 1.52388 5.82069 3.70203 3.49241C5.88017 1.16412 8.6193 0 11.9195 0C15.6157 0 18.8169 1.51336 21.5231 4.54013C24.2293 7.5669 25.5823 11.2422 25.5823 15.5662C25.5823 28.538 18.388 38.6825 3.99904 46L0.23682 38.8156ZM28.6545 38.8156C36.773 34.8243 40.8322 30.1345 40.8322 24.7462C37.334 24.3471 34.4629 22.9335 32.2187 20.5054C29.9746 18.0774 28.8525 15.2668 28.8525 12.0738C28.8525 8.68111 29.9581 5.82069 32.1692 3.49241C34.3804 1.16412 37.136 0 40.4362 0C44.1324 0 47.3171 1.51336 49.9903 4.54013C52.6634 7.5669 54 11.2422 54 15.5662C54 28.538 46.8386 38.6825 32.5157 46L28.6545 38.8156Z" fill="#E6DCFE"/>
</g>
<defs>
<clipPath id="clip0">
<rect width="54" height="46" fill="white" transform="translate(54 46) rotate(-180)"/>
</clipPath>
</defs>
</svg>
