<svg width="50" height="56" viewBox="0 0 50 56" fill="none" xmlns="http://www.w3.org/2000/svg">
<path opacity="0.3" fill-rule="evenodd" clip-rule="evenodd" d="M49 28.0001C49 42.8449 38.2563 54.8801 25 54.8801C11.7437 54.8801 1 42.8449 1 28.0001C1 13.153 11.7437 1.12012 25 1.12012C38.2563 1.12012 49 13.153 49 28.0001Z" stroke="white" stroke-linecap="round" stroke-linejoin="round"/>
<path fill-rule="evenodd" clip-rule="evenodd" d="M31.4108 39.1998H18.5892C16.6077 39.1998 15 37.3992 15 35.1781V20.818C15 18.6004 16.6077 16.7998 18.5892 16.7998H31.4108C33.3923 16.7998 35 18.6004 35 20.818V35.1781C35 37.3992 33.3923 39.1998 31.4108 39.1998ZM30.2415 27.7393C30.2415 24.353 27.7891 21.6084 24.7674 21.6084C21.7439 21.6084 19.2934 24.353 19.2934 27.7393C19.2934 31.1236 21.7439 33.8703 24.7674 33.8703C27.7891 33.8703 30.2415 31.1236 30.2415 27.7393ZM32.8175 21.0073C32.8175 19.7457 31.9039 18.7232 30.7782 18.7232C29.6518 18.7232 28.7388 19.7457 28.7388 21.0073C28.7388 22.2681 29.6518 23.2914 30.7782 23.2914C31.9039 23.2914 32.8175 22.2681 32.8175 21.0073Z" fill="white" stroke="white" stroke-linejoin="round"/>
</svg>
