<svg width="50" height="56" viewBox="0 0 50 56" fill="none" xmlns="http://www.w3.org/2000/svg">
<path fill-rule="evenodd" clip-rule="evenodd" d="M35 20.0341C35 20.0341 32.8814 20.2905 31.9421 20.5013C31.1879 19.6003 30.1168 19.04 28.9297 19.04C26.6497 19.04 24.8008 21.109 24.8008 23.6627C24.8008 24.0227 24.8369 24.3792 24.909 24.7147C21.478 24.525 18.4358 22.6826 16.4019 19.8848C16.0459 20.5715 15.8421 21.3636 15.8421 22.2102C15.8421 23.8155 16.5713 25.2275 17.6784 26.0583C17.0025 26.0319 16.3658 25.8247 15.8092 25.4787V25.5401C15.8092 27.7777 17.2315 29.6482 19.1195 30.0697C18.5142 30.2558 17.8775 30.2804 17.2565 30.1505C17.7803 31.9858 19.3045 33.3224 21.111 33.361C19.3469 34.9118 17.1546 35.5564 15 35.2736C16.8269 36.5856 18.9972 37.3531 21.3274 37.3531C28.9188 37.3531 33.0696 30.3068 33.0696 24.2001C33.0696 23.9981 33.0681 23.7996 33.0586 23.6012C33.8647 22.9478 34.448 20.9632 35 20.0341Z" fill="white"/>
<path opacity="0.3" fill-rule="evenodd" clip-rule="evenodd" d="M49 28.0001C49 42.8472 38.2563 54.8801 25 54.8801C11.7437 54.8801 1 42.8472 1 28.0001C1 13.153 11.7437 1.12012 25 1.12012C38.2563 1.12012 49 13.153 49 28.0001Z" stroke="white" stroke-linecap="round" stroke-linejoin="round"/>
</svg>
