<svg width="62" height="68" viewBox="0 0 62 68" fill="none" xmlns="http://www.w3.org/2000/svg">
<path fill-rule="evenodd" clip-rule="evenodd" d="M21.8818 22.9446C24.1695 24.4965 26.7104 26.2207 31.1051 26.2207C35.5176 26.2207 38.0628 24.5097 40.3547 22.9698L40.4818 22.8843C41.6356 22.1089 42.8357 21.3104 44.1766 20.932C45.5753 20.5372 47.0664 20.6096 48.8182 21.3981L48.8318 21.4047C50.7717 22.315 51.831 24.1138 52.3837 26.2009C52.9259 28.2541 53.0132 30.7021 52.9596 33.1589C52.9194 34.6039 52.8567 36.0482 52.7715 37.4911C52.7137 38.5627 52.6569 39.6145 52.6233 40.5884C52.5371 42.9925 52.5718 45.1071 52.9301 46.749L52.9312 46.7534C53.4188 49.0193 54.2815 50.5734 55.1853 51.5737L55.82 52.2756L55.2946 53.0829C49.931 61.3229 41.0671 66.775 31.1051 66.775C21.1452 66.775 12.3863 61.4403 6.91669 53.0861L6.38916 52.2789L7.02597 51.5737C7.9297 50.5734 8.7914 49.0182 9.27899 46.7534V46.749C9.63838 45.1082 9.67306 42.986 9.58794 40.572C9.55326 39.5936 9.49652 38.5363 9.43872 37.4604C9.36096 35.9995 9.28109 34.5035 9.24957 33.115C9.19702 30.6516 9.28425 28.1992 9.82753 26.1505C10.3792 24.0699 11.4406 22.28 13.3847 21.4014C15.1333 20.5832 16.6265 20.4911 18.0294 20.8816C19.3745 21.2545 20.5777 22.0606 21.7315 22.8426L21.8818 22.9435V22.9446ZM17.5155 23.1486C16.5908 22.892 15.5652 22.9172 14.2022 23.5566L14.1875 23.5632C13.0232 24.0874 12.2907 25.1601 11.8536 26.8096C11.407 28.4932 11.3092 30.6418 11.3618 33.059C11.3922 34.453 11.4669 35.8328 11.5415 37.2268C11.6003 38.2983 11.6581 39.3787 11.698 40.4809C11.7832 42.9092 11.7653 45.3144 11.3323 47.2963C10.8637 49.4756 10.0755 51.1854 9.13608 52.4676C14.2484 59.805 22.1519 64.4378 31.1051 64.4378C40.0531 64.4378 48.0521 59.7019 53.0762 52.4687C52.1357 51.1865 51.3465 49.4767 50.8778 47.2963C50.4449 45.3144 50.426 42.9169 50.5132 40.4963C50.5521 39.3995 50.6099 38.3225 50.6687 37.2553C50.7444 35.8679 50.819 34.4936 50.8495 33.1029C50.902 30.6933 50.8032 28.548 50.3566 26.8579C49.9195 25.205 49.186 24.1127 48.0153 23.5599C46.6555 22.949 45.6278 22.9347 44.6989 23.1969C43.7111 23.4754 42.7727 24.0787 41.5778 24.8826C41.5274 24.9155 41.4759 24.9495 41.4255 24.9846C39.0768 26.564 36.1103 28.5579 31.1061 28.5579C26.1125 28.5579 23.147 26.5453 20.8047 24.955L20.6292 24.8354C19.4344 24.026 18.4991 23.4206 17.5155 23.1486Z" fill="#0B3B3D"/>
<path fill-rule="evenodd" clip-rule="evenodd" d="M1.22633 33.7007C1.22633 15.4065 14.5795 0.625244 31.1051 0.625244C47.6307 0.625244 60.9838 15.4076 60.9838 33.7007C60.9838 40.9657 58.9042 47.6352 55.2893 53.0916L54.5621 54.1895L53.692 53.2265C52.4835 51.8896 51.4463 49.9384 50.8778 47.2963C50.4449 45.3144 50.426 42.9092 50.5132 40.4809C50.5521 39.3787 50.6099 38.2983 50.6687 37.2257C50.7444 35.8328 50.819 34.4542 50.8484 33.058C50.9009 30.6418 50.8032 28.4932 50.3566 26.8096C49.9195 25.1601 49.1881 24.0874 48.0227 23.5632L48.008 23.5566C46.645 22.9172 45.6194 22.892 44.6946 23.1486C43.711 23.4217 42.7758 24.026 41.581 24.8365L41.4065 24.955C39.0631 26.5453 36.0977 28.5579 31.1051 28.5579C26.0999 28.5579 23.1344 26.564 20.7858 24.9846L20.6334 24.8826C19.4375 24.0787 18.5002 23.4754 17.5124 23.1969C16.5813 22.9336 15.5515 22.949 14.1875 23.5632C13.0221 24.0874 12.2907 25.1601 11.8536 26.8096C11.4069 28.4932 11.3092 30.6418 11.3618 33.0591C11.3912 34.4541 11.4668 35.8339 11.5415 37.2268C11.6003 38.2983 11.6581 39.3787 11.697 40.4809C11.7831 42.9092 11.7653 45.3144 11.3323 47.2963C10.7649 49.9384 9.72559 51.8896 8.51816 53.2265L7.64806 54.1895L6.92087 53.0916C3.30596 47.6352 1.22528 40.9657 1.22528 33.7007H1.22633ZM31.1051 2.96357C15.7459 2.96357 3.33748 16.6985 3.33748 33.7007C3.33748 39.9194 4.97365 45.6544 7.84667 50.4736C8.42989 49.537 8.94271 48.3141 9.27898 46.7534V46.749C9.63837 45.1082 9.67304 42.986 9.58792 40.572C9.55325 39.5936 9.4965 38.5363 9.43871 37.4604C9.36094 36.0006 9.28108 34.5035 9.24955 33.115C9.19701 30.6527 9.28423 28.1992 9.82752 26.1505C10.3803 24.0666 11.4427 22.2756 13.392 21.3981C15.1438 20.6096 16.6349 20.5372 18.0336 20.932C19.3745 21.3104 20.5745 22.1089 21.7284 22.8843L21.8566 22.9698C24.1474 24.5097 26.6926 26.2207 31.1051 26.2207C35.4997 26.2207 38.0407 24.4965 40.3284 22.9446L40.4786 22.8426C41.6325 22.0606 42.8346 21.2545 44.1808 20.8816C45.5847 20.4922 47.0769 20.5832 48.8255 21.4014C50.7696 22.28 51.8309 24.0699 52.3826 26.1505C52.9259 28.1992 53.0131 30.6527 52.9606 33.115C52.9291 34.5035 52.8492 35.9995 52.7715 37.4604C52.7137 38.5363 52.6569 39.5936 52.6222 40.572C52.5382 42.9849 52.5718 45.1082 52.9301 46.749L52.9312 46.7534C53.2675 48.3141 53.7803 49.537 54.3635 50.4736C57.2365 45.6544 58.8716 39.9194 58.8716 33.7007C58.8716 16.6985 46.4643 2.96357 31.1051 2.96357Z" fill="#0B3B3D"/>
<mask id="mask0" mask-type="alpha" maskUnits="userSpaceOnUse" x="2" y="1" width="58" height="52">
<path d="M31.1051 1.79321C15.1638 1.79321 2.28247 16.0513 2.28247 33.6984C2.28247 40.7112 4.28854 47.1393 7.7721 52.3984C8.8282 51.2303 9.77922 49.4766 10.3057 47.0231C11.8904 39.7767 7.56088 25.285 13.7903 22.4795C20.0197 19.675 21.4972 27.3875 31.1051 27.3875C40.713 27.3875 42.1916 19.5566 48.4199 22.4795C54.6494 25.2839 50.3209 39.7756 51.9045 47.0231C52.4321 49.4766 53.3831 51.2303 54.4381 52.3984C57.9227 47.1393 59.9288 40.7112 59.9288 33.6984C59.9288 16.0513 47.0475 1.79321 31.1051 1.79321Z" fill="#C4C4C4"/>
</mask>
<g mask="url(#mask0)">
<path d="M10.2615 25.5044C10.2573 25.9453 10.5852 26.3084 10.9834 26.3051C11.3807 26.2996 11.7148 25.93 11.719 25.4902C11.7222 25.0493 11.3943 24.6862 10.9971 24.6895C10.5988 24.695 10.2647 25.0646 10.2615 25.5044ZM0.564292 36.2386C0.56114 36.6795 0.890055 37.0425 1.28622 37.0392C1.6845 37.0337 2.01867 36.6641 2.02182 36.2243C2.02602 35.7845 1.69816 35.4204 1.29989 35.4248C0.902665 35.4291 0.568496 35.7988 0.564292 36.2386ZM0.609479 30.9587C0.605276 31.3985 0.93314 31.7626 1.33141 31.7582C1.72863 31.7539 2.0628 31.3842 2.067 30.9433C2.07016 30.5046 1.74124 30.1405 1.34402 30.1438C0.946801 30.1482 0.612631 30.5189 0.608428 30.9587H0.609479ZM5.38033 30.9093C5.37612 31.3491 5.70399 31.7133 6.10226 31.7089C6.49948 31.7045 6.83365 31.3349 6.83785 30.894C6.841 30.4553 6.51209 30.0912 6.11592 30.0955C5.71765 30.0988 5.38348 30.4684 5.38033 30.9093ZM3.01592 28.2935C3.01277 28.7344 3.34168 29.0975 3.7389 29.0942C4.13612 29.0887 4.47029 28.7191 4.4745 28.2793C4.47765 27.8395 4.14873 27.4753 3.75256 27.4786C3.35429 27.4841 3.02012 27.8537 3.01697 28.2935H3.01592ZM0.588462 25.6053C0.584259 26.0452 0.913174 26.4093 1.31039 26.4049C1.70761 26.4005 2.04283 26.0309 2.04599 25.5911C2.05019 25.1502 1.72128 24.7872 1.32406 24.7904C0.925784 24.7948 0.591615 25.1655 0.588462 25.6053ZM2.97178 33.5745C2.96863 34.0143 3.29755 34.3773 3.69372 34.3741C4.09199 34.3697 4.42616 33.999 4.42931 33.5591C4.43351 33.1193 4.10565 32.7563 3.70738 32.7596C3.31016 32.764 2.97599 33.1336 2.97178 33.5745ZM7.85402 28.1696C7.85087 28.6094 8.17873 28.9724 8.57595 28.9692C8.97423 28.9648 9.30839 28.5952 9.31155 28.1542C9.31575 27.7155 8.98684 27.3514 8.58961 27.3558C8.19239 27.3591 7.85822 27.7287 7.85402 28.1696ZM5.49067 25.5549C5.48751 25.9936 5.81538 26.3577 6.2126 26.3533C6.61087 26.349 6.94504 25.9793 6.94819 25.5395C6.95239 25.0986 6.62348 24.7356 6.22626 24.7389C5.82904 24.7444 5.49487 25.114 5.49067 25.5538V25.5549ZM3.06216 22.8656C3.059 23.3054 3.38792 23.6695 3.78409 23.6652C4.18236 23.6608 4.51653 23.2912 4.51968 22.8502C4.52389 22.4115 4.19602 22.0474 3.79775 22.0518C3.40053 22.0551 3.06636 22.4247 3.06216 22.8656Z" fill="#0A3B3C"/>
<path d="M10.2615 25.5044C10.2584 25.9453 10.5862 26.3083 10.9835 26.305C11.3817 26.2995 11.7159 25.9299 11.7191 25.4901C11.7233 25.0492 11.3954 24.6862 10.9971 24.6895C10.5999 24.695 10.2657 25.0646 10.2615 25.5044ZM0.56431 36.2385C0.560106 36.6794 0.889022 37.0424 1.28624 37.0392C1.68346 37.0337 2.01763 36.6641 2.02184 36.2242C2.02604 35.7844 1.69712 35.4203 1.2999 35.4247C0.902683 35.4291 0.567462 35.7987 0.56431 36.2385ZM0.609496 30.9586C0.605293 31.3984 0.933157 31.7626 1.33038 31.7582C1.72865 31.7538 2.06282 31.3842 2.06597 30.9433C2.07017 30.5046 1.74126 30.1404 1.34404 30.1437C0.946818 30.1481 0.612649 30.5188 0.608445 30.9586H0.609496ZM19.9577 14.7702C19.9545 15.2101 20.2824 15.5742 20.6796 15.5698C21.0779 15.5654 21.4121 15.1958 21.4152 14.756C21.4194 14.3151 21.0905 13.9521 20.6933 13.9553C20.2961 13.9608 19.9619 14.3304 19.9577 14.7702Z" fill="#0A3B3C"/>
<path d="M10.2615 25.5043C10.2573 25.9452 10.5863 26.3082 10.9835 26.3049C11.3807 26.2995 11.7159 25.9298 11.7191 25.49C11.7233 25.0491 11.3944 24.6861 10.9971 24.6894C10.5999 24.6949 10.2647 25.0645 10.2615 25.5043ZM10.3057 20.2244C10.3015 20.6642 10.6304 21.0273 11.0276 21.024C11.4248 21.0196 11.76 20.65 11.7632 20.2091C11.7674 19.7693 11.4385 19.4062 11.0413 19.4095C10.644 19.4139 10.3088 19.7846 10.3057 20.2244ZM7.87717 17.5362C7.87401 17.976 8.20188 18.3391 8.5991 18.3358C8.99737 18.3314 9.33154 17.9607 9.33469 17.5209C9.33889 17.0811 9.00998 16.718 8.61276 16.7213C8.21554 16.7257 7.88137 17.0953 7.87717 17.5362ZM15.1427 20.1005C15.1396 20.5392 15.4685 20.9033 15.8657 20.8989C16.2629 20.8957 16.5971 20.526 16.6013 20.0851C16.6045 19.6453 16.2766 19.2812 15.8794 19.2856C15.4149 19.3635 15.1469 19.6596 15.1438 20.1005H15.1427ZM12.7804 17.4847C12.7762 17.9245 13.1041 18.2875 13.5024 18.2842C13.8996 18.2798 14.2337 17.9102 14.2379 17.4693C14.2411 17.0295 13.9122 16.6665 13.516 16.6698C13.0515 16.7488 12.7836 17.0449 12.7804 17.4847ZM10.3509 14.7954C10.3477 15.2363 10.6766 15.5993 11.0738 15.596C11.4711 15.5917 11.8063 15.2209 11.8094 14.7811C11.8136 14.3413 11.4847 13.9783 11.0875 13.9816C10.623 14.0595 10.3551 14.3556 10.3519 14.7965L10.3509 14.7954ZM12.669 22.8402C12.6648 23.2789 12.9937 23.6431 13.391 23.6387C13.7882 23.6354 14.1234 23.2658 14.1266 22.8249C14.1308 22.3851 13.8018 22.0209 13.4046 22.0253C13.0074 22.0297 12.6722 22.3993 12.669 22.8402ZM17.5513 17.4353C17.5471 17.8751 17.8749 18.2382 18.2732 18.2349C18.6704 18.2305 19.0046 17.8609 19.0088 17.42C19.0119 16.9802 18.6841 16.6171 18.2869 16.6215C17.8886 16.6248 17.5544 16.9944 17.5513 17.4353ZM15.1879 14.8195C15.1837 15.2593 15.5126 15.6235 15.9098 15.6191C16.3071 15.6147 16.6412 15.2451 16.6454 14.8053C16.6486 14.3644 16.3207 14.0013 15.9235 14.0046C15.5252 14.009 15.1911 14.3797 15.1879 14.8195ZM12.7594 12.1313C12.7552 12.5711 13.0841 12.9353 13.4813 12.9309C13.8786 12.9265 14.2127 12.5569 14.2169 12.116C14.2211 11.6773 13.8922 11.3131 13.495 11.3164C13.0967 11.3208 12.7626 11.6915 12.7594 12.1313ZM19.9577 14.7702C19.9546 15.21 20.2835 15.5741 20.6807 15.5697C21.0779 15.5653 21.4121 15.1957 21.4163 14.7559C21.4194 14.315 21.0905 13.952 20.6933 13.9553C20.2961 13.9608 19.9619 14.3304 19.9577 14.7702ZM0.697776 20.2464C0.694624 20.6851 1.02354 21.0492 1.41971 21.0448C1.81798 21.0415 2.15215 20.6708 2.1553 20.231C2.15951 19.7901 1.83164 19.4271 1.43337 19.4315C1.03615 19.4358 0.70198 19.8055 0.697776 20.2453V20.2464ZM5.48964 25.5493C5.48649 25.9902 5.8154 26.3532 6.21262 26.3499C6.60984 26.3444 6.94401 25.9748 6.94822 25.535C6.95137 25.0952 6.62245 24.7311 6.22523 24.7344C5.82801 24.7399 5.49384 25.1095 5.48964 25.5493ZM3.06113 22.8611C3.05798 23.3009 3.38689 23.665 3.78412 23.6606C4.18134 23.6562 4.51551 23.2866 4.51971 22.8468C4.52286 22.4059 4.19395 22.0429 3.79673 22.0462C3.39951 22.0506 3.06534 22.4213 3.06113 22.8611ZM3.10527 17.5812C3.10212 18.021 3.42998 18.384 3.8272 18.3808C4.22547 18.3764 4.55964 18.0057 4.56279 17.5658C4.567 17.126 4.23808 16.763 3.84086 16.7663C3.44364 16.7707 3.10947 17.1403 3.10527 17.5812ZM7.89713 22.8852C7.89398 23.3239 8.22289 23.688 8.62012 23.6848C9.01734 23.6804 9.3515 23.3097 9.35571 22.8698C9.35886 22.43 9.02995 22.0659 8.63273 22.0703C8.23551 22.0747 7.90134 22.4443 7.89713 22.8852ZM5.46862 20.197C5.46547 20.6357 5.79439 20.9998 6.19161 20.9955C6.58883 20.9922 6.923 20.6226 6.9272 20.1817C6.93035 19.7418 6.60144 19.3777 6.20422 19.3821C5.807 19.3865 5.47283 19.7561 5.46862 20.1959V20.197ZM0.741912 14.9654C0.738759 15.4052 1.06767 15.7682 1.46384 15.7649C1.86212 15.7606 2.19628 15.3909 2.19944 14.95C2.20364 14.5102 1.87578 14.1472 1.47751 14.1505C1.08028 14.1549 0.746115 14.5256 0.741912 14.9654ZM5.51276 14.916C5.50961 15.3558 5.83852 15.7189 6.23469 15.7156C6.63296 15.7112 6.96713 15.3416 6.97028 14.9007C6.97449 14.462 6.64662 14.0978 6.24835 14.1022C5.85113 14.1055 5.51696 14.4751 5.51276 14.916Z" fill="#0A3B3C"/>
<path d="M10.2605 25.5022C10.2573 25.9431 10.5863 26.3062 10.9835 26.3029C11.3807 26.2974 11.7149 25.9278 11.7191 25.488C11.7222 25.0471 11.3933 24.6841 10.9961 24.6873C10.5989 24.6928 10.2647 25.0624 10.2605 25.5022ZM10.3046 20.2224C10.3015 20.6622 10.6304 21.0263 11.0276 21.0219C11.4248 21.0175 11.759 20.6479 11.7632 20.207C11.7664 19.7683 11.4374 19.4042 11.0402 19.4075C10.643 19.4119 10.3088 19.7826 10.3046 20.2224ZM7.87717 17.5342C7.87297 17.974 8.20083 18.337 8.5991 18.3337C8.99632 18.3293 9.33049 17.9586 9.3347 17.5188C9.33785 17.079 9.00893 16.716 8.61276 16.7193C8.21449 16.7237 7.88032 17.0933 7.87717 17.5342ZM0.698831 20.2476C0.694628 20.6885 1.02249 21.0515 1.42076 21.0482C1.81798 21.0428 2.15215 20.6731 2.15636 20.2333C2.15951 19.7924 1.83059 19.4294 1.43442 19.4327C1.03615 19.4382 0.701984 19.8078 0.698831 20.2476ZM0.742967 14.9677C0.738764 15.4075 1.06768 15.7706 1.4649 15.7673C1.86212 15.7629 2.19629 15.3933 2.20049 14.9524C2.20365 14.5126 1.87578 14.1495 1.47856 14.1539C1.08029 14.1572 0.74612 14.5268 0.742967 14.9677ZM19.9588 14.7703C19.9546 15.2101 20.2835 15.5742 20.6807 15.5699C21.0779 15.5655 21.4121 15.1959 21.4163 14.7561C21.4194 14.3151 21.0916 13.9521 20.6944 13.9554C20.2961 13.9609 19.9619 14.3305 19.9588 14.7703ZM20.0029 9.49044C19.9987 9.93024 20.3266 10.2933 20.7248 10.29C21.1221 10.2856 21.4562 9.91489 21.4604 9.47508C21.4636 9.03528 21.1357 8.67224 20.7385 8.67553C20.3402 8.67992 20.0061 9.05063 20.0029 9.49044ZM17.5744 6.80224C17.5702 7.24095 17.8991 7.60508 18.2963 7.60069C18.6935 7.5974 19.0288 7.22779 19.0319 6.78689C19.0361 6.34708 18.7072 5.98295 18.31 5.98734C17.9128 5.99173 17.5775 6.36134 17.5744 6.80224ZM24.84 9.3665C24.8368 9.80521 25.1657 10.1693 25.5629 10.165C25.9602 10.1617 26.2943 9.79205 26.2985 9.35115C26.3017 8.91134 25.9728 8.54721 25.5755 8.5516C25.1783 8.55598 24.8442 8.9256 24.84 9.3654V9.3665ZM22.4776 6.75069C22.4734 7.1905 22.8013 7.55353 23.1996 7.55024C23.5968 7.54586 23.931 7.17515 23.9352 6.73534C23.9383 6.29553 23.6094 5.9325 23.2122 5.93579C22.815 5.94018 22.4808 6.30979 22.4766 6.75069H22.4776ZM20.0491 4.0625C20.0449 4.50121 20.3728 4.86534 20.7711 4.86095C21.1683 4.85766 21.5025 4.48805 21.5067 4.04715C21.5098 3.60734 21.1809 3.24321 20.7847 3.2476C20.3865 3.25198 20.0523 3.6216 20.0491 4.0625ZM22.3663 12.1051C22.3621 12.546 22.691 12.9091 23.0882 12.9058C23.4854 12.9014 23.8196 12.5307 23.8238 12.0909C23.8269 11.6511 23.4991 11.287 23.1018 11.2913C22.7036 11.2957 22.3694 11.6653 22.3663 12.1051ZM10.395 9.51347C10.3918 9.95437 10.7208 10.3174 11.1169 10.313C11.5152 10.3086 11.8494 9.93902 11.8525 9.49921C11.8567 9.05831 11.5289 8.69528 11.1306 8.69857C10.7334 8.70405 10.3992 9.07366 10.395 9.51347ZM15.1869 14.8175C15.1837 15.2584 15.5126 15.6214 15.9099 15.6181C16.3071 15.6126 16.6412 15.243 16.6454 14.8032C16.6486 14.3623 16.3197 13.9993 15.9225 14.0026C15.5252 14.008 15.1911 14.3777 15.1869 14.8175ZM12.7584 12.1293C12.7552 12.5691 13.0841 12.9332 13.4813 12.9288C13.8786 12.9244 14.2127 12.5548 14.2169 12.1139C14.2201 11.6752 13.8912 11.3111 13.494 11.3155C13.0967 11.3188 12.7626 11.6884 12.7584 12.1293ZM12.8025 6.8494C12.7993 7.28811 13.1283 7.65224 13.5255 7.64786C13.9227 7.64457 14.2569 7.27495 14.2611 6.83405C14.2642 6.39424 13.9353 6.03011 13.5381 6.0345C13.1409 6.03889 12.8067 6.4085 12.8025 6.8494ZM17.5944 12.1523C17.5912 12.5932 17.9201 12.9562 18.3173 12.953C18.7146 12.9486 19.0487 12.5779 19.0529 12.1381C19.0561 11.6982 18.7272 11.3341 18.33 11.3385C17.9327 11.3429 17.5986 11.7125 17.5944 12.1534V12.1523ZM15.1658 9.46521C15.1627 9.90392 15.4916 10.268 15.8888 10.2637C16.2861 10.2593 16.6202 9.88966 16.6244 9.44986C16.6276 9.00895 16.2987 8.64592 15.9014 8.64921C15.5042 8.6547 15.1701 9.02431 15.1658 9.46411V9.46521ZM10.4391 4.2336C10.436 4.6734 10.7649 5.03644 11.1611 5.03315C11.5593 5.02876 11.8935 4.65805 11.8967 4.21824C11.9009 3.77844 11.573 3.4154 11.1747 3.41869C10.7775 3.42308 10.4433 3.79379 10.4391 4.2336ZM15.21 4.18424C15.2068 4.62405 15.5357 4.98708 15.933 4.98379C16.3302 4.9794 16.6644 4.60869 16.6686 4.16889C16.6717 3.72908 16.3428 3.36605 15.9456 3.36934C15.5484 3.37373 15.2142 3.74444 15.21 4.18424Z" fill="#0A3B3C"/>
<path d="M19.9577 14.7701C19.9546 15.2099 20.2835 15.574 20.6807 15.5696C21.0779 15.5653 21.4121 15.1956 21.4163 14.7558C21.4194 14.3149 21.0905 13.9519 20.6933 13.9552C20.2961 13.9607 19.9619 14.3303 19.9577 14.7701ZM20.0018 9.49022C19.9987 9.93003 20.3276 10.2931 20.7248 10.2898C21.122 10.2854 21.4562 9.91467 21.4604 9.47487C21.4636 9.03506 21.1347 8.67203 20.7374 8.67532C20.3402 8.6797 20.006 9.05041 20.0018 9.49022ZM17.5744 6.80203C17.5702 7.24074 17.898 7.60487 18.2963 7.60048C18.6935 7.59719 19.0277 7.22758 19.0319 6.78667C19.0351 6.34687 18.7072 5.98274 18.31 5.98712C17.9117 5.99151 17.5775 6.36112 17.5744 6.80203ZM0.74296 14.9675C0.738756 15.4073 1.06767 15.7704 1.46489 15.7671C1.86211 15.7627 2.19628 15.3931 2.20049 14.9522C2.20364 14.5124 1.87577 14.1493 1.47855 14.1537C1.08028 14.157 0.746112 14.5266 0.74296 14.9675ZM0.787095 9.68654C0.782892 10.1274 1.11181 10.4905 1.50903 10.4872C1.90625 10.4828 2.24042 10.1121 2.24462 9.67229C2.24882 9.23248 1.91991 8.86835 1.52269 8.87274C1.12442 8.87712 0.790248 9.24674 0.787095 9.68654ZM5.51381 14.9182C5.5096 15.358 5.83852 15.721 6.23574 15.7177C6.63296 15.7133 6.96713 15.3437 6.97133 14.9028C6.97448 14.4641 6.64662 14.1 6.2494 14.1044C5.85218 14.1076 5.51696 14.4773 5.51381 14.9182ZM5.6252 9.5637C5.62099 10.0024 5.94886 10.3665 6.34713 10.3622C6.74435 10.3578 7.07852 9.98816 7.08272 9.54835C7.08587 9.10745 6.75696 8.74441 6.36079 8.7477C5.89632 8.82667 5.62835 9.1228 5.6252 9.56261V9.5637ZM3.26079 6.9468C3.25764 7.38771 3.58655 7.75074 3.98377 7.74745C4.38099 7.74306 4.71516 7.37235 4.71937 6.93254C4.72252 6.49274 4.3936 6.12861 3.99743 6.133C3.53296 6.21087 3.26499 6.507 3.26184 6.9468H3.26079ZM3.15045 12.3024C3.14625 12.7422 3.47516 13.1063 3.87238 13.1019C4.2696 13.0975 4.60377 12.7279 4.60798 12.2881C4.61113 11.8472 4.28326 11.4842 3.88604 11.4874C3.48777 11.4929 3.1536 11.8625 3.15045 12.3024ZM8.03269 6.89854C8.02848 7.33725 8.35635 7.70138 8.75462 7.697C9.15184 7.69371 9.48601 7.32409 9.49021 6.88319C9.49337 6.44338 9.16445 6.07925 8.76828 6.08364C8.37001 6.08803 8.03584 6.45764 8.03269 6.89745V6.89854ZM7.9875 12.1806C7.98435 12.6204 8.31326 12.9834 8.70943 12.9802C9.10771 12.9758 9.44188 12.6051 9.44503 12.1653C9.44923 11.7254 9.12137 11.3624 8.72309 11.3657C8.25862 11.4447 7.9917 11.7408 7.9875 12.1806ZM0.832282 4.25861C0.829129 4.69951 1.15699 5.06254 1.55421 5.05816C1.95249 5.05377 2.28665 4.68416 2.28981 4.24435C2.29401 3.80345 1.96615 3.44041 1.56787 3.44371C1.1034 3.52267 0.836485 3.8188 0.832282 4.25861ZM5.66828 4.28274C5.66513 4.72254 5.99404 5.08558 6.39126 5.08229C6.78848 5.0779 7.12265 4.70719 7.12686 4.26738C7.13001 3.82758 6.8011 3.46454 6.40493 3.46783C6.00665 3.47222 5.67248 3.84183 5.66933 4.28274H5.66828ZM10.395 9.51545C10.3918 9.95525 10.7208 10.3194 11.1169 10.315C11.5152 10.3106 11.8494 9.941 11.8525 9.50119C11.8567 9.06029 11.5289 8.69725 11.1306 8.70054C10.7334 8.70493 10.3992 9.07564 10.395 9.51545ZM10.4402 4.23338C10.436 4.67319 10.7638 5.03622 11.1621 5.03293C11.5593 5.02854 11.8935 4.65783 11.8977 4.21803C11.9009 3.77822 11.5719 3.41519 11.1758 3.41848C10.7775 3.42287 10.4433 3.79358 10.4402 4.23338Z" fill="#0A3B3C"/>
<path d="M0.74296 14.9675C0.738757 15.4074 1.06662 15.7704 1.46489 15.7671C1.86211 15.7627 2.19628 15.3931 2.20049 14.9522C2.20364 14.5124 1.87472 14.1494 1.47855 14.1537C1.08028 14.157 0.746112 14.5266 0.74296 14.9675ZM0.787095 9.68658C0.782892 10.1275 1.11181 10.4905 1.50903 10.4872C1.90625 10.4828 2.24042 10.1121 2.24462 9.67232C2.24882 9.23252 1.91991 8.86839 1.52269 8.87278C1.12442 8.87716 0.790248 9.24677 0.787095 9.68658ZM0.832282 4.25865C0.828079 4.69955 1.15699 5.06258 1.55421 5.05819C1.95143 5.05381 2.28665 4.68419 2.28981 4.24439C2.29401 3.80348 1.9651 3.44045 1.56788 3.44374C1.1034 3.52271 0.835434 3.81884 0.832282 4.25865ZM10.4402 4.23342C10.436 4.67323 10.7638 5.03626 11.1621 5.03297C11.5593 5.02858 11.8935 4.65787 11.8977 4.21807C11.9009 3.77826 11.5719 3.41523 11.1758 3.41852C10.7775 3.4229 10.4433 3.79361 10.4402 4.23342ZM15.21 4.18407C15.2068 4.62387 15.5357 4.9869 15.933 4.98361C16.3302 4.97923 16.6643 4.60852 16.6686 4.16871C16.6717 3.7289 16.3428 3.36587 15.9456 3.36916C15.5483 3.37355 15.2142 3.74426 15.21 4.18407ZM12.8477 1.56826C12.8435 2.00807 13.1713 2.37219 13.5696 2.36781C13.9668 2.36342 14.301 1.99381 14.3052 1.5529C14.3083 1.11419 13.9794 0.750066 13.5833 0.754453C13.185 0.757743 12.8508 1.12736 12.8477 1.56826ZM17.6847 1.44652C17.6805 1.88632 18.0094 2.24936 18.4067 2.24607C18.8039 2.24168 19.1391 1.87097 19.1422 1.43116C19.1454 0.991356 18.8175 0.628324 18.4203 0.631614C18.0231 0.636001 17.6879 1.00671 17.6847 1.44652Z" fill="#0A3B3C"/>
<path d="M0.832298 4.2566C0.829145 4.6975 1.15701 5.06053 1.55423 5.05724C1.9525 5.05176 2.28667 4.68214 2.28982 4.24234C2.29403 3.80143 1.96616 3.4384 1.56789 3.44169C1.10342 3.52066 0.836501 3.81679 0.832298 4.2566ZM5.6683 4.28072C5.66515 4.72053 5.99406 5.08356 6.39128 5.08027C6.7885 5.07589 7.12267 4.70518 7.12687 4.26537C7.13003 3.82556 6.80111 3.46253 6.40494 3.46582C6.00667 3.47021 5.6725 3.84092 5.66935 4.28072H5.6683ZM3.23979 1.59253C3.23559 2.03124 3.5645 2.39537 3.96172 2.39098C4.35894 2.38769 4.69416 2.01808 4.69731 1.57718C4.70152 1.13737 4.3726 0.77324 3.97538 0.777627C3.57816 0.782014 3.24294 1.15163 3.23979 1.59253ZM8.07684 1.61556C8.07264 2.05537 8.4005 2.4195 8.79877 2.41511C9.19599 2.41072 9.53016 2.04111 9.53437 1.60021C9.53752 1.1615 9.2086 0.797369 8.81243 0.801756C8.41416 0.805046 8.07999 1.17466 8.07684 1.61556ZM10.4402 4.23356C10.436 4.67337 10.7639 5.0364 11.1621 5.03311C11.5593 5.02872 11.8935 4.65801 11.8977 4.21821C11.9009 3.7784 11.572 3.41537 11.1758 3.41866C10.7775 3.42305 10.4433 3.79376 10.4402 4.23356Z" fill="#0A3B3C"/>
<path d="M0.832254 4.25865C0.828051 4.69956 1.15697 5.06259 1.55419 5.0582C1.95141 5.05382 2.28663 4.6842 2.28978 4.2444C2.29398 3.80349 1.96507 3.44046 1.56785 3.44375C1.10337 3.52272 0.835407 3.81885 0.832254 4.25865ZM27.3147 6.62549C27.3115 7.0664 27.6404 7.42943 28.0376 7.42614C28.4349 7.42175 28.769 7.05104 28.7732 6.61124C28.7764 6.17143 28.4475 5.8073 28.0503 5.81169C27.653 5.81607 27.3189 6.18569 27.3147 6.62549ZM27.3588 1.34562C27.3556 1.78543 27.6846 2.14956 28.0818 2.14517C28.479 2.14078 28.8132 1.77117 28.8174 1.33027C28.8205 0.891558 28.4916 0.527429 28.0944 0.531816C27.6972 0.535106 27.363 0.904719 27.3588 1.34562ZM32.1307 1.29627C32.1265 1.73607 32.4544 2.1002 32.8526 2.09582C33.2499 2.09143 33.584 1.72182 33.5882 1.28091C33.5914 0.842203 33.2635 0.478074 32.8663 0.482461C32.468 0.485751 32.1339 0.855364 32.1307 1.29627ZM29.7222 3.96143C29.719 4.40124 30.0479 4.76427 30.4451 4.76098C30.8424 4.75659 31.1765 4.38588 31.1807 3.94607C31.1839 3.50627 30.855 3.14324 30.4577 3.14653C30.0605 3.15091 29.7264 3.52053 29.7222 3.96143ZM24.9513 4.0064C24.9471 4.4462 25.276 4.80924 25.6732 4.80594C26.0705 4.80156 26.4057 4.43085 26.4088 3.99104C26.413 3.55124 26.0841 3.1882 25.6869 3.19149C25.2897 3.19588 24.9545 3.56659 24.9513 4.0064ZM22.5228 1.3182C22.5196 1.75691 22.8475 2.12104 23.2447 2.11665C23.643 2.11336 23.9772 1.74375 23.9803 1.30285C23.9845 0.863042 23.6556 0.498913 23.2584 0.5033C22.8612 0.507687 22.527 0.8773 22.5228 1.3182Z" fill="#0A3B3C"/>
<path d="M27.3147 6.62435C27.3105 7.06306 27.6394 7.42719 28.0366 7.42281C28.4339 7.41952 28.7691 7.0499 28.7722 6.609C28.7764 6.16919 28.4475 5.80506 28.0503 5.80945C27.6531 5.81384 27.3179 6.18345 27.3147 6.62435ZM27.3588 1.34339C27.3546 1.78319 27.6836 2.14732 28.0808 2.14294C28.478 2.13855 28.8132 1.76894 28.8164 1.32803C28.8206 0.889322 28.4917 0.525193 28.0944 0.52958C27.6972 0.532871 27.362 0.902484 27.3588 1.34339ZM31.6621 49.1924C31.6579 49.6322 31.9857 49.9963 32.384 49.9919C32.7812 49.9875 33.1154 49.6179 33.1196 49.177C33.1227 48.7383 32.7938 48.3742 32.3966 48.3775C31.9994 48.3818 31.6652 48.7526 31.661 49.1924H31.6621ZM19.5805 51.9573C19.5773 52.3982 19.9062 52.7613 20.3034 52.758C20.7007 52.7536 21.0348 52.3829 21.039 51.9431C21.0422 51.5033 20.7133 51.1391 20.3161 51.1435C19.9188 51.1479 19.5847 51.5175 19.5805 51.9573ZM24.4165 51.9815C24.4133 52.4213 24.7422 52.7854 25.1395 52.781C25.5367 52.7766 25.8708 52.407 25.875 51.9661C25.8782 51.5274 25.5493 51.1633 25.1521 51.1676C24.7548 51.1709 24.4207 51.5406 24.4165 51.9815ZM21.988 49.2933C21.9848 49.7331 22.3137 50.0961 22.7109 50.0928C23.1082 50.0884 23.4423 49.7177 23.4465 49.2779C23.4497 48.8381 23.1208 48.4751 22.7246 48.4784C22.3263 48.4827 21.9922 48.8524 21.989 49.2933H21.988ZM29.2546 51.8575C29.2504 52.2962 29.5793 52.6604 29.9765 52.6571C30.3737 52.6527 30.7089 52.282 30.7121 51.8422C30.7163 51.4024 30.3874 51.0382 29.9902 51.0426C29.5919 51.047 29.2577 51.4166 29.2546 51.8575ZM26.8912 49.2417C26.8881 49.6815 27.2159 50.0456 27.6131 50.0413C28.0114 50.0369 28.3456 49.6673 28.3487 49.2264C28.3529 48.7876 28.024 48.4235 27.6268 48.4268C27.2296 48.4312 26.8954 48.8019 26.8912 49.2417ZM24.4627 46.5535C24.4596 46.9933 24.7874 47.3564 25.1846 47.3531C25.5829 47.3487 25.9171 46.978 25.9202 46.5382C25.9244 46.0984 25.5955 45.7353 25.1983 45.7386C24.8011 45.743 24.4659 46.1126 24.4627 46.5535Z" fill="#0A3B3C"/>
<path d="M31.662 49.1924C31.6578 49.6322 31.9867 49.9963 32.384 49.9919C32.7812 49.9875 33.1164 49.6179 33.1196 49.177C33.1227 48.7383 32.7949 48.3742 32.3976 48.3775C32.0004 48.3818 31.6652 48.7526 31.662 49.1924ZM14.8085 52.0045C14.8054 52.4454 15.1343 52.8084 15.5315 52.8051C15.9287 52.7997 16.2629 52.43 16.2671 51.9902C16.2703 51.5504 15.9414 51.1863 15.5441 51.1907C15.1469 51.1951 14.8127 51.5647 14.8085 52.0045ZM12.4462 49.3898C12.442 49.8285 12.7699 50.1926 13.1682 50.1893C13.5654 50.1849 13.8996 49.8142 13.9038 49.3744C13.9069 48.9346 13.578 48.5705 13.1808 48.5749C12.7836 48.5793 12.4494 48.9489 12.4452 49.3898H12.4462ZM17.2171 49.3404C17.2129 49.7802 17.5407 50.1433 17.939 50.1389C18.3362 50.1356 18.6704 49.766 18.6746 49.3251C18.6778 48.8853 18.3489 48.5222 17.9516 48.5255C17.5544 48.5299 17.2202 48.9006 17.216 49.3404H17.2171ZM19.5804 51.9573C19.5762 52.3982 19.9052 52.7613 20.3024 52.758C20.6996 52.7536 21.0348 52.3829 21.038 51.9431C21.0411 51.5033 20.7133 51.1391 20.316 51.1435C19.9188 51.1479 19.5836 51.5175 19.5804 51.9573ZM41.3582 38.4582C41.354 38.898 41.6829 39.2611 42.0801 39.2578C42.4774 39.2534 42.8126 38.8838 42.8157 38.4429C42.8199 38.0031 42.491 37.64 42.0938 37.6433C41.6966 37.6477 41.3614 38.0184 41.3582 38.4582Z" fill="#0A3B3C"/>
<path d="M31.6621 49.1926C31.6578 49.6324 31.9857 49.9965 32.384 49.9921C32.7812 49.9877 33.1154 49.6181 33.1196 49.1772C33.1227 48.7385 32.7949 48.3744 32.3976 48.3776C31.9994 48.382 31.6652 48.7527 31.6621 49.1926ZM31.7062 43.9127C31.702 44.3514 32.0298 44.7155 32.4281 44.7111C32.8253 44.7078 33.1595 44.3382 33.1637 43.8973C33.1669 43.4575 32.839 43.0934 32.4418 43.0978C32.0435 43.1022 31.7093 43.4718 31.7062 43.9116V43.9127ZM29.2766 41.2234C29.2735 41.6643 29.6024 42.0273 29.9996 42.024C30.3968 42.0186 30.7321 41.6489 30.7352 41.2091C30.7394 40.7693 30.4105 40.4052 30.0133 40.4085C29.6161 40.414 29.2808 40.7836 29.2777 41.2234H29.2766ZM36.5432 43.7876C36.5401 44.2275 36.869 44.5916 37.2662 44.5872C37.6634 44.5828 37.9976 44.2132 38.0018 43.7734C38.005 43.3325 37.6761 42.9695 37.2788 42.9727C36.8144 43.0517 36.5474 43.3478 36.5432 43.7876ZM34.1799 41.1729C34.1767 41.6116 34.5056 41.9758 34.9029 41.9714C35.3001 41.9681 35.6343 41.5985 35.6385 41.1576C35.6416 40.7178 35.3127 40.3536 34.9155 40.358C34.451 40.4359 34.1841 40.732 34.1799 41.1718V41.1729ZM31.7514 38.4836C31.7482 38.9246 32.0771 39.2876 32.4744 39.2843C32.8716 39.2788 33.2057 38.9092 33.21 38.4694C33.2131 38.0285 32.8842 37.6655 32.488 37.6687C32.0235 37.7477 31.7556 38.0438 31.7524 38.4836H31.7514ZM34.0685 46.5274C34.0653 46.9683 34.3943 47.3313 34.7915 47.328C35.1887 47.3225 35.5229 46.9529 35.5271 46.5131C35.5302 46.0722 35.2024 45.7092 34.8051 45.7125C34.4069 45.718 34.0727 46.0876 34.0695 46.5274H34.0685ZM38.9507 41.1236C38.9476 41.5623 39.2765 41.9264 39.6737 41.922C40.0709 41.9187 40.4051 41.5491 40.4093 41.1082C40.4125 40.6684 40.0835 40.3043 39.6863 40.3087C39.2891 40.3131 38.9549 40.6827 38.9507 41.1236ZM36.5874 38.5078C36.5842 38.9476 36.9131 39.3106 37.3104 39.3073C37.7076 39.3029 38.0417 38.9333 38.046 38.4924C38.0491 38.0526 37.7202 37.6896 37.323 37.6929C36.9257 37.6973 36.5916 38.068 36.5874 38.5078ZM34.1599 35.8196C34.1557 36.2583 34.4836 36.6224 34.8818 36.6191C35.2791 36.6147 35.6132 36.244 35.6174 35.8042C35.6206 35.3644 35.2917 35.0003 34.8955 35.0047C34.4972 35.0091 34.1631 35.3787 34.1599 35.8196ZM41.3582 38.4584C41.3551 38.8982 41.684 39.2613 42.0812 39.258C42.4784 39.2536 42.8126 38.884 42.8168 38.4431C42.8199 38.0033 42.491 37.6402 42.0938 37.6435C41.6966 37.6479 41.3624 38.0186 41.3582 38.4584ZM22.0983 43.9357C22.0951 44.3755 22.423 44.7396 22.8202 44.7353C23.2174 44.7309 23.5527 44.3613 23.5558 43.9204C23.56 43.4816 23.2311 43.1175 22.8339 43.1219C22.4367 43.1252 22.1014 43.4948 22.0983 43.9357ZM26.8912 49.2397C26.887 49.6795 27.2149 50.0436 27.6121 50.0393C28.0104 50.0349 28.3445 49.6653 28.3477 49.2244C28.3519 48.7856 28.023 48.4215 27.6257 48.4259C27.2285 48.4292 26.8944 48.7988 26.8902 49.2397H26.8912ZM24.4616 46.5515C24.4585 46.9913 24.7874 47.3544 25.1846 47.3511C25.5818 47.3467 25.916 46.976 25.9202 46.5362C25.9234 46.0964 25.5945 45.7333 25.1972 45.7366C24.8 45.741 24.4658 46.1106 24.4616 46.5515ZM24.5058 41.2716C24.5026 41.7104 24.8305 42.0745 25.2277 42.0701C25.6249 42.0657 25.9602 41.6961 25.9633 41.2563C25.9675 40.8154 25.6386 40.4524 25.2414 40.4556C24.8442 40.4611 24.5089 40.8307 24.5058 41.2706V41.2716ZM29.2976 46.5745C29.2945 47.0144 29.6224 47.3785 30.0196 47.3752C30.4178 47.3697 30.752 47.0001 30.7552 46.5603C30.7594 46.1194 30.4315 45.7564 30.0332 45.7596C29.636 45.7651 29.3018 46.1347 29.2976 46.5745ZM26.8702 43.8864C26.866 44.3262 27.1938 44.6903 27.5911 44.6859C27.9893 44.6815 28.3235 44.3119 28.3267 43.8721C28.3309 43.4312 28.003 43.0682 27.6047 43.0715C27.2075 43.0758 26.8733 43.4465 26.8691 43.8864H26.8702ZM22.1424 38.6558C22.1393 39.0945 22.4682 39.4587 22.8644 39.4543C23.2626 39.451 23.5968 39.0814 23.6 38.6405C23.6042 38.2007 23.2763 37.8365 22.878 37.8409C22.4808 37.8453 22.1466 38.2149 22.1424 38.6558ZM26.9133 38.6065C26.9101 39.0452 27.239 39.4093 27.6352 39.4049C28.0335 39.4016 28.3676 39.032 28.3708 38.5911C28.375 38.1513 28.0471 37.7872 27.6489 37.7916C27.2516 37.796 26.9175 38.1656 26.9133 38.6065Z" fill="#0A3B3C"/>
<path d="M31.662 49.1925C31.6578 49.6323 31.9857 49.9964 32.3829 49.992C32.7812 49.9876 33.1154 49.618 33.1185 49.1771C33.1227 48.7384 32.7948 48.3743 32.3966 48.3776C31.9994 48.382 31.6652 48.7527 31.661 49.1925H31.662ZM31.7051 43.9126C31.702 44.3513 32.0298 44.7154 32.427 44.7111C32.8253 44.7078 33.1595 44.3381 33.1626 43.8972C33.1668 43.4574 32.839 43.0933 32.4407 43.0977C32.0435 43.1021 31.7093 43.4717 31.7051 43.9115V43.9126ZM29.2766 41.2233C29.2735 41.6642 29.6024 42.0272 29.9996 42.024C30.3968 42.0185 30.731 41.6489 30.7352 41.2091C30.7383 40.7692 30.4094 40.4051 30.0122 40.4084C29.615 40.4139 29.2808 40.7835 29.2766 41.2233ZM12.4462 49.3899C12.442 49.8286 12.7709 50.1927 13.1682 50.1894C13.5654 50.1851 13.9006 49.8143 13.9038 49.3745C13.908 48.9347 13.579 48.5706 13.1818 48.575C12.7846 48.5794 12.4494 48.949 12.4462 49.3899ZM12.4904 44.1089C12.4862 44.5487 12.8151 44.9129 13.2123 44.9096C13.6095 44.9041 13.9447 44.5345 13.9479 44.0947C13.9521 43.6538 13.6232 43.2907 13.226 43.294C12.8287 43.2995 12.4935 43.6691 12.4904 44.1089ZM17.2171 49.3405C17.2139 49.7803 17.5418 50.1434 17.939 50.139C18.3362 50.1357 18.6714 49.7661 18.6746 49.3252C18.6788 48.8854 18.3499 48.5223 17.9527 48.5256C17.5554 48.53 17.2202 48.9007 17.2171 49.3405ZM17.2612 44.0596C17.2581 44.5005 17.5859 44.8635 17.9831 44.8602C18.3804 44.8547 18.7156 44.4851 18.7187 44.0453C18.7229 43.6044 18.394 43.2414 17.9968 43.2447C17.5996 43.2502 17.2644 43.6198 17.2612 44.0596ZM14.8979 41.4449C14.8947 41.8836 15.2226 42.2477 15.6198 42.2433C16.017 42.24 16.3522 41.8704 16.3554 41.4295C16.3596 40.9897 16.0307 40.6256 15.6334 40.63C15.2362 40.6343 14.901 41.004 14.8979 41.4438V41.4449ZM14.8537 46.7247C14.8506 47.1645 15.1784 47.5287 15.5757 47.5243C15.9729 47.5199 16.3081 47.1503 16.3112 46.7094C16.3154 46.2707 15.9865 45.9065 15.5893 45.9098C15.1921 45.9142 14.8569 46.2849 14.8537 46.7247ZM19.7349 41.3198C19.7318 41.7596 20.0607 42.1238 20.4579 42.1194C20.8551 42.115 21.1893 41.7454 21.1935 41.3056C21.1966 40.8647 20.8688 40.5016 20.4716 40.5049C20.0733 40.5104 19.7391 40.88 19.736 41.3198H19.7349ZM19.6246 46.6754C19.6204 47.1152 19.9493 47.4793 20.3465 47.4749C20.7437 47.4705 21.0779 47.1009 21.0821 46.66C21.0852 46.2213 20.7574 45.8572 20.3602 45.8616C19.9629 45.8649 19.6277 46.2345 19.6246 46.6754ZM12.4693 38.7556C12.4651 39.1965 12.7941 39.5595 13.1913 39.5562C13.5885 39.5507 13.9227 39.1811 13.9269 38.7413C13.93 38.3004 13.6022 37.9374 13.2049 37.9407C12.8067 37.9461 12.4725 38.3158 12.4693 38.7556ZM17.3726 38.7051C17.3684 39.1438 17.6973 39.508 18.0945 39.5036C18.4918 39.5003 18.8259 39.1307 18.8301 38.6898C18.8333 38.25 18.5054 37.8858 18.1082 37.8902C17.7099 37.8946 17.3758 38.2642 17.3726 38.704V38.7051ZM22.0993 43.9356C22.0951 44.3754 22.423 44.7396 22.8212 44.7352C23.2185 44.7308 23.5526 44.3612 23.5568 43.9203C23.56 43.4816 23.2311 43.1174 22.8339 43.1218C22.4366 43.1251 22.1025 43.4947 22.0983 43.9356H22.0993ZM22.1435 38.6558C22.1392 39.0945 22.4671 39.4586 22.8654 39.4542C23.2626 39.4509 23.5968 39.0813 23.601 38.6404C23.6041 38.2006 23.2752 37.8365 22.878 37.8409C22.4808 37.8452 22.1466 38.2149 22.1424 38.6558H22.1435ZM7.65436 44.0837C7.65016 44.5235 7.97803 44.8865 8.3763 44.8832C8.77352 44.8789 9.10769 44.5082 9.11189 44.0683C9.11504 43.6285 8.78718 43.2655 8.38996 43.2688C7.99169 43.2732 7.65752 43.6428 7.65436 44.0837ZM5.29101 41.4679C5.2868 41.9077 5.61467 42.2718 6.01294 42.2674C6.41016 42.2631 6.74433 41.8934 6.74853 41.4525C6.75169 41.0138 6.42382 40.6497 6.0266 40.6541C5.62833 40.6574 5.29416 41.027 5.29101 41.4679ZM10.0619 41.4185C10.0577 41.8583 10.3855 42.2225 10.7838 42.2181C11.181 42.2137 11.5152 41.8441 11.5194 41.4032C11.5225 40.9645 11.1947 40.6003 10.7974 40.6047C10.3992 40.608 10.065 40.9776 10.0619 41.4185ZM10.0829 46.7719C10.0787 47.2117 10.4076 47.5758 10.8048 47.5714C11.2031 47.5671 11.5372 47.1974 11.5404 46.7565C11.5446 46.3178 11.2157 45.9537 10.8185 45.9581C10.4212 45.9614 10.086 46.331 10.0829 46.7719ZM2.92765 38.8521C2.92345 39.2919 3.25236 39.656 3.64958 39.6516C4.0468 39.6472 4.38203 39.2776 4.38518 38.8378C4.38938 38.3969 4.06047 38.0339 3.66325 38.0372C3.26603 38.0427 2.9308 38.4123 2.92765 38.8521ZM7.6985 38.8038C7.6943 39.2425 8.02321 39.6067 8.42043 39.6023C8.81765 39.5979 9.15287 39.2283 9.15603 38.7885C9.16023 38.3476 8.83131 37.9845 8.43409 37.9878C8.03687 37.9933 7.70165 38.3629 7.6985 38.8027V38.8038Z" fill="#0A3B3C"/>
<path d="M12.4463 49.3878C12.4421 49.8276 12.771 50.1906 13.1682 50.1862C13.5654 50.1829 13.8996 49.8133 13.9038 49.3724C13.9069 48.9326 13.5791 48.5685 13.1819 48.5729C12.7836 48.5772 12.4494 48.9479 12.4463 49.3878ZM12.4904 44.1068C12.4862 44.5466 12.8151 44.9107 13.2123 44.9074C13.6096 44.9019 13.9448 44.5323 13.9479 44.0925C13.9521 43.6516 13.6232 43.2886 13.226 43.2919C12.8288 43.2974 12.4936 43.667 12.4904 44.1068ZM12.4683 38.7534C12.4652 39.1943 12.7941 39.5574 13.1913 39.5541C13.5885 39.5486 13.9227 39.179 13.9269 38.7392C13.9301 38.2994 13.6011 37.9352 13.2039 37.9396C12.8067 37.944 12.4725 38.3136 12.4683 38.7534ZM41.3582 38.4584C41.3551 38.8982 41.684 39.2612 42.0812 39.2579C42.4784 39.2536 42.8126 38.8839 42.8168 38.443C42.82 38.0032 42.491 37.6402 42.0938 37.6435C41.6966 37.6479 41.3624 38.0186 41.3582 38.4584ZM41.4034 33.1774C41.3992 33.6183 41.7281 33.9814 42.1254 33.9781C42.5226 33.9737 42.8567 33.603 42.8609 33.1632C42.8641 32.7234 42.5362 32.3592 42.139 32.3636C41.7407 32.368 41.4066 32.7376 41.4034 33.1774ZM38.9749 30.4903C38.9707 30.929 39.2996 31.2932 39.6968 31.2888C40.0941 31.2844 40.4282 30.9148 40.4324 30.475C40.4356 30.0341 40.1067 29.671 39.7105 29.6743C39.3122 29.6798 38.9781 30.0494 38.9749 30.4892V30.4903ZM46.2405 33.0535C46.2373 33.4933 46.5652 33.8574 46.9624 33.853C47.3607 33.8487 47.6948 33.479 47.698 33.0392C47.7022 32.5983 47.3733 32.2353 46.9761 32.2386C46.5788 32.243 46.2447 32.6137 46.2405 33.0535ZM43.8771 30.4377C43.874 30.8786 44.2018 31.2416 44.599 31.2383C44.9973 31.2329 45.3315 30.8632 45.3346 30.4234C45.3388 29.9825 45.011 29.6195 44.6127 29.6228C44.2155 29.6283 43.8813 29.9979 43.8771 30.4377ZM41.4486 27.7495C41.4455 28.1904 41.7744 28.5534 42.1716 28.5501C42.5688 28.5447 42.903 28.175 42.9072 27.7352C42.9103 27.2943 42.5814 26.9313 42.1842 26.9346C41.787 26.9401 41.4528 27.3097 41.4486 27.7495ZM43.7657 35.7932C43.7626 36.233 44.0915 36.5972 44.4887 36.5928C44.8859 36.5884 45.2201 36.2188 45.2243 35.779C45.2275 35.3381 44.8985 34.975 44.5013 34.9783C44.1041 34.9838 43.7699 35.3534 43.7657 35.7932ZM31.7955 33.2016C31.7913 33.6414 32.1202 34.0044 32.5175 34.0011C32.9157 33.9967 33.2499 33.6271 33.253 33.1862C33.2572 32.7464 32.9283 32.3834 32.5311 32.3867C32.1339 32.391 31.7997 32.7618 31.7955 33.2016ZM36.5874 38.5056C36.5842 38.9454 36.9121 39.3084 37.3093 39.3051C37.7076 39.3007 38.0418 38.93 38.0449 38.4902C38.0491 38.0504 37.7202 37.6874 37.323 37.6907C36.9258 37.695 36.5916 38.0658 36.5874 38.5056ZM34.1589 35.8174C34.1557 36.2561 34.4846 36.6202 34.8819 36.6169C35.2791 36.6125 35.6133 36.2418 35.6175 35.802C35.6206 35.3622 35.2917 34.9981 34.8945 35.0025C34.4973 35.0069 34.1631 35.3765 34.1589 35.8174ZM34.203 30.5364C34.1999 30.9773 34.5277 31.3403 34.9249 31.3359C35.3232 31.3316 35.6574 30.9619 35.6605 30.521C35.6647 30.0823 35.3358 29.7182 34.9386 29.7226C34.5414 29.7259 34.2072 30.0966 34.203 30.5364ZM38.9949 35.8404C38.9917 36.2802 39.3196 36.6443 39.7168 36.6399C40.1151 36.6356 40.4492 36.2659 40.4524 35.8261C40.4566 35.3852 40.1287 35.0222 39.7305 35.0255C39.3332 35.0299 38.9991 35.4006 38.9949 35.8404ZM36.5664 33.1522C36.5632 33.592 36.8921 33.9561 37.2894 33.9518C37.6866 33.9474 38.0207 33.5778 38.0249 33.1368C38.0281 32.6981 37.6992 32.334 37.302 32.3373C36.9047 32.3417 36.5706 32.7124 36.5664 33.1522ZM31.8407 27.9206C31.8365 28.3615 32.1644 28.7245 32.5616 28.7212C32.9599 28.7158 33.294 28.3461 33.2972 27.9063C33.3014 27.4665 32.9735 27.1024 32.5753 27.1068C32.178 27.1112 31.8439 27.4808 31.8397 27.9206H31.8407ZM36.6116 27.8723C36.6074 28.311 36.9352 28.6752 37.3324 28.6708C37.7307 28.6675 38.0649 28.2979 38.068 27.857C38.0722 27.4172 37.7444 27.053 37.3461 27.0574C36.9489 27.0618 36.6147 27.4314 36.6105 27.8712L36.6116 27.8723Z" fill="#0A3B3C"/>
<path d="M41.3582 38.4583C41.355 38.8981 41.6829 39.2612 42.0801 39.2579C42.4784 39.2535 42.8126 38.8839 42.8157 38.443C42.8199 38.0032 42.491 37.6401 42.0938 37.6434C41.6966 37.6478 41.3624 38.0185 41.3582 38.4583ZM41.4034 33.1774C41.3992 33.6183 41.727 33.9813 42.1243 33.978C42.5225 33.9736 42.8567 33.6029 42.8598 33.1631C42.864 32.7233 42.5351 32.3592 42.1379 32.3636C41.7407 32.368 41.4065 32.7376 41.4023 33.1774H41.4034ZM38.9738 30.4903C38.9707 30.929 39.2996 31.2931 39.6968 31.2887C40.094 31.2843 40.4282 30.9147 40.4324 30.4749C40.4355 30.034 40.1066 29.671 39.7094 29.6743C39.3122 29.6798 38.978 30.0494 38.9738 30.4892V30.4903ZM22.1434 38.6558C22.1392 39.0945 22.4671 39.4586 22.8654 39.4542C23.2626 39.4509 23.5968 39.0813 23.601 38.6404C23.6041 38.2006 23.2752 37.8365 22.878 37.8409C22.4808 37.8452 22.1466 38.2149 22.1424 38.6558H22.1434ZM22.1865 33.3748C22.1834 33.8146 22.5123 34.1787 22.9095 34.1743C23.3067 34.17 23.6409 33.8003 23.6451 33.3605C23.6483 32.9196 23.3193 32.5566 22.9221 32.5599C22.5249 32.5643 22.1907 32.935 22.1865 33.3748ZM26.9132 38.6064C26.9101 39.0451 27.239 39.4092 27.6352 39.4049C28.0334 39.4016 28.3676 39.032 28.3708 38.5911C28.375 38.1512 28.0471 37.7871 27.6488 37.7915C27.2516 37.7959 26.9174 38.1655 26.9132 38.6064ZM27.0246 33.2509C27.0215 33.6907 27.3493 34.0537 27.7466 34.0504C28.1438 34.046 28.479 33.6753 28.4821 33.2355C28.4864 32.7957 28.1574 32.4327 27.7602 32.436C27.2957 32.5149 27.0278 32.8111 27.0246 33.2509ZM24.6613 30.6351C24.6581 31.0749 24.987 31.439 25.3832 31.4346C25.7815 31.4302 26.1156 31.0606 26.1188 30.6208C26.123 30.1799 25.7951 29.8169 25.3969 29.8201C24.9324 29.8991 24.6655 30.1952 24.6613 30.6351ZM24.5499 35.9906C24.5467 36.4304 24.8756 36.7934 25.2718 36.7901C25.6701 36.7858 26.0043 36.4161 26.0074 35.9752C26.0116 35.5354 25.6837 35.1724 25.2855 35.1757C24.8883 35.1801 24.5541 35.5508 24.5499 35.9906ZM29.4321 30.5857C29.429 31.0255 29.7568 31.3896 30.154 31.3852C30.5513 31.3809 30.8865 31.0112 30.8896 30.5714C30.8938 30.1305 30.5649 29.7675 30.1677 29.7708C29.7705 29.7752 29.4363 30.1459 29.4321 30.5857ZM29.388 35.8689C29.3838 36.3076 29.7127 36.6717 30.1099 36.6673C30.5082 36.664 30.8424 36.2944 30.8455 35.8535C30.8497 35.4137 30.5208 35.0496 30.1236 35.054C29.6591 35.1318 29.3911 35.428 29.388 35.8689ZM22.2328 27.9458C22.2286 28.3867 22.5575 28.7497 22.9547 28.7464C23.3519 28.742 23.6871 28.3724 23.6903 27.9315C23.6945 27.4917 23.3656 27.1287 22.9684 27.132C22.5039 27.2109 22.2359 27.5071 22.2328 27.9469V27.9458ZM27.0698 27.9699C27.0656 28.4108 27.3935 28.7738 27.7907 28.7705C28.189 28.7651 28.5231 28.3954 28.5263 27.9556C28.5305 27.5147 28.2026 27.1517 27.8044 27.155C27.4071 27.1605 27.073 27.5301 27.0688 27.9699H27.0698ZM31.7955 33.2015C31.7913 33.6413 32.1202 34.0043 32.5174 34.0011C32.9157 33.9967 33.2498 33.6271 33.253 33.1861C33.2572 32.7463 32.9283 32.3833 32.5311 32.3866C32.1338 32.391 31.7997 32.7617 31.7955 33.2015ZM31.8396 27.9205C31.8365 28.3614 32.1643 28.7245 32.5615 28.7212C32.9588 28.7157 33.294 28.3461 33.2971 27.9063C33.3013 27.4665 32.9724 27.1023 32.5752 27.1067C32.178 27.1111 31.8438 27.4807 31.8396 27.9205ZM12.4683 38.7534C12.4651 39.1943 12.794 39.5573 13.1913 39.554C13.5885 39.5485 13.9227 39.1789 13.9269 38.7391C13.93 38.2993 13.6011 37.9352 13.2039 37.9396C12.8067 37.944 12.4725 38.3136 12.4683 38.7534ZM12.5797 33.3989C12.5765 33.8376 12.9054 34.2018 13.3027 34.1974C13.6999 34.1941 14.034 33.8245 14.0383 33.3836C14.0414 32.9438 13.7125 32.5796 13.3153 32.584C12.918 32.5884 12.5839 32.958 12.5797 33.3989ZM17.3726 38.7029C17.3684 39.1416 17.6963 39.5058 18.0945 39.5014C18.4917 39.4981 18.8259 39.1285 18.8301 38.6876C18.8333 38.2478 18.5044 37.8836 18.1071 37.888C17.7099 37.8924 17.3757 38.262 17.3715 38.7018L17.3726 38.7029ZM17.3505 33.3496C17.3474 33.7883 17.6752 34.1524 18.0725 34.1491C18.4707 34.1447 18.8049 33.774 18.808 33.3342C18.8123 32.8944 18.4844 32.5303 18.0861 32.5347C17.6889 32.5391 17.3547 32.9087 17.3505 33.3496ZM14.9872 30.7338C14.984 31.1736 15.3119 31.5366 15.7091 31.5333C16.1074 31.5289 16.4415 31.1593 16.4447 30.7184C16.4489 30.2786 16.121 29.9156 15.7228 29.9189C15.3255 29.9232 14.9914 30.294 14.9872 30.7338ZM14.943 36.0136C14.9388 36.4545 15.2677 36.8176 15.665 36.8143C16.0622 36.8088 16.3974 36.4392 16.4006 35.9994C16.4048 35.5585 16.0758 35.1954 15.6786 35.1987C15.2814 35.2042 14.9462 35.5738 14.943 36.0136ZM19.758 30.6844C19.7549 31.1242 20.0827 31.4872 20.4799 31.484C20.8782 31.4796 21.2124 31.11 21.2155 30.6691C21.2197 30.2303 20.8919 29.8662 20.4936 29.8695C20.0964 29.8739 19.7622 30.2446 19.758 30.6844ZM19.7801 36.0378C19.7759 36.4776 20.1037 36.8406 20.502 36.8373C20.8992 36.8329 21.2334 36.4622 21.2376 36.0224C21.2408 35.5826 20.9118 35.2196 20.5146 35.2229C20.1174 35.2272 19.7832 35.598 19.779 36.0378H19.7801ZM12.6238 28.1212C12.6207 28.56 12.9496 28.9241 13.3468 28.9197C13.744 28.9153 14.0782 28.5457 14.0824 28.1048C14.0855 27.6661 13.7566 27.302 13.3594 27.3063C12.9622 27.3096 12.628 27.6792 12.6238 28.1201V28.1212ZM17.3947 28.0708C17.3915 28.5106 17.7204 28.8747 18.1176 28.8703C18.5149 28.866 18.849 28.4963 18.8532 28.0565C18.8564 27.6156 18.5275 27.2526 18.1303 27.2559C17.733 27.2603 17.3989 27.631 17.3947 28.0708Z" fill="#0A3B3C"/>
<path d="M22.1424 38.6557C22.1392 39.0944 22.4682 39.4585 22.8643 39.4541C23.2626 39.4508 23.5968 39.0812 23.5999 38.6403C23.6041 38.2005 23.2763 37.8364 22.878 37.8408C22.4808 37.8451 22.1466 38.2148 22.1424 38.6557ZM22.1865 33.3747C22.1834 33.8145 22.5123 34.1786 22.9095 34.1742C23.3067 34.1699 23.6409 33.8002 23.6451 33.3604C23.6483 32.9195 23.3193 32.5565 22.9221 32.5598C22.5249 32.5642 22.1907 32.9349 22.1865 33.3747ZM22.2328 27.9457C22.2286 28.3866 22.5564 28.7496 22.9547 28.7463C23.3519 28.7419 23.6861 28.3723 23.6903 27.9314C23.6934 27.4916 23.3656 27.1286 22.9684 27.1319C22.5039 27.2108 22.2359 27.507 22.2328 27.9468V27.9457ZM2.92765 38.852C2.92345 39.2918 3.25131 39.6559 3.64958 39.6515C4.0468 39.6471 4.38097 39.2775 4.38518 38.8377C4.38833 38.3968 4.06047 38.0338 3.66325 38.0371C3.26497 38.0426 2.9308 38.4122 2.92765 38.852ZM7.69745 38.8037C7.6943 39.2424 8.02321 39.6066 8.42043 39.6022C8.81765 39.5978 9.15182 39.2282 9.15602 38.7884C9.15918 38.3475 8.83026 37.9844 8.43304 37.9877C8.03582 37.9932 7.70165 38.3628 7.69745 38.8026V38.8037ZM7.74263 33.5228C7.73843 33.9626 8.0663 34.3256 8.46457 34.3223C8.86179 34.3179 9.19596 33.9483 9.20016 33.5074C9.20331 33.0676 8.87545 32.7046 8.47823 32.7079C8.07996 32.7122 7.74579 33.083 7.74263 33.5228ZM5.33514 36.1879C5.33094 36.6266 5.6588 36.9908 6.05708 36.9864C6.4543 36.9831 6.78847 36.6135 6.79267 36.1726C6.79582 35.7328 6.46796 35.3686 6.07074 35.373C5.67247 35.3774 5.3383 35.747 5.33514 36.1879ZM10.2163 30.783C10.2132 31.2228 10.5421 31.5859 10.9393 31.5826C11.3365 31.5782 11.6707 31.2075 11.6749 30.7677C11.6781 30.3279 11.3491 29.9648 10.9519 29.9681C10.5547 29.9725 10.2205 30.3432 10.2163 30.783ZM10.106 36.1386C10.1018 36.5773 10.4297 36.9414 10.8279 36.937C11.2251 36.9337 11.5593 36.5641 11.5635 36.1232C11.5667 35.6834 11.2388 35.3193 10.8416 35.3237C10.4433 35.328 10.1091 35.6977 10.106 36.1386ZM12.4683 38.7522C12.4651 39.1909 12.7941 39.555 13.1913 39.5506C13.5885 39.5462 13.9227 39.1766 13.9269 38.7368C13.93 38.2959 13.6011 37.9329 13.2039 37.9373C12.8067 37.9417 12.4725 38.3113 12.4683 38.7511V38.7522ZM12.5797 33.3988C12.5765 33.8375 12.9044 34.2017 13.3016 34.1973C13.6999 34.194 14.0341 33.8244 14.0372 33.3835C14.0414 32.9437 13.7125 32.5795 13.3153 32.5839C12.9181 32.5883 12.5839 32.9579 12.5797 33.3988ZM12.6238 28.1179C12.6207 28.5577 12.9496 28.9218 13.3468 28.9174C13.744 28.913 14.0782 28.5434 14.0824 28.1036C14.0856 27.6627 13.7566 27.2997 13.3594 27.303C12.9622 27.3073 12.628 27.678 12.6238 28.1179ZM31.8407 27.9204C31.8365 28.3613 32.1643 28.7244 32.5616 28.7211C32.9598 28.7156 33.294 28.346 33.2971 27.9062C33.3013 27.4664 32.9735 27.1022 32.5752 27.1066C32.178 27.111 31.8438 27.4806 31.8396 27.9204H31.8407ZM31.8838 22.6406C31.8806 23.0804 32.2095 23.4445 32.6067 23.4401C33.004 23.4357 33.3381 23.0661 33.3423 22.6252C33.3455 22.1865 33.0166 21.8224 32.6193 21.8257C32.2221 21.83 31.888 22.2008 31.8838 22.6406ZM36.6115 27.8722C36.6073 28.3109 36.9352 28.675 37.3324 28.6706C37.7296 28.6673 38.0648 28.2977 38.068 27.8568C38.0722 27.417 37.7433 27.0529 37.3461 27.0573C36.9488 27.0617 36.6147 27.4313 36.6105 27.8711L36.6115 27.8722ZM36.7219 22.5166C36.7177 22.9564 37.0466 23.3195 37.4438 23.3162C37.8421 23.3118 38.1762 22.9411 38.1794 22.5013C38.1836 22.0615 37.8547 21.6984 37.4574 21.7017C37.0602 21.7061 36.725 22.0757 36.7219 22.5166ZM34.3585 19.9008C34.3553 20.3406 34.6832 20.7048 35.0804 20.7004C35.4776 20.696 35.8129 20.3264 35.816 19.8855C35.8202 19.4468 35.4913 19.0826 35.0941 19.0859C34.6969 19.0903 34.3617 19.461 34.3585 19.9008ZM34.2471 25.2564C34.244 25.6962 34.5729 26.0592 34.969 26.0559C35.3673 26.0515 35.7015 25.6808 35.7046 25.241C35.7088 24.8012 35.381 24.4382 34.9827 24.4415C34.5855 24.4459 34.2513 24.8155 34.2471 25.2564ZM39.0852 25.1324C39.081 25.5711 39.4089 25.9353 39.8071 25.9309C40.2044 25.9276 40.5385 25.558 40.5427 25.1171C40.5459 24.6773 40.217 24.3131 39.8208 24.3175C39.4225 24.3219 39.0884 24.6915 39.0852 25.1313V25.1324ZM31.93 17.2126C31.9258 17.6524 32.2537 18.0155 32.6519 18.0122C33.0491 18.0078 33.3833 17.6371 33.3875 17.1973C33.3907 16.7575 33.0628 16.3944 32.6656 16.3977C32.2673 16.4021 31.9331 16.7717 31.93 17.2126Z" fill="#0A3B3C"/>
<path d="M22.2328 27.9446C22.2297 28.3844 22.5575 28.7485 22.9547 28.7441C23.353 28.7397 23.6872 28.3701 23.6903 27.9292C23.6945 27.4894 23.3667 27.1264 22.9684 27.1297C22.5039 27.2086 22.237 27.5048 22.2328 27.9446ZM22.278 22.6647C22.2738 23.1034 22.6017 23.4675 22.9999 23.4631C23.3972 23.4599 23.7313 23.0902 23.7355 22.6493C23.7387 22.2095 23.4098 21.8454 23.0125 21.8498C22.6153 21.8542 22.2811 22.2238 22.2769 22.6636L22.278 22.6647ZM27.0699 27.9676C27.0657 28.4085 27.3935 28.7715 27.7918 28.7682C28.189 28.7639 28.5232 28.3931 28.5274 27.9533C28.5305 27.5135 28.2016 27.1494 27.8044 27.1538C27.4072 27.1582 27.073 27.5278 27.0688 27.9676H27.0699ZM27.0488 22.6153C27.0446 23.0541 27.3725 23.4182 27.7697 23.4138C28.168 23.4105 28.5022 23.0409 28.5053 22.6C28.5095 22.1602 28.1817 21.7961 27.7834 21.8004C27.3862 21.8048 27.052 22.1744 27.0478 22.6153H27.0488ZM24.6844 19.9995C24.6813 20.4393 25.0092 20.8024 25.4064 20.7991C25.8046 20.7947 26.1388 20.424 26.142 19.9842C26.1462 19.5444 25.8183 19.1813 25.42 19.1846C25.0228 19.189 24.6886 19.5597 24.6844 19.9995ZM24.6403 25.2805C24.6372 25.7192 24.965 26.0833 25.3622 26.079C25.7595 26.0746 26.0947 25.705 26.0978 25.2651C26.102 24.8242 25.7731 24.4612 25.3759 24.4645C24.9787 24.47 24.6435 24.8396 24.6403 25.2794V25.2805ZM29.4553 19.9502C29.4521 20.39 29.781 20.753 30.1772 20.7497C30.5755 20.7453 30.9097 20.3757 30.9128 19.9348C30.917 19.495 30.5892 19.132 30.1909 19.1353C29.7937 19.1397 29.4595 19.5104 29.4553 19.9502ZM29.4763 25.3024C29.4732 25.7433 29.8021 26.1064 30.1993 26.1031C30.5965 26.0987 30.9307 25.728 30.9349 25.2882C30.938 24.8484 30.6091 24.4853 30.2119 24.4886C29.8147 24.493 29.4805 24.8626 29.4763 25.3035V25.3024ZM22.3211 17.3859C22.3179 17.8257 22.6458 18.1888 23.043 18.1855C23.4413 18.1811 23.7755 17.8115 23.7786 17.3706C23.7828 16.9319 23.4549 16.5677 23.0567 16.5721C22.6595 16.5754 22.3253 16.945 22.3211 17.3859ZM27.0919 17.3366C27.0888 17.7764 27.4166 18.1405 27.8139 18.1361C28.2121 18.1317 28.5463 17.7621 28.5495 17.3212C28.5537 16.8825 28.2258 16.5184 27.8275 16.5228C27.4303 16.526 27.0961 16.8957 27.0919 17.3366ZM31.8407 27.9204C31.8365 28.3613 32.1644 28.7244 32.5616 28.7211C32.9599 28.7156 33.294 28.346 33.2972 27.9062C33.3014 27.4664 32.9735 27.1022 32.5753 27.1066C32.178 27.111 31.8439 27.4806 31.8397 27.9204H31.8407ZM31.8838 22.6406C31.8806 23.0804 32.2096 23.4445 32.6068 23.4401C33.004 23.4357 33.3382 23.0661 33.3424 22.6252C33.3455 22.1865 33.0166 21.8224 32.6194 21.8257C32.2222 21.83 31.888 22.2008 31.8838 22.6406ZM31.93 17.2126C31.9258 17.6524 32.2537 18.0155 32.652 18.0122C33.0492 18.0078 33.3834 17.6371 33.3876 17.1973C33.3907 16.7575 33.0628 16.3944 32.6656 16.3977C32.2674 16.4021 31.9332 16.7717 31.93 17.2126ZM12.6239 28.1211C12.6207 28.5599 12.9496 28.924 13.3468 28.9196C13.7441 28.9152 14.0782 28.5456 14.0824 28.1047C14.0856 27.666 13.7567 27.3019 13.3595 27.3062C12.9622 27.3095 12.6281 27.6791 12.6239 28.12V28.1211ZM17.3947 28.0707C17.3916 28.5105 17.7194 28.8746 18.1166 28.8702C18.5149 28.8659 18.8491 28.4962 18.8522 28.0564C18.8564 27.6155 18.5275 27.2525 18.1303 27.2558C17.7331 27.2602 17.3989 27.6309 17.3947 28.0707ZM17.5072 22.7151C17.5029 23.1561 17.8308 23.5191 18.228 23.5158C18.6263 23.5103 18.9605 23.1407 18.9636 22.7009C18.9678 22.26 18.64 21.897 18.2417 21.9002C17.7772 21.9792 17.5103 22.2753 17.5061 22.7151H17.5072ZM15.0314 25.456C15.0282 25.8947 15.3571 26.2588 15.7543 26.2544C16.1516 26.2511 16.4857 25.8804 16.4899 25.4406C16.4931 24.9997 16.1642 24.6367 15.7669 24.6411C15.3697 24.6455 15.0356 25.0151 15.0314 25.4549V25.456ZM19.9136 20.0511C19.9104 20.4898 20.2383 20.8539 20.6355 20.8506C21.0338 20.8462 21.368 20.4755 21.3711 20.0357C21.3753 19.5959 21.0475 19.2318 20.6492 19.2362C20.252 19.2406 19.9178 19.6102 19.9136 20.0511ZM19.8695 25.331C19.8653 25.7708 20.1942 26.1349 20.5914 26.1305C20.9886 26.1261 21.3238 25.7565 21.327 25.3167C21.3312 24.8758 21.0023 24.5128 20.605 24.5161C20.1406 24.595 19.8726 24.8911 19.8695 25.331Z" fill="#0A3B3C"/>
<path d="M22.2328 27.9457C22.2286 28.3866 22.5564 28.7496 22.9547 28.7463C23.3519 28.7419 23.6861 28.3723 23.6903 27.9314C23.6934 27.4916 23.3656 27.1286 22.9684 27.1319C22.5039 27.2108 22.2359 27.507 22.2328 27.9468V27.9457ZM22.2769 22.6658C22.2727 23.1067 22.6016 23.4697 22.9988 23.4664C23.3961 23.461 23.7313 23.0913 23.7344 22.6515C23.7386 22.2117 23.4097 21.8476 23.0125 21.852C22.6153 21.8564 22.2801 22.226 22.2769 22.6658ZM22.321 17.3859C22.3179 17.8257 22.6457 18.1888 23.043 18.1855C23.4412 18.1811 23.7754 17.8115 23.7786 17.3706C23.7828 16.9319 23.4549 16.5677 23.0566 16.5721C22.6594 16.5754 22.3252 16.945 22.321 17.3859ZM31.93 17.2126C31.9258 17.6524 32.2536 18.0155 32.6519 18.0122C33.0491 18.0078 33.3833 17.6371 33.3875 17.1973C33.3907 16.7575 33.0628 16.3944 32.6656 16.3977C32.2673 16.4021 31.9331 16.7717 31.93 17.2126Z" fill="#0A3B3C"/>
<path d="M22.3211 17.3861C22.3179 17.8259 22.6458 18.1889 23.043 18.1856C23.4413 18.1812 23.7754 17.8116 23.7786 17.3707C23.7828 16.932 23.4549 16.5679 23.0567 16.5723C22.6594 16.5756 22.3253 16.9452 22.3211 17.3861ZM27.0919 17.3367C27.0888 17.7765 27.4166 18.1407 27.8138 18.1363C28.2121 18.1319 28.5463 17.7623 28.5494 17.3214C28.5536 16.8827 28.2258 16.5185 27.8275 16.5229C27.4303 16.5262 27.0961 16.8958 27.0919 17.3367ZM27.2033 11.9812C27.1991 12.4221 27.528 12.7851 27.9252 12.7807C28.3225 12.7763 28.6577 12.4067 28.6608 11.9669C28.665 11.526 28.3361 11.163 27.9389 11.1663C27.5417 11.1718 27.2065 11.5414 27.2033 11.9812ZM24.7286 14.7209C24.7254 15.1618 25.0533 15.5249 25.4505 15.5216C25.8488 15.5161 26.1829 15.1465 26.1861 14.7067C26.1903 14.2658 25.8624 13.9027 25.4642 13.906C25.0669 13.9115 24.7328 14.2811 24.7286 14.7209ZM29.5667 14.597C29.5625 15.0368 29.8914 15.3998 30.2886 15.3965C30.6858 15.3922 31.02 15.0225 31.0242 14.5816C31.0273 14.1429 30.6995 13.7788 30.3023 13.7832C29.904 13.7865 29.5698 14.1561 29.5667 14.597ZM31.929 17.215C31.9258 17.6548 32.2547 18.0178 32.652 18.0134C33.0492 18.0102 33.3833 17.6405 33.3875 17.1996C33.3907 16.7598 33.0618 16.3968 32.6646 16.4001C32.2673 16.4045 31.9332 16.7741 31.929 17.215ZM58.4114 19.5818C58.4072 20.0216 58.7361 20.3858 59.1333 20.3814C59.5305 20.377 59.8657 20.0074 59.8689 19.5665C59.8731 19.1267 59.5442 18.7636 59.147 18.7669C58.7497 18.7713 58.4145 19.142 58.4114 19.5818ZM48.7152 30.316C48.711 30.7558 49.0389 31.1199 49.4371 31.1155C49.8344 31.1111 50.1685 30.7415 50.1727 30.3006C50.1759 29.8619 49.848 29.4978 49.4508 29.5022C49.0525 29.5054 48.7184 29.8751 48.7152 30.316ZM48.7593 25.0361C48.7551 25.4748 49.0841 25.8389 49.4813 25.8345C49.8785 25.8313 50.2127 25.4616 50.2169 25.0207C50.22 24.5809 49.8922 24.2168 49.4949 24.2212C49.0967 24.2256 48.7625 24.5952 48.7593 25.0361ZM46.3308 22.3468C46.3266 22.7877 46.6555 23.1507 47.0528 23.1474C47.45 23.1431 47.7852 22.7723 47.7884 22.3325C47.7926 21.8927 47.4636 21.5286 47.0664 21.533C46.6682 21.5374 46.334 21.907 46.3308 22.3468ZM53.5302 24.9867C53.526 25.4254 53.8549 25.7896 54.2521 25.7863C54.6493 25.7819 54.9846 25.4112 54.9877 24.9714C54.9919 24.5316 54.663 24.1674 54.2658 24.1718C53.8686 24.1762 53.5333 24.5458 53.5302 24.9867ZM51.1658 22.3709C51.1626 22.8107 51.4915 23.1749 51.8888 23.1705C52.286 23.1661 52.6212 22.7965 52.6244 22.3556C52.6286 21.9169 52.2996 21.5527 51.9024 21.556C51.5052 21.5604 51.17 21.9311 51.1668 22.3709H51.1658ZM48.7383 19.6827C48.7352 20.1225 49.063 20.4856 49.4603 20.4823C49.8585 20.4779 50.1927 20.1072 50.1958 19.6674C50.2001 19.2276 49.8711 18.8645 49.4739 18.8678C49.0767 18.8722 48.7425 19.2418 48.7383 19.6827ZM51.1227 27.6508C51.1185 28.0917 51.4474 28.4547 51.8446 28.4514C52.2418 28.446 52.576 28.0763 52.5802 27.6365C52.5834 27.1956 52.2555 26.8326 51.8583 26.8359C51.46 26.8414 51.1258 27.211 51.1227 27.6508ZM56.0039 22.247C56.0007 22.6857 56.3296 23.0498 56.7269 23.0454C57.1241 23.0422 57.4583 22.6725 57.4625 22.2316C57.4656 21.7918 57.1367 21.4277 56.7395 21.4321C56.3423 21.4365 56.0081 21.8061 56.0039 22.247ZM53.6416 19.6312C53.6374 20.071 53.9663 20.434 54.3635 20.4307C54.7607 20.4263 55.0949 20.0567 55.0991 19.6158C55.1023 19.176 54.7744 18.813 54.3772 18.8163C53.9789 18.8207 53.6447 19.1914 53.6416 19.6312ZM51.2131 16.943C51.2089 17.3817 51.5378 17.7458 51.935 17.7425C52.3322 17.7382 52.6664 17.3674 52.6706 16.9276C52.6737 16.4878 52.3448 16.1248 51.9487 16.1281C51.5504 16.1325 51.2162 16.5021 51.2131 16.943Z" fill="#0A3B3C"/>
<path d="M58.4114 19.5818C58.4082 20.0216 58.7371 20.3857 59.1343 20.3813C59.5316 20.3769 59.8657 20.0073 59.8699 19.5664C59.8731 19.1266 59.5442 18.7636 59.1469 18.7669C58.7497 18.7713 58.4156 19.142 58.4114 19.5818ZM41.5589 22.3939C41.5558 22.8348 41.8847 23.1978 42.2808 23.1945C42.6791 23.1891 43.0133 22.8194 43.0164 22.3796C43.0206 21.9387 42.6928 21.5757 42.2945 21.579C41.8973 21.5845 41.5631 21.9541 41.5589 22.3939ZM46.3508 27.6979C46.3476 28.1388 46.6765 28.5018 47.0738 28.4985C47.471 28.4931 47.8051 28.1234 47.8094 27.6836C47.8125 27.2438 47.4836 26.8797 47.0864 26.883C46.6891 26.8885 46.355 27.2581 46.3508 27.6979ZM43.9233 25.0097C43.9191 25.4495 44.247 25.8136 44.6453 25.8093C45.0425 25.8049 45.3766 25.4353 45.3808 24.9954C45.384 24.5545 45.0551 24.1915 44.6589 24.1948C44.2606 24.1992 43.9265 24.5699 43.9233 25.0097ZM39.1966 19.7792C39.1924 20.2179 39.5203 20.582 39.9175 20.5776C40.3158 20.5744 40.6499 20.2047 40.6531 19.7638C40.6573 19.324 40.3294 18.9599 39.9312 18.9643C39.5339 18.9687 39.1998 19.3383 39.1956 19.7792H39.1966ZM43.9675 19.7298C43.9633 20.1696 44.2911 20.5327 44.6883 20.5294C45.0866 20.525 45.4208 20.1543 45.4239 19.7145C45.4281 19.2747 45.1003 18.9105 44.702 18.9149C44.3048 18.9193 43.9706 19.2889 43.9664 19.7298H43.9675ZM48.7141 30.3159C48.711 30.7557 49.0399 31.1198 49.4371 31.1154C49.8343 31.1111 50.1685 30.7414 50.1727 30.3005C50.1759 29.8618 49.8469 29.4977 49.4497 29.5021C49.0525 29.5054 48.7183 29.875 48.7141 30.3159ZM48.7593 25.036C48.7551 25.4747 49.083 25.8389 49.4813 25.8345C49.8785 25.8312 50.2126 25.4616 50.2168 25.0207C50.22 24.5809 49.8911 24.2167 49.4939 24.2211C49.0966 24.2255 48.7625 24.5951 48.7583 25.036H48.7593ZM46.3308 22.3467C46.3266 22.7876 46.6555 23.1507 47.0527 23.1474C47.45 23.143 47.7841 22.7723 47.7883 22.3325C47.7915 21.8927 47.4626 21.5285 47.0664 21.5329C46.6681 21.5373 46.334 21.9069 46.3308 22.3467Z" fill="#0A3B3C"/>
<path d="M58.4114 19.5817C58.4082 20.0215 58.7371 20.3856 59.1344 20.3812C59.5316 20.3769 59.8658 20.0072 59.87 19.5663C59.8731 19.1265 59.5442 18.7635 59.147 18.7668C58.7498 18.7712 58.4156 19.1419 58.4114 19.5817ZM58.4555 14.3018C58.4524 14.7405 58.7813 15.1047 59.1785 15.1003C59.5757 15.097 59.9099 14.7274 59.9141 14.2865C59.9172 13.8467 59.5883 13.4825 59.1911 13.4869C58.7939 13.4913 58.4597 13.8609 58.4555 14.3007V14.3018ZM56.0281 11.6125C56.0239 12.0534 56.3528 12.4165 56.75 12.4132C57.1472 12.4077 57.4814 12.0381 57.4856 11.5983C57.4887 11.1585 57.1609 10.7943 56.7637 10.7976C56.3654 10.8031 56.0312 11.1727 56.0281 11.6125ZM58.5018 8.87279C58.4986 9.31369 58.8275 9.67672 59.2247 9.67343C59.622 9.66795 59.9561 9.29833 59.9603 8.85853C59.9635 8.41762 59.6346 8.05459 59.2373 8.05788C58.7729 8.13685 58.506 8.43298 58.5018 8.87279ZM48.8487 14.3249C48.8445 14.7647 49.1734 15.1277 49.5706 15.1244C49.9678 15.12 50.303 14.7504 50.3062 14.3095C50.3104 13.8697 49.9815 13.5067 49.5843 13.5099C49.186 13.5143 48.8518 13.885 48.8487 14.3249ZM53.6405 19.6288C53.6363 20.0687 53.9652 20.4328 54.3625 20.4284C54.7597 20.424 55.0949 20.0544 55.0981 19.6135C55.1023 19.1748 54.7733 18.8107 54.3761 18.8139C53.9789 18.8183 53.6437 19.189 53.6405 19.6288ZM51.212 16.9407C51.2089 17.3805 51.5367 17.7435 51.934 17.7402C52.3322 17.7358 52.6664 17.3651 52.6696 16.9253C52.6738 16.4855 52.3448 16.1225 51.9476 16.1258C51.5504 16.1301 51.2162 16.4998 51.212 16.9407ZM51.2562 11.6597C51.253 12.1006 51.5809 12.4636 51.9781 12.4603C52.3764 12.4549 52.7105 12.0852 52.7137 11.6454C52.7179 11.2045 52.389 10.8415 51.9918 10.8448C51.5945 10.8503 51.2604 11.2199 51.2562 11.6597ZM56.048 16.9637C56.0438 17.4035 56.3727 17.7676 56.77 17.7643C57.1672 17.7589 57.5024 17.3892 57.5056 16.9494C57.5098 16.5085 57.1808 16.1455 56.7836 16.1488C56.3864 16.1543 56.0512 16.5239 56.048 16.9637ZM53.6195 14.2755C53.6164 14.7153 53.9442 15.0794 54.3415 15.075C54.7397 15.0707 55.0739 14.701 55.077 14.2612C55.0812 13.8203 54.7523 13.4573 54.3551 13.4606C53.9579 13.465 53.6237 13.8357 53.6195 14.2755ZM48.8928 9.04498C48.8897 9.48369 49.2175 9.84782 49.6147 9.84343C50.013 9.84014 50.3472 9.47053 50.3503 9.02962C50.3545 8.58982 50.0256 8.22569 49.6284 8.23008C49.2312 8.23446 48.897 8.60408 48.8928 9.04498ZM53.6637 8.99562C53.6605 9.43433 53.9884 9.79846 54.3856 9.79408C54.7839 9.79079 55.118 9.42117 55.1212 8.98027C55.1254 8.54046 54.7965 8.17634 54.3992 8.18072C54.002 8.18511 53.6679 8.55472 53.6637 8.99562Z" fill="#0A3B3C"/>
<path d="M58.4113 19.5816C58.4071 20.0214 58.736 20.3856 59.1333 20.3812C59.5305 20.3768 59.8657 20.0072 59.8689 19.5663C59.8731 19.1265 59.5442 18.7634 59.1469 18.7667C58.7497 18.7711 58.4145 19.1418 58.4113 19.5816ZM58.4555 14.3018C58.4513 14.7405 58.7802 15.1046 59.1774 15.1002C59.5757 15.0969 59.9098 14.7273 59.913 14.2864C59.9172 13.8466 59.5883 13.4825 59.1911 13.4869C58.7938 13.4912 58.4586 13.8609 58.4555 14.3007V14.3018ZM56.027 11.6125C56.0238 12.0534 56.3517 12.4164 56.7489 12.4131C57.1472 12.4076 57.4813 12.038 57.4845 11.5982C57.4887 11.1584 57.1598 10.7943 56.7626 10.7976C56.3653 10.8031 56.0312 11.1727 56.027 11.6125ZM39.1966 19.779C39.1924 20.2178 39.5203 20.5819 39.9185 20.5775C40.3157 20.5742 40.6499 20.2046 40.6541 19.7637C40.6573 19.3239 40.3284 18.9598 39.9322 18.9641C39.5339 18.9685 39.1997 19.3381 39.1966 19.779ZM39.2407 14.4992C39.2365 14.9379 39.5644 15.302 39.9627 15.2976C40.3599 15.2932 40.694 14.9236 40.6983 14.4838C40.7014 14.0429 40.3725 13.6799 39.9763 13.6832C39.578 13.6876 39.2439 14.0583 39.2407 14.4981V14.4992ZM43.9674 19.7297C43.9632 20.1695 44.2911 20.5325 44.6894 20.5292C45.0866 20.5249 45.4208 20.1541 45.425 19.7143C45.4281 19.2745 45.0992 18.9104 44.703 18.9148C44.3048 18.9192 43.9706 19.2888 43.9674 19.7297ZM44.0116 14.4487C44.0074 14.8896 44.3352 15.2527 44.7335 15.2483C45.1307 15.2439 45.4649 14.8743 45.4691 14.4345C45.4723 13.9936 45.1433 13.6305 44.7472 13.6338C44.3489 13.6393 44.0147 14.0089 44.0116 14.4487ZM41.6482 11.834C41.644 12.2727 41.9719 12.6369 42.3702 12.6325C42.7674 12.6292 43.1015 12.2596 43.1057 11.8187C43.1089 11.3789 42.78 11.0147 42.3838 11.0191C41.9855 11.0235 41.6514 11.3931 41.6482 11.8329V11.834ZM41.603 17.1139C41.5999 17.5537 41.9288 17.9178 42.326 17.9134C42.7232 17.909 43.0574 17.5394 43.0616 17.0985C43.0648 16.6587 42.7358 16.2957 42.3397 16.299C41.9414 16.3034 41.6072 16.6741 41.6041 17.1139H41.603ZM46.4853 11.709C46.4821 12.1499 46.811 12.5129 47.2072 12.5085C47.6055 12.5041 47.9396 12.1345 47.9428 11.6947C47.947 11.2538 47.6191 10.8908 47.2209 10.8941C46.8236 10.8985 46.4895 11.2692 46.4853 11.709ZM46.3739 17.0645C46.3707 17.5043 46.6996 17.8674 47.0969 17.8641C47.4941 17.8597 47.8283 17.4901 47.8325 17.0492C47.8356 16.6105 47.5067 16.2463 47.1095 16.2507C46.7123 16.254 46.3781 16.6236 46.3739 17.0645ZM39.2187 9.14473C39.2155 9.58563 39.5444 9.94866 39.9406 9.94537C40.3389 9.93989 40.673 9.57028 40.6762 9.13047C40.6804 8.68957 40.3525 8.32654 39.9543 8.32983C39.557 8.33531 39.2229 8.70492 39.2187 9.14473ZM44.1219 9.09318C44.1188 9.53408 44.4477 9.89712 44.8449 9.89383C45.2421 9.88944 45.5763 9.51873 45.5805 9.07892C45.5836 8.63912 45.2547 8.27499 44.8575 8.27937C44.4603 8.28376 44.1261 8.65337 44.1219 9.09318ZM48.8486 14.3248C48.8455 14.7646 49.1733 15.1276 49.5706 15.1243C49.9688 15.12 50.303 14.7503 50.3062 14.3094C50.3104 13.8696 49.9814 13.5066 49.5842 13.5099C49.187 13.5143 48.8528 13.885 48.8486 14.3248ZM48.8928 9.04492C48.8896 9.48363 49.2185 9.84776 49.6147 9.84337C50.013 9.84008 50.3471 9.47047 50.3503 9.02957C50.3545 8.58976 50.0266 8.22563 49.6284 8.23002C49.2311 8.23441 48.897 8.60402 48.8928 9.04492ZM34.4047 14.4729C34.4005 14.9127 34.7284 15.2757 35.1256 15.2724C35.5239 15.268 35.858 14.8973 35.8612 14.4575C35.8654 14.0177 35.5375 13.6547 35.1393 13.658C34.742 13.6623 34.4079 14.032 34.4037 14.4729H34.4047ZM32.0403 11.8571C32.0372 12.2969 32.365 12.6599 32.7623 12.6566C33.1605 12.6522 33.4947 12.2826 33.4978 11.8417C33.5021 11.4019 33.1742 11.0389 32.7759 11.0421C32.3787 11.0465 32.0445 11.4172 32.0403 11.8571ZM36.8112 11.8077C36.808 12.2475 37.1369 12.6116 37.5331 12.6072C37.9314 12.6029 38.2655 12.2332 38.2687 11.7923C38.2729 11.3536 37.945 10.9895 37.5468 10.9939C37.1495 10.9972 36.8154 11.3668 36.8112 11.8077ZM36.8322 17.1611C36.829 17.6009 37.1579 17.9639 37.5552 17.9606C37.9524 17.9562 38.2866 17.5866 38.2908 17.1457C38.2939 16.707 37.965 16.3429 37.5678 16.3472C37.1706 16.3505 36.8364 16.7201 36.8322 17.1611ZM29.677 9.24124C29.6738 9.68105 30.0027 10.0452 30.3999 10.0408C30.7972 10.0364 31.1313 9.66679 31.1355 9.22699C31.1387 8.78608 30.8098 8.42305 30.4126 8.42634C30.0153 8.43073 29.6812 8.80144 29.677 9.24124ZM34.4489 9.19189C34.4447 9.63279 34.7725 9.99583 35.1708 9.99254C35.568 9.98705 35.9022 9.61744 35.9064 9.17763C35.9095 8.73673 35.5806 8.3737 35.1834 8.37699C34.7862 8.38247 34.452 8.75208 34.4478 9.19189H34.4489Z" fill="#0A3B3C"/>
<path d="M39.1966 19.777C39.1924 20.2157 39.5203 20.5798 39.9186 20.5765C40.3158 20.5721 40.65 20.2014 40.6542 19.7616C40.6573 19.3218 40.3284 18.9577 39.9322 18.9621C39.534 18.9665 39.1998 19.3361 39.1966 19.777ZM39.2408 14.496C39.2366 14.9358 39.5644 15.2999 39.9627 15.2967C40.3599 15.2912 40.6941 14.9216 40.6983 14.4818C40.7014 14.0409 40.3725 13.6778 39.9764 13.6811C39.5781 13.6866 39.2439 14.0562 39.2408 14.496ZM39.2187 9.14266C39.2155 9.58356 39.5445 9.94659 39.9406 9.9433C40.3389 9.93782 40.6731 9.5682 40.6762 9.1284C40.6804 8.6875 40.3526 8.32446 39.9543 8.32775C39.5571 8.33324 39.2229 8.70285 39.2187 9.14266ZM58.5459 3.59078C58.5417 4.03059 58.8706 4.39362 59.2678 4.39033C59.665 4.38595 60.0003 4.01524 60.0034 3.57543C60.0066 3.13562 59.6787 2.77259 59.2815 2.77588C58.8843 2.78027 58.549 3.15098 58.5459 3.59078ZM48.8928 9.04504C48.8897 9.48375 49.2186 9.84788 49.6147 9.8435C50.013 9.84021 50.3472 9.47059 50.3503 9.02969C50.3545 8.58988 50.0267 8.22575 49.6284 8.23014C49.2312 8.23453 48.897 8.60414 48.8928 9.04504ZM48.938 3.76408C48.9338 4.20388 49.2617 4.56801 49.6599 4.56362C50.0571 4.55924 50.3913 4.18962 50.3955 3.74872C50.3987 3.31001 50.0698 2.94588 49.6725 2.95027C49.2753 2.95356 48.9411 3.32317 48.9369 3.76408H48.938ZM53.6637 8.99569C53.6605 9.4344 53.9894 9.79853 54.3866 9.79414C54.7839 9.79085 55.118 9.42124 55.1222 8.98033C55.1254 8.54053 54.7965 8.1764 54.3992 8.18079C54.002 8.18517 53.6679 8.55478 53.6637 8.99569ZM53.775 3.64014C53.7708 4.07995 54.0998 4.44298 54.497 4.43969C54.8952 4.4353 55.2294 4.06459 55.2326 3.62478C55.2368 3.18498 54.9079 2.82195 54.5106 2.82524C54.0462 2.9042 53.7792 3.20033 53.775 3.64014ZM51.4117 1.02433C51.4075 1.46414 51.7364 1.82827 52.1336 1.82388C52.5319 1.81949 52.8661 1.44988 52.8692 1.00898C52.8734 0.570269 52.5445 0.20614 52.1473 0.210527C51.6828 0.287301 51.4159 0.58343 51.4117 1.02433ZM51.3003 6.37988C51.2971 6.81969 51.6261 7.18272 52.0233 7.17943C52.4205 7.17504 52.7547 6.80433 52.7589 6.36453C52.762 5.92472 52.4331 5.56169 52.0359 5.56498C51.6387 5.56937 51.3045 5.94008 51.3003 6.37988ZM56.1825 0.976075C56.1794 1.41478 56.5072 1.77891 56.9045 1.77453C57.3017 1.77014 57.6369 1.40053 57.6401 0.959624C57.6443 0.520914 57.3153 0.156785 56.9181 0.161172C56.5209 0.164462 56.1867 0.534075 56.1825 0.974979V0.976075ZM56.1384 6.25814C56.1342 6.69685 56.4631 7.06098 56.8603 7.05659C57.2576 7.0533 57.5928 6.68369 57.5959 6.24278C57.6001 5.80298 57.2712 5.43885 56.874 5.44324C56.4095 5.52111 56.1416 5.81724 56.1384 6.25814Z" fill="#0A3B3C"/>
<path d="M58.5458 3.59081C58.5416 4.03062 58.8706 4.39365 59.2678 4.39036C59.665 4.38598 60.0002 4.01527 60.0034 3.57546C60.0065 3.13565 59.6787 2.77262 59.2814 2.77591C58.8842 2.7803 58.549 3.15101 58.5458 3.59081ZM39.2187 9.14488C39.2155 9.58578 39.5444 9.94882 39.9406 9.94552C40.3389 9.94004 40.673 9.57043 40.6762 9.13062C40.6804 8.68972 40.3525 8.32669 39.9543 8.32998C39.557 8.33546 39.2229 8.70507 39.2187 9.14488ZM39.33 3.79043C39.3269 4.22914 39.6548 4.59327 40.052 4.58888C40.4502 4.58559 40.7844 4.21598 40.7876 3.77507C40.7918 3.33527 40.4639 2.97114 40.0656 2.97552C39.6684 2.97991 39.3342 3.34952 39.33 3.79043ZM44.1219 9.09333C44.1188 9.53424 44.4477 9.89727 44.8449 9.89398C45.2421 9.88959 45.5763 9.51888 45.5805 9.07907C45.5836 8.63927 45.2547 8.27514 44.8575 8.27952C44.4603 8.28391 44.1261 8.65353 44.1219 9.09333ZM44.1009 3.73998C44.0977 4.18088 44.4256 4.54391 44.8228 4.54062C45.22 4.53623 45.5553 4.16552 45.5584 3.72572C45.5626 3.28591 45.2337 2.92178 44.8365 2.92617C44.4393 2.93056 44.104 3.30017 44.1009 3.74107V3.73998ZM41.7375 1.12527C41.7333 1.56507 42.0623 1.92811 42.4595 1.92482C42.8567 1.92043 43.1919 1.54972 43.1951 1.10991C43.1993 0.670105 42.8704 0.307073 42.4731 0.310363C42.0759 0.31475 41.7407 0.68546 41.7375 1.12527ZM41.6934 6.40514C41.6892 6.84604 42.0181 7.20907 42.4153 7.20578C42.8126 7.2003 43.1467 6.83069 43.1509 6.39088C43.1541 5.94998 42.8262 5.58694 42.429 5.59023C42.0318 5.59572 41.6966 5.96533 41.6934 6.40514ZM46.5084 1.07482C46.5042 1.51572 46.8331 1.87875 47.2303 1.87546C47.6286 1.87107 47.9628 1.50036 47.9659 1.06056C47.9701 0.62075 47.6412 0.257718 47.244 0.261009C46.8468 0.265396 46.5115 0.636105 46.5084 1.07591V1.07482ZM46.5294 6.42927C46.5263 6.86907 46.8552 7.23211 47.2524 7.22882C47.6496 7.22443 47.9838 6.85372 47.988 6.41391C47.9911 5.97411 47.6622 5.61107 47.265 5.61436C46.8678 5.61875 46.5336 5.98946 46.5294 6.42927ZM48.8928 9.04507C48.8896 9.48378 49.2185 9.84791 49.6147 9.84352C50.013 9.84023 50.3471 9.47062 50.3503 9.02972C50.3545 8.58991 50.0266 8.22578 49.6284 8.23017C49.2311 8.23456 48.897 8.60417 48.8928 9.04507ZM48.9379 3.76411C48.9337 4.20391 49.2616 4.56804 49.6599 4.56365C50.0571 4.55927 50.3913 4.18965 50.3955 3.74875C50.3986 3.31004 50.0697 2.94591 49.6725 2.9503C49.2753 2.95359 48.9411 3.3232 48.9369 3.76411H48.9379ZM29.677 9.24139C29.6738 9.6812 30.0027 10.0453 30.3999 10.0409C30.7972 10.0366 31.1313 9.66694 31.1355 9.22714C31.1387 8.78623 30.8098 8.4232 30.4126 8.42649C30.0153 8.43088 29.6812 8.80159 29.677 9.24139ZM34.4478 9.19204C34.4447 9.63294 34.7725 9.99598 35.1697 9.99269C35.568 9.9872 35.9022 9.61759 35.9053 9.17778C35.9095 8.73688 35.5817 8.37385 35.1834 8.37714C34.7862 8.38262 34.452 8.75223 34.4478 9.19204ZM34.4919 3.91217C34.4888 4.35198 34.8177 4.71501 35.2149 4.71172C35.6122 4.70733 35.9463 4.33662 35.9505 3.89681C35.9537 3.45701 35.6248 3.09398 35.2275 3.09727C34.8303 3.10165 34.4962 3.47236 34.4919 3.91217ZM32.0845 6.57733C32.0813 7.01604 32.4102 7.38017 32.8074 7.37578C33.2047 7.37249 33.5388 7.00288 33.543 6.56198C33.5462 6.12217 33.2173 5.75804 32.82 5.76243C32.4228 5.76682 32.0887 6.13643 32.0845 6.57733ZM36.9667 1.17243C36.9635 1.61223 37.2914 1.97527 37.6886 1.97198C38.0869 1.96759 38.4211 1.59688 38.4242 1.15707C38.4284 0.717267 38.1006 0.354234 37.7023 0.357525C37.3051 0.361912 36.9709 0.732621 36.9667 1.17243ZM36.8553 6.52798C36.8521 6.96669 37.1811 7.33081 37.5783 7.32643C37.9755 7.32314 38.3097 6.95353 38.3139 6.51262C38.317 6.07282 37.9881 5.70869 37.5909 5.71307C37.1937 5.71746 36.8595 6.08707 36.8553 6.52798Z" fill="#0A3B3C"/>
<path d="M39.2187 9.14034C39.2155 9.58125 39.5444 9.94428 39.9406 9.94099C40.3389 9.93551 40.673 9.56589 40.6762 9.12609C40.6804 8.68518 40.3525 8.32215 39.9542 8.32654C39.557 8.33093 39.2229 8.70054 39.2187 9.14034ZM39.33 3.78809C39.3258 4.2268 39.6548 4.59093 40.052 4.58654C40.4492 4.58325 40.7844 4.21364 40.7876 3.77273C40.7918 3.33293 40.4629 2.9688 40.0656 2.97318C39.6684 2.97757 39.3332 3.34718 39.33 3.78809ZM59.4412 50.6335C59.438 51.0744 59.7659 51.4374 60.1631 51.4342C60.5614 51.4287 60.8955 51.0591 60.8987 50.6193C60.9029 50.1794 60.575 49.8153 60.1767 49.8197C59.7795 49.8241 59.4454 50.1937 59.4412 50.6335ZM59.4853 45.3536C59.4821 45.7934 59.8111 46.1576 60.2083 46.1532C60.6055 46.1488 60.9397 45.7792 60.9439 45.3383C60.947 44.8996 60.6181 44.5354 60.2209 44.5387C59.8237 44.5431 59.4895 44.9138 59.4853 45.3536ZM49.8333 50.8079C49.8291 51.2466 50.158 51.6107 50.5552 51.6063C50.9524 51.6031 51.2876 51.2334 51.2908 50.7925C51.295 50.3527 50.9661 49.9886 50.5689 49.993C50.1716 49.9974 49.8364 50.367 49.8333 50.8079ZM54.6041 50.7585C54.5999 51.1983 54.9288 51.5614 55.326 51.557C55.7233 51.5537 56.0585 51.1841 56.0616 50.7432C56.0658 50.3034 55.7369 49.9392 55.3397 49.9436C54.9425 49.948 54.6073 50.3187 54.6041 50.7585ZM52.2408 48.1427C52.2365 48.5825 52.5655 48.9467 52.9627 48.9423C53.3599 48.9379 53.6951 48.5683 53.6983 48.1274C53.7025 47.6887 53.3736 47.3245 52.9763 47.3289C52.5791 47.3322 52.2439 47.7018 52.2408 48.1427ZM52.1956 53.4237C52.1924 53.8624 52.5213 54.2265 52.9185 54.2222C53.3158 54.2178 53.651 53.8482 53.6541 53.4083C53.6583 52.9685 53.3294 52.6044 52.9322 52.6088C52.535 52.6132 52.1998 52.9828 52.1966 53.4226L52.1956 53.4237ZM57.0789 48.0188C57.0746 48.4575 57.4025 48.8216 57.8008 48.8183C58.198 48.814 58.5322 48.4433 58.5364 48.0034C58.5395 47.5636 58.2117 47.1995 57.8144 47.2039C57.4162 47.2083 57.082 47.5779 57.0789 48.0188ZM56.9664 53.3733C56.9633 53.8142 57.2922 54.1772 57.6894 54.1739C58.0866 54.1695 58.4208 53.7988 58.425 53.359C58.4281 52.9192 58.1003 52.5551 57.7031 52.5594C57.3048 52.5638 56.9706 52.9334 56.9675 53.3733H56.9664ZM49.8122 45.4545C49.808 45.8943 50.1359 46.2574 50.5342 46.2541C50.9314 46.2497 51.2656 45.879 51.2698 45.4392C51.2729 44.9994 50.944 44.6363 50.5478 44.6396C50.1496 44.644 49.8154 45.0136 49.8122 45.4545ZM54.7155 45.403C54.7113 45.8428 55.0402 46.2069 55.4374 46.2025C55.8347 46.1982 56.1688 45.8285 56.173 45.3876C56.1762 44.9489 55.8483 44.5848 55.4511 44.5881C55.0528 44.5925 54.7186 44.9632 54.7155 45.403Z" fill="#0A3B3C"/>
<path d="M59.4412 50.6336C59.438 51.0745 59.7669 51.4375 60.1641 51.4343C60.5614 51.4288 60.8955 51.0592 60.8997 50.6194C60.9029 50.1795 60.574 49.8154 60.1768 49.8198C59.7795 49.8242 59.4454 50.1938 59.4412 50.6336ZM59.4863 45.3537C59.4821 45.7935 59.81 46.1577 60.2083 46.1533C60.6055 46.1489 60.9397 45.7793 60.9439 45.3384C60.947 44.8997 60.6192 44.5356 60.2219 44.5388C59.8237 44.5432 59.4895 44.9139 59.4863 45.3537ZM44.9973 50.7839C44.9931 51.2237 45.3209 51.5878 45.7192 51.5834C46.1164 51.579 46.4506 51.2094 46.4548 50.7696C46.4579 50.3287 46.129 49.9657 45.7329 49.969C45.3346 49.9734 45.0004 50.3441 44.9973 50.7839ZM42.6329 48.1681C42.6297 48.609 42.9586 48.972 43.3558 48.9687C43.7531 48.9632 44.0872 48.5936 44.0914 48.1538C44.0946 47.714 43.7657 47.3499 43.3695 47.3532C42.9712 47.3586 42.6371 47.7283 42.6339 48.1681H42.6329ZM47.4037 48.1187C47.4006 48.5596 47.7295 48.9226 48.1267 48.9194C48.5239 48.9139 48.8581 48.5443 48.8623 48.1045C48.8654 47.6646 48.5365 47.3005 48.1403 47.3049C47.7421 47.3093 47.4079 47.6789 47.4048 48.1187H47.4037ZM47.4247 53.4721C47.4216 53.913 47.7505 54.276 48.1477 54.2727C48.5449 54.2672 48.8801 53.8976 48.8833 53.4578C48.8875 53.018 48.5586 52.6539 48.1614 52.6572C47.7631 52.6626 47.4289 53.0323 47.4258 53.4721H47.4247ZM40.2705 45.5534C40.2663 45.9921 40.5953 46.3562 40.9925 46.3518C41.3897 46.3485 41.7239 45.9789 41.7281 45.538C41.7312 45.0982 41.4034 44.7341 41.0061 44.7385C40.6089 44.7428 40.2737 45.1125 40.2705 45.5534ZM45.0414 45.504C45.0372 45.9438 45.3661 46.3068 45.7633 46.3035C46.1605 46.2992 46.4947 45.9285 46.4989 45.4886C46.5021 45.0488 46.1742 44.6847 45.777 44.6891C45.3798 44.6935 45.0445 45.0631 45.0414 45.504ZM49.8333 50.808C49.8291 51.2467 50.158 51.6108 50.5552 51.6065C50.9524 51.6032 51.2876 51.2335 51.2908 50.7926C51.295 50.3528 50.9661 49.9887 50.5689 49.9931C50.1716 49.9975 49.8364 50.3671 49.8333 50.808ZM49.8122 45.4546C49.808 45.8945 50.1359 46.2575 50.5342 46.2542C50.9314 46.2498 51.2656 45.8791 51.2698 45.4393C51.2729 44.9995 50.944 44.6365 50.5478 44.6397C50.1496 44.6441 49.8154 45.0137 49.8122 45.4546Z" fill="#0A3B3C"/>
<path d="M59.4864 45.3559C59.4822 45.7957 59.8101 46.1598 60.2083 46.1554C60.6055 46.151 60.9397 45.7814 60.9439 45.3405C60.9471 44.9007 60.6192 44.5377 60.222 44.541C59.8237 44.5453 59.4896 44.9161 59.4864 45.3559ZM59.5305 40.076C59.5263 40.5147 59.8552 40.8788 60.2525 40.8744C60.6497 40.8712 60.9839 40.5015 60.9881 40.0606C60.9912 39.6208 60.6633 39.2567 60.2661 39.2611C59.8679 39.2655 59.5337 39.6351 59.5305 40.0749V40.076ZM59.5757 34.647C59.5726 35.0868 59.9004 35.4509 60.2977 35.4476C60.6949 35.4421 61.0301 35.0725 61.0332 34.6327C61.0375 34.1918 60.7085 33.8288 60.3113 33.8321C59.8468 33.911 59.5799 34.2072 59.5757 34.647ZM49.8123 45.4568C49.8081 45.8966 50.137 46.2596 50.5342 46.2563C50.9314 46.2519 51.2667 45.8812 51.2698 45.4414C51.273 45.0016 50.9451 44.6386 50.5479 44.6419C50.1507 44.6462 49.8154 45.0159 49.8123 45.4568ZM49.9237 40.1012C49.9195 40.541 50.2484 40.9041 50.6456 40.9008C51.0428 40.8964 51.377 40.5257 51.3812 40.0859C51.3844 39.6461 51.0565 39.283 50.6593 39.2874C50.2621 39.2907 49.9268 39.6603 49.9237 40.1012ZM54.7156 45.4052C54.7113 45.845 55.0403 46.2092 55.4375 46.2048C55.8347 46.2004 56.1699 45.8297 56.1731 45.3899C56.1773 44.9501 55.8484 44.587 55.4511 44.5903C55.0529 44.5947 54.7187 44.9654 54.7156 45.4052ZM54.6945 40.0519C54.6903 40.4917 55.0182 40.8558 55.4165 40.8514C55.8137 40.847 56.1479 40.4774 56.1521 40.0365C56.1552 39.5978 55.8263 39.2337 55.4301 39.2381C55.0319 39.2413 54.6977 39.611 54.6945 40.0519ZM52.3312 37.4361C52.327 37.8759 52.6548 38.24 53.0531 38.2356C53.4503 38.2312 53.7845 37.8616 53.7887 37.4218C53.7919 36.9809 53.4629 36.6179 53.0668 36.6212C52.6685 36.6266 52.3343 36.9962 52.3312 37.4361ZM52.286 42.717C52.2828 43.1568 52.6118 43.5199 53.0079 43.5155C53.4062 43.5122 53.7404 43.1426 53.7435 42.7017C53.7477 42.2619 53.4199 41.8988 53.0216 41.9021C52.6244 41.9065 52.2902 42.2761 52.286 42.717ZM57.102 37.3867C57.0978 37.8276 57.4257 38.1906 57.824 38.1873C58.2212 38.1819 58.5553 37.8122 58.5596 37.3724C58.5627 36.9315 58.2338 36.5685 57.8376 36.5718C57.4393 36.5773 57.1052 36.9469 57.102 37.3867ZM57.123 42.7412C57.1188 43.1799 57.4478 43.544 57.845 43.5396C58.2422 43.5352 58.5774 43.1656 58.5806 42.7258C58.5848 42.2849 58.2559 41.9219 57.8586 41.9252C57.4614 41.9295 57.1262 42.3003 57.123 42.7401V42.7412ZM49.9678 34.8202C49.9636 35.2611 50.2915 35.6242 50.6898 35.6209C51.087 35.6154 51.4211 35.2458 51.4253 34.806C51.4285 34.3662 51.0996 34.0021 50.7034 34.0064C50.3051 34.0108 49.971 34.3804 49.9678 34.8202ZM54.7387 34.772C54.7345 35.2107 55.0623 35.5748 55.4606 35.5704C55.8578 35.5671 56.192 35.1975 56.1962 34.7566C56.1993 34.3168 55.8704 33.9527 55.4743 33.9571C55.076 33.9615 54.7418 34.3311 54.7387 34.772Z" fill="#0A3B3C"/>
<path d="M59.4853 45.3559C59.4821 45.7957 59.8111 46.1598 60.2083 46.1554C60.6055 46.151 60.9397 45.7814 60.9439 45.3405C60.947 44.9007 60.6181 44.5377 60.2209 44.541C59.8237 44.5453 59.4895 44.9161 59.4853 45.3559ZM59.5305 40.076C59.5263 40.5147 59.8552 40.8788 60.2524 40.8744C60.6496 40.8712 60.9838 40.5015 60.988 40.0606C60.9912 39.6208 60.6633 39.2567 60.2661 39.2611C59.8678 39.2655 59.5336 39.6351 59.5305 40.0749V40.076ZM59.5757 34.647C59.5725 35.0868 59.9004 35.4509 60.2976 35.4476C60.6948 35.4421 61.03 35.0725 61.0332 34.6327C61.0374 34.1918 60.7085 33.8288 60.3113 33.8321C59.8468 33.911 59.5799 34.2072 59.5757 34.647ZM40.2705 45.5533C40.2663 45.992 40.5942 46.3561 40.9925 46.3517C41.3897 46.3484 41.7239 45.9788 41.7281 45.5379C41.7312 45.0981 41.4034 44.734 41.0061 44.7384C40.6089 44.7428 40.2737 45.1124 40.2705 45.5533ZM45.0403 45.5039C45.0372 45.9437 45.3661 46.3068 45.7633 46.3035C46.1605 46.2991 46.4947 45.9284 46.4989 45.4886C46.5021 45.0488 46.1732 44.6846 45.777 44.689C45.3787 44.6934 45.0445 45.063 45.0414 45.5039H45.0403ZM45.0855 40.223C45.0813 40.6628 45.4102 41.0269 45.8075 41.0225C46.2047 41.0181 46.5389 40.6485 46.5431 40.2087C46.5473 39.7678 46.2183 39.4048 45.8211 39.4081C45.4229 39.4135 45.0887 39.7831 45.0855 40.223ZM42.678 42.8881C42.6738 43.3279 43.0028 43.6921 43.4 43.6877C43.7972 43.6833 44.1314 43.3137 44.1356 42.8728C44.1387 42.433 43.8109 42.0699 43.4136 42.0732C43.0154 42.0776 42.6812 42.4483 42.678 42.8881ZM47.5592 37.4832C47.5561 37.923 47.885 38.2871 48.2822 38.2828C48.6794 38.2784 49.0136 37.9088 49.0178 37.469C49.021 37.0281 48.692 36.665 48.2948 36.6683C47.8976 36.6738 47.5634 37.0434 47.5592 37.4832ZM47.4489 42.8388C47.4447 43.2786 47.7736 43.6427 48.1708 43.6383C48.568 43.6339 48.9022 43.2643 48.9064 42.8234C48.9106 42.3847 48.5817 42.0206 48.1845 42.025C47.7862 42.0282 47.452 42.3979 47.4489 42.8388ZM49.8122 45.4524C49.808 45.8922 50.1359 46.2552 50.5342 46.2519C50.9314 46.2475 51.2656 45.8768 51.2698 45.437C51.2729 44.9972 50.944 44.6342 50.5478 44.6375C50.1496 44.6419 49.8154 45.0126 49.8122 45.4524ZM49.9226 40.099C49.9194 40.5388 50.2483 40.903 50.6445 40.8986C51.0428 40.8942 51.377 40.5246 51.3801 40.0837C51.3843 39.6439 51.0564 39.2808 50.6582 39.2852C50.261 39.2885 49.9268 39.6581 49.9226 40.099ZM49.9678 34.8191C49.9636 35.2579 50.2914 35.622 50.6897 35.6176C51.0869 35.6143 51.4211 35.2447 51.4253 34.8038C51.4284 34.364 51.0995 33.9999 50.7034 34.0042C50.3051 34.0086 49.9709 34.3782 49.9678 34.8181V34.8191Z" fill="#0A3B3C"/>
<path d="M59.5757 34.6448C59.5726 35.0857 59.9004 35.4487 60.2976 35.4455C60.6949 35.44 61.0301 35.0704 61.0332 34.6306C61.0374 34.1897 60.7085 33.8266 60.3113 33.8299C59.8468 33.9089 59.5799 34.205 59.5757 34.6448ZM59.6198 29.3649C59.6167 29.8047 59.9456 30.1678 60.3428 30.1645C60.7401 30.1601 61.0742 29.7894 61.0784 29.3496C61.0816 28.9098 60.7527 28.5467 60.3554 28.55C59.9582 28.5544 59.6241 28.9251 59.6198 29.3649ZM59.664 24.0862C59.6608 24.5271 59.9897 24.8901 60.3859 24.8868C60.7842 24.8813 61.1184 24.5117 61.1215 24.0719C61.1257 23.631 60.7979 23.268 60.3996 23.2713C60.0024 23.2767 59.6682 23.6464 59.664 24.0862ZM49.9678 34.8203C49.9636 35.2612 50.2915 35.6242 50.6897 35.6209C51.087 35.6155 51.4211 35.2458 51.4253 34.806C51.4285 34.3662 51.0996 34.0021 50.7034 34.0065C50.3051 34.0109 49.971 34.3805 49.9678 34.8203ZM54.7387 34.772C54.7345 35.2107 55.0623 35.5749 55.4595 35.5705C55.8578 35.5672 56.192 35.1976 56.1951 34.7567C56.1993 34.3169 55.8715 33.9527 55.4732 33.9571C55.076 33.9615 54.7418 34.3311 54.7376 34.772H54.7387ZM54.849 29.4154C54.8458 29.8563 55.1748 30.2193 55.5709 30.216C55.9692 30.2116 56.3034 29.8409 56.3065 29.4011C56.3107 28.9613 55.9829 28.5983 55.5846 28.6016C55.1201 28.6806 54.8532 28.9756 54.849 29.4165V29.4154ZM52.3743 32.1562C52.3711 32.596 52.7 32.9591 53.0972 32.9558C53.4945 32.9514 53.8286 32.5807 53.8328 32.1409C53.836 31.7011 53.5071 31.338 53.1109 31.3413C52.7126 31.3457 52.3785 31.7153 52.3753 32.1562H52.3743ZM57.2565 26.7513C57.2533 27.1911 57.5823 27.5553 57.9784 27.5509C58.3767 27.5465 58.7109 27.1769 58.714 26.736C58.7182 26.2973 58.3904 25.9331 57.9921 25.9375C57.5949 25.9408 57.2607 26.3104 57.2565 26.7513ZM57.2124 32.0323C57.2082 32.471 57.5371 32.8351 57.9343 32.8307C58.3326 32.8275 58.6667 32.4578 58.6699 32.0169C58.6741 31.5771 58.3452 31.213 57.948 31.2174C57.4835 31.2953 57.2166 31.5914 57.2124 32.0312V32.0323Z" fill="#0A3B3C"/>
<path d="M59.5757 34.647C59.5715 35.0868 59.9004 35.4509 60.2977 35.4476C60.6949 35.4422 61.0301 35.0726 61.0333 34.6327C61.0375 34.1918 60.7085 33.8288 60.3113 33.8321C59.8468 33.9111 59.5789 34.2072 59.5757 34.647ZM59.6199 29.3671C59.6167 29.8069 59.9446 30.17 60.3418 30.1667C60.7401 30.1623 61.0742 29.7916 61.0774 29.3518C61.0816 28.912 60.7527 28.5489 60.3555 28.5522C59.9582 28.5566 59.6241 28.9273 59.6199 29.3671ZM59.664 24.0862C59.6608 24.5271 59.9898 24.8901 60.3859 24.8868C60.7842 24.8813 61.1184 24.5117 61.1215 24.0719C61.1257 23.631 60.7979 23.268 60.3996 23.2713C60.0024 23.2767 59.6682 23.6464 59.664 24.0862Z" fill="#0A3B3C"/>
<path d="M59.664 24.0862C59.6608 24.5271 59.9897 24.8901 60.3859 24.8868C60.7842 24.8813 61.1183 24.5117 61.1215 24.0719C61.1257 23.631 60.7978 23.268 60.3996 23.2713C60.0023 23.2767 59.6682 23.6464 59.664 24.0862Z" fill="#0A3B3C"/>
<path fill-rule="evenodd" clip-rule="evenodd" d="M41.5579 48.6596C40.858 48.6596 40.2905 49.2869 40.2905 50.0613C40.2905 50.8356 40.858 51.464 41.5579 51.464C42.2577 51.464 42.8241 50.8356 42.8241 50.0613C42.8241 49.2869 42.2567 48.6596 41.5579 48.6596ZM38.1794 50.0613C38.1794 47.996 39.6916 46.3213 41.5579 46.3213C43.4231 46.3213 44.9363 47.996 44.9363 50.0613C44.9363 52.1276 43.4231 53.8013 41.5579 53.8013C39.6916 53.8013 38.1794 52.1276 38.1794 50.0613ZM20.0186 48.6596C19.3198 48.6596 18.7524 49.2869 18.7524 50.0613C18.7524 50.8356 19.3198 51.464 20.0197 51.464C20.7196 51.464 21.286 50.8356 21.286 50.0613C21.286 49.2869 20.7185 48.6596 20.0197 48.6596H20.0186ZM16.6412 50.0613C16.6412 47.996 18.1544 46.3213 20.0197 46.3213C21.8849 46.3213 23.3982 47.996 23.3982 50.0613C23.3982 52.1276 21.8849 53.8013 20.0197 53.8013C18.1534 53.8013 16.6412 52.1276 16.6412 50.0613ZM32.2179 43.7504V65.6058H29.9912V43.7515H32.2179V43.7504ZM45.8789 42.7085C43.5461 40.1267 39.7798 40.1267 37.4469 42.7085L36.7008 43.5355L35.2076 41.8815L35.9537 41.0556C39.1115 37.5602 44.2134 37.5602 47.3722 41.0556L48.1183 41.8826L46.625 43.5355L45.8789 42.7085ZM24.2346 42.7085C21.9018 40.1267 18.1366 40.1267 15.8037 42.7085L15.0576 43.5355L13.5643 41.8815L14.3104 41.0556C17.4672 37.5602 22.5701 37.5602 25.7279 41.0556L26.474 41.8826L24.9818 43.5355L24.2357 42.7085H24.2346Z" fill="#0B3B3D"/>
</g>
</svg>
