<svg width="118" height="26" viewBox="0 0 118 26" fill="none" xmlns="http://www.w3.org/2000/svg">
<path d="M0.0480607 0.822266H16.2486V3.82227H9.87857V20.6868H6.37574V3.82227H0.0339355V0.822266H0.0480607ZM15.5565 6.30357H18.5509V9.07927H18.6074C18.7063 8.68675 18.8899 8.30825 19.1582 7.94376C19.4266 7.57927 19.7514 7.22881 20.1328 6.93441C20.5142 6.626 20.9379 6.38769 21.404 6.19142C21.8701 6.00918 22.3503 5.91105 22.8305 5.91105C23.1978 5.91105 23.4661 5.92507 23.6074 5.93909C23.7486 5.95311 23.8899 5.98114 24.0452 5.99516V9.05124C23.8192 9.00918 23.5933 8.98114 23.3531 8.95311C23.113 8.92507 22.887 8.91105 22.6611 8.91105C22.1243 8.91105 21.6159 9.0232 21.1356 9.23348C20.6554 9.44376 20.2458 9.76619 19.8927 10.1727C19.5396 10.5933 19.2571 11.098 19.0452 11.7148C18.8334 12.3316 18.7345 13.0325 18.7345 13.8316V20.6727H15.5424V6.30357H15.5565ZM38.7204 20.6868H35.5848V18.6821H35.5283C35.1328 19.411 34.5537 19.9858 33.7769 20.4204C33 20.855 32.2091 21.0793 31.404 21.0793C29.4972 21.0793 28.113 20.6167 27.2656 19.6774C26.4181 18.7382 25.9944 17.3223 25.9944 15.4297V6.30357H29.1865V15.1213C29.1865 16.383 29.4266 17.2802 29.9209 17.7989C30.4012 18.3176 31.0933 18.5839 31.969 18.5839C32.6469 18.5839 33.1978 18.4858 33.6497 18.2755C34.1017 18.0653 34.469 17.7989 34.7373 17.4484C35.0198 17.112 35.2175 16.6914 35.3447 16.2148C35.4718 15.7382 35.5283 15.2195 35.5283 14.6587V6.31759H38.7204V20.6868ZM44.1582 16.0746C44.2571 16.9998 44.6102 17.6447 45.2175 18.0232C45.839 18.3877 46.5735 18.5839 47.4351 18.5839C47.7317 18.5839 48.0707 18.5559 48.452 18.5139C48.8334 18.4718 49.2006 18.3737 49.5255 18.2475C49.8644 18.1213 50.1328 17.9251 50.3588 17.6727C50.5707 17.4204 50.6695 17.098 50.6554 16.6914C50.6413 16.2849 50.4859 15.9484 50.2034 15.6961C49.9209 15.4297 49.5678 15.2335 49.13 15.0653C48.6921 14.911 48.1978 14.7709 47.6328 14.6587C47.0678 14.5466 46.5029 14.4204 45.9238 14.2942C45.3305 14.1681 44.7514 13.9998 44.2006 13.8176C43.6497 13.6353 43.1554 13.383 42.7175 13.0606C42.2797 12.7522 41.9266 12.3456 41.6724 11.855C41.404 11.3643 41.2769 10.7615 41.2769 10.0325C41.2769 9.2475 41.4746 8.60264 41.856 8.06993C42.2373 7.53722 42.7317 7.11666 43.3108 6.79423C43.904 6.4718 44.5537 6.2475 45.2741 6.10731C45.9944 5.98114 46.6865 5.91105 47.3362 5.91105C48.0848 5.91105 48.8051 5.99516 49.4831 6.14937C50.1611 6.30357 50.7825 6.55591 51.3334 6.9204C51.8842 7.27086 52.3362 7.73348 52.7034 8.29423C53.0707 8.85497 53.2966 9.54189 53.3955 10.341H50.0622C49.9068 9.58395 49.5678 9.06526 49.017 8.81292C48.4661 8.54657 47.8305 8.4204 47.1243 8.4204C46.8983 8.4204 46.63 8.43441 46.3192 8.47647C46.0085 8.51853 45.726 8.58862 45.4435 8.68675C45.1752 8.78488 44.9492 8.93909 44.7514 9.13535C44.5678 9.33161 44.469 9.58395 44.469 9.90638C44.469 10.2989 44.6102 10.6073 44.8786 10.8456C45.1469 11.0839 45.5 11.2802 45.9379 11.4484C46.3757 11.6026 46.8701 11.7428 47.4351 11.855C48 11.9671 48.5791 12.0933 49.1724 12.2195C49.7514 12.3456 50.3164 12.5139 50.8814 12.6961C51.4464 12.8783 51.9407 13.1307 52.3786 13.4531C52.8164 13.7755 53.1695 14.1681 53.4379 14.6447C53.7063 15.1213 53.8475 15.7241 53.8475 16.4251C53.8475 17.2802 53.6498 17.9952 53.2543 18.598C52.8588 19.1868 52.3503 19.6774 51.7288 20.0419C51.1074 20.4064 50.4012 20.6867 49.6385 20.855C48.8757 21.0232 48.113 21.1073 47.3644 21.1073C46.4464 21.1073 45.5989 21.0092 44.8221 20.7989C44.0452 20.5886 43.3673 20.2802 42.8023 19.8737C42.2373 19.4531 41.7854 18.9344 41.4605 18.3176C41.1356 17.7008 40.9661 16.9578 40.9379 16.1026H44.1582V16.0746ZM54.6949 6.30357H57.1102V1.98582H60.3023V6.30357H63.1837V8.67273H60.3023V16.355C60.3023 16.6914 60.3164 16.9718 60.3447 17.2241C60.3729 17.4625 60.4435 17.6727 60.5424 17.841C60.6413 18.0092 60.7966 18.1353 61.0085 18.2195C61.2204 18.3036 61.4887 18.3456 61.856 18.3456C62.082 18.3456 62.3079 18.3456 62.5339 18.3316C62.7599 18.3176 62.9859 18.2896 63.2119 18.2335V20.6868C62.8588 20.7288 62.5057 20.7568 62.1808 20.7989C61.8418 20.841 61.5029 20.855 61.1497 20.855C60.3023 20.855 59.6243 20.7709 59.1159 20.6167C58.6074 20.4625 58.1978 20.2241 57.9153 19.9157C57.6187 19.6073 57.4351 19.2288 57.3221 18.7662C57.2232 18.3036 57.1526 17.7709 57.1385 17.1821V8.70077H54.7232V6.30357H54.6949ZM65.4435 6.30357H68.4661V8.25217H68.5226C68.9746 7.41105 69.5961 6.82227 70.4012 6.45778C71.2062 6.09329 72.0678 5.91105 73.0142 5.91105C74.1582 5.91105 75.1469 6.10731 75.9944 6.51385C76.8419 6.90638 77.5481 7.45311 78.113 8.15404C78.678 8.85497 79.0876 9.66806 79.3701 10.5933C79.6526 11.5185 79.7938 12.5139 79.7938 13.5653C79.7938 14.5325 79.6667 15.4718 79.4125 16.369C79.1582 17.2802 78.7769 18.0793 78.2684 18.7802C77.7599 19.4811 77.1102 20.0279 76.3192 20.4484C75.5283 20.869 74.6102 21.0793 73.5368 21.0793C73.0707 21.0793 72.6046 21.0372 72.1385 20.9531C71.6723 20.869 71.2204 20.7288 70.7966 20.5466C70.3729 20.3643 69.9633 20.126 69.6102 19.8316C69.243 19.5372 68.9464 19.2008 68.6921 18.8223H68.6356V25.9998H65.4435V6.30357ZM76.6017 13.5092C76.6017 12.8643 76.517 12.2335 76.3475 11.6167C76.178 10.9998 75.9238 10.4671 75.5848 9.99049C75.2458 9.51385 74.8221 9.13535 74.3277 8.85497C73.8192 8.5746 73.2401 8.4204 72.5904 8.4204C71.2486 8.4204 70.2317 8.88301 69.5537 9.80825C68.8757 10.7335 68.5368 11.9671 68.5368 13.5092C68.5368 14.2382 68.6215 14.911 68.8051 15.5279C68.9887 16.1447 69.243 16.6774 69.6102 17.126C69.9633 17.5746 70.387 17.9251 70.8814 18.1774C71.3757 18.4438 71.9548 18.5699 72.6046 18.5699C73.339 18.5699 73.9464 18.4157 74.4548 18.1213C74.9633 17.8269 75.3729 17.4344 75.6978 16.9718C76.0226 16.4952 76.2627 15.9625 76.404 15.3596C76.5311 14.7568 76.6017 14.14 76.6017 13.5092ZM82.2373 0.822266H85.4294V3.82227H82.2373V0.822266ZM82.2373 6.30357H85.4294V20.6868H82.2373V6.30357ZM88.2825 0.822266H91.4746V20.6868H88.2825V0.822266ZM101.263 21.0793C100.105 21.0793 99.0735 20.883 98.1695 20.5045C97.2656 20.126 96.5029 19.5933 95.8673 18.9344C95.2458 18.2615 94.7656 17.4625 94.4407 16.5372C94.1159 15.612 93.9464 14.5886 93.9464 13.4811C93.9464 12.3877 94.1159 11.3783 94.4407 10.4531C94.7656 9.52787 95.2458 8.72881 95.8673 8.05591C96.4887 7.38301 97.2656 6.86432 98.1695 6.48582C99.0735 6.10731 100.105 5.91105 101.263 5.91105C102.421 5.91105 103.452 6.10731 104.356 6.48582C105.26 6.86432 106.023 7.39703 106.658 8.05591C107.28 8.72881 107.76 9.52787 108.085 10.4531C108.41 11.3783 108.579 12.3877 108.579 13.4811C108.579 14.5886 108.41 15.612 108.085 16.5372C107.76 17.4625 107.28 18.2615 106.658 18.9344C106.037 19.6073 105.26 20.126 104.356 20.5045C103.452 20.883 102.421 21.0793 101.263 21.0793ZM101.263 18.5699C101.969 18.5699 102.59 18.4157 103.113 18.1213C103.636 17.8269 104.059 17.4344 104.398 16.9578C104.737 16.4811 104.977 15.9344 105.147 15.3316C105.302 14.7288 105.387 14.112 105.387 13.4811C105.387 12.8643 105.302 12.2615 105.147 11.6447C104.992 11.0279 104.737 10.4952 104.398 10.0185C104.059 9.54189 103.636 9.16339 103.113 8.86899C102.59 8.5746 101.969 8.4204 101.263 8.4204C100.557 8.4204 99.9351 8.5746 99.4125 8.86899C98.8899 9.16339 98.4661 9.55591 98.1272 10.0185C97.7882 10.4952 97.548 11.0279 97.3786 11.6447C97.2232 12.2615 97.1385 12.8643 97.1385 13.4811C97.1385 14.112 97.2232 14.7288 97.3786 15.3316C97.5339 15.9344 97.7882 16.4811 98.1272 16.9578C98.4661 17.4344 98.8899 17.8269 99.4125 18.1213C99.9351 18.4297 100.557 18.5699 101.263 18.5699ZM109.511 6.30357H111.927V1.98582H115.119V6.30357H118V8.67273H115.119V16.355C115.119 16.6914 115.133 16.9718 115.161 17.2241C115.189 17.4625 115.26 17.6727 115.359 17.841C115.458 18.0092 115.613 18.1353 115.825 18.2195C116.037 18.3036 116.305 18.3456 116.672 18.3456C116.898 18.3456 117.124 18.3456 117.35 18.3316C117.576 18.3176 117.802 18.2896 118.028 18.2335V20.6868C117.675 20.7288 117.322 20.7568 116.997 20.7989C116.658 20.841 116.319 20.855 115.966 20.855C115.119 20.855 114.441 20.7709 113.932 20.6167C113.424 20.4625 113.014 20.2241 112.732 19.9157C112.435 19.6073 112.251 19.2288 112.138 18.7662C112.04 18.3036 111.969 17.7709 111.955 17.1821V8.70077H109.54V6.30357H109.511Z" fill="#191919"/>
</svg>
