<svg width="465" height="311" viewBox="0 0 465 311" fill="none" xmlns="http://www.w3.org/2000/svg">
<path d="M47.8854 89.0774L156.871 26.1547L265.856 89.0774V214.923L156.871 277.845L47.8854 214.923V89.0774Z" stroke="#EEEEF7" stroke-width="2"/>
<path d="M85.9905 111.077L156.871 70.1547L227.751 111.077V192.923L156.871 233.845L85.9905 192.923V111.077Z" stroke="#EEEEF7" stroke-width="2"/>
<path d="M99.2838 119.015L157.234 71.2916L238.95 103.394L244.802 201.403L157.216 253.468L92.9475 186.278L99.2838 119.015Z" stroke="#0088F0" stroke-width="4"/>
<path d="M73.392 104.392L156.232 58.6373L202.11 126.966L232.313 196H157.145L104.66 181.338L73.392 104.392Z" stroke="#EF2A82" stroke-width="4"/>
<path d="M132.756 138.077L156.871 124.155L180.985 138.077V165.923L156.871 179.845L132.756 165.923V138.077Z" stroke="#EEEEF7" stroke-width="2"/>
<path d="M397.379 85.2517H400.055C401.736 85.226 403.058 84.7832 404.021 83.9233C404.984 83.0633 405.465 81.9018 405.465 80.4386C405.465 77.1529 403.828 75.51 400.556 75.51C399.015 75.51 397.783 75.9528 396.859 76.8384C395.948 77.7112 395.492 78.8728 395.492 80.3231H391.931C391.931 78.1027 392.739 76.2609 394.356 74.7977C395.986 73.3217 398.053 72.5837 400.556 72.5837C403.2 72.5837 405.272 73.2832 406.774 74.6822C408.276 76.0812 409.027 78.0257 409.027 80.5156C409.027 81.7349 408.629 82.9157 407.833 84.058C407.05 85.2003 405.978 86.0538 404.618 86.6186C406.158 87.1063 407.345 87.9149 408.179 89.0444C409.027 90.1738 409.45 91.5536 409.45 93.1836C409.45 95.6992 408.629 97.695 406.986 99.171C405.343 100.647 403.206 101.385 400.575 101.385C397.944 101.385 395.8 100.673 394.145 99.248C392.502 97.8234 391.68 95.9431 391.68 93.6071H395.261C395.261 95.0831 395.743 96.264 396.705 97.1496C397.668 98.0352 398.958 98.478 400.575 98.478C402.295 98.478 403.61 98.0287 404.522 97.1303C405.433 96.2319 405.888 94.942 405.888 93.2606C405.888 91.6306 405.388 90.3792 404.387 89.5064C403.386 88.6336 401.942 88.1844 400.055 88.1588H397.379V85.2517ZM429.376 91.5857H433.265V94.4927H429.376V101H425.795V94.4927H413.031V92.3943L425.583 72.9687H429.376V91.5857ZM417.074 91.5857H425.795V77.8396L425.372 78.6097L417.074 91.5857ZM436.172 78.3594C436.172 76.678 436.705 75.2919 437.77 74.2009C438.848 73.1099 440.228 72.5645 441.909 72.5645C443.616 72.5645 444.996 73.1163 446.049 74.2201C447.114 75.3111 447.647 76.7294 447.647 78.4749V79.8418C447.647 81.536 447.107 82.9222 446.029 84.0003C444.964 85.0656 443.604 85.5982 441.948 85.5982C440.279 85.5982 438.9 85.0656 437.809 84.0003C436.718 82.9222 436.172 81.4911 436.172 79.707V78.3594ZM438.829 79.8418C438.829 80.8429 439.111 81.6708 439.676 82.3253C440.241 82.9671 440.998 83.2879 441.948 83.2879C442.859 83.2879 443.591 82.9735 444.143 82.3446C444.707 81.7157 444.99 80.8557 444.99 79.7648V78.3594C444.99 77.3583 444.714 76.5304 444.162 75.8758C443.61 75.2213 442.859 74.894 441.909 74.894C440.96 74.894 440.209 75.2213 439.657 75.8758C439.105 76.5304 438.829 77.3839 438.829 78.4364V79.8418ZM449.822 94.127C449.822 92.4456 450.355 91.0658 451.42 89.9877C452.498 88.8968 453.878 88.3513 455.559 88.3513C457.241 88.3513 458.62 88.8903 459.698 89.9685C460.777 91.0466 461.316 92.4777 461.316 94.2617V95.6286C461.316 97.31 460.777 98.6961 459.698 99.7871C458.633 100.865 457.266 101.404 455.598 101.404C453.929 101.404 452.549 100.872 451.458 99.8064C450.368 98.7282 449.822 97.2972 449.822 95.5131V94.127ZM452.479 95.6286C452.479 96.6426 452.761 97.4768 453.326 98.1314C453.891 98.7732 454.648 99.094 455.598 99.094C456.522 99.094 457.26 98.7796 457.812 98.1507C458.364 97.5089 458.64 96.6426 458.64 95.5516V94.127C458.64 93.113 458.357 92.2852 457.792 91.6434C457.241 91.0017 456.496 90.6808 455.559 90.6808C454.648 90.6808 453.904 91.0017 453.326 91.6434C452.761 92.2723 452.479 93.1258 452.479 94.204V95.6286ZM442.756 98.8823L440.735 97.6116L454.423 75.7026L456.445 76.9732L442.756 98.8823Z" fill="#EF2A82"/>
<path d="M390.67 127.157C390.67 126.226 390.852 125.388 391.215 124.644C391.584 123.899 392.094 123.325 392.745 122.921C393.401 122.517 394.148 122.314 394.986 122.314C396.281 122.314 397.327 122.763 398.124 123.659C398.926 124.556 399.328 125.748 399.328 127.236V127.351C399.328 128.276 399.149 129.108 398.792 129.847C398.44 130.579 397.933 131.15 397.271 131.561C396.615 131.971 395.859 132.176 395.003 132.176C393.714 132.176 392.668 131.728 391.866 130.831C391.069 129.935 390.67 128.748 390.67 127.271V127.157ZM392.305 127.351C392.305 128.405 392.548 129.252 393.035 129.891C393.527 130.529 394.183 130.849 395.003 130.849C395.83 130.849 396.486 130.526 396.972 129.882C397.458 129.231 397.702 128.323 397.702 127.157C397.702 126.114 397.453 125.271 396.955 124.626C396.462 123.976 395.806 123.65 394.986 123.65C394.183 123.65 393.536 123.97 393.043 124.608C392.551 125.247 392.305 126.161 392.305 127.351ZM409.4 127.351C409.4 128.798 409.069 129.964 408.407 130.849C407.745 131.733 406.848 132.176 405.717 132.176C404.563 132.176 403.655 131.81 402.993 131.077V135.656H401.367V122.49H402.852L402.931 123.545C403.593 122.725 404.513 122.314 405.691 122.314C406.833 122.314 407.736 122.745 408.398 123.606C409.066 124.468 409.4 125.666 409.4 127.201V127.351ZM407.774 127.166C407.774 126.094 407.545 125.247 407.088 124.626C406.631 124.005 406.004 123.694 405.208 123.694C404.223 123.694 403.485 124.131 402.993 125.004V129.548C403.479 130.415 404.223 130.849 405.225 130.849C406.004 130.849 406.623 130.541 407.08 129.926C407.542 129.305 407.774 128.385 407.774 127.166ZM413.68 120.188V122.49H415.456V123.747H413.68V129.645C413.68 130.025 413.759 130.312 413.917 130.506C414.076 130.693 414.345 130.787 414.726 130.787C414.914 130.787 415.171 130.752 415.5 130.682V132C415.072 132.117 414.656 132.176 414.251 132.176C413.525 132.176 412.977 131.956 412.608 131.517C412.239 131.077 412.054 130.453 412.054 129.645V123.747H410.323V122.49H412.054V120.188H413.68ZM419.129 132H417.503V122.49H419.129V132ZM417.372 119.968C417.372 119.704 417.451 119.481 417.609 119.3C417.773 119.118 418.013 119.027 418.33 119.027C418.646 119.027 418.886 119.118 419.05 119.3C419.214 119.481 419.296 119.704 419.296 119.968C419.296 120.231 419.214 120.451 419.05 120.627C418.886 120.803 418.646 120.891 418.33 120.891C418.013 120.891 417.773 120.803 417.609 120.627C417.451 120.451 417.372 120.231 417.372 119.968ZM421.309 127.157C421.309 126.226 421.491 125.388 421.854 124.644C422.223 123.899 422.733 123.325 423.383 122.921C424.04 122.517 424.787 122.314 425.625 122.314C426.919 122.314 427.965 122.763 428.762 123.659C429.565 124.556 429.966 125.748 429.966 127.236V127.351C429.966 128.276 429.788 129.108 429.43 129.847C429.079 130.579 428.572 131.15 427.91 131.561C427.253 131.971 426.498 132.176 425.642 132.176C424.353 132.176 423.307 131.728 422.504 130.831C421.708 129.935 421.309 128.748 421.309 127.271V127.157ZM422.944 127.351C422.944 128.405 423.187 129.252 423.673 129.891C424.166 130.529 424.822 130.849 425.642 130.849C426.468 130.849 427.125 130.526 427.611 129.882C428.097 129.231 428.34 128.323 428.34 127.157C428.34 126.114 428.091 125.271 427.593 124.626C427.101 123.976 426.445 123.65 425.625 123.65C424.822 123.65 424.174 123.97 423.682 124.608C423.19 125.247 422.944 126.161 422.944 127.351ZM433.543 122.49L433.596 123.686C434.323 122.771 435.272 122.314 436.444 122.314C438.454 122.314 439.467 123.448 439.485 125.716V132H437.859V125.707C437.853 125.021 437.695 124.515 437.384 124.187C437.08 123.858 436.602 123.694 435.952 123.694C435.424 123.694 434.961 123.835 434.563 124.116C434.165 124.397 433.854 124.767 433.631 125.224V132H432.005V122.49H433.543ZM451.579 132H449.944V121.163L446.666 122.367V120.891L451.324 119.142H451.579V132Z" fill="#8794BA"/>
<path d="M410.567 213H392.2V210.439L401.903 199.658C403.341 198.028 404.329 196.706 404.868 195.692C405.42 194.665 405.696 193.607 405.696 192.516C405.696 191.052 405.253 189.852 404.368 188.915C403.482 187.979 402.301 187.51 400.825 187.51C399.054 187.51 397.674 188.017 396.686 189.031C395.71 190.032 395.223 191.431 395.223 193.228H391.661C391.661 190.648 392.489 188.562 394.145 186.971C395.813 185.379 398.04 184.584 400.825 184.584C403.431 184.584 405.491 185.27 407.005 186.644C408.52 188.004 409.277 189.82 409.277 192.092C409.277 194.852 407.518 198.137 404.002 201.949L396.493 210.093H410.567V213ZM427.99 200.679C427.246 201.564 426.354 202.277 425.314 202.816C424.287 203.355 423.158 203.624 421.926 203.624C420.308 203.624 418.897 203.226 417.69 202.431C416.496 201.635 415.572 200.518 414.918 199.081C414.263 197.63 413.936 196.032 413.936 194.287C413.936 192.413 414.289 190.725 414.995 189.223C415.714 187.722 416.727 186.573 418.037 185.777C419.346 184.982 420.873 184.584 422.619 184.584C425.391 184.584 427.573 185.623 429.164 187.703C430.769 189.769 431.571 192.593 431.571 196.174V197.213C431.571 202.668 430.493 206.653 428.337 209.169C426.18 211.672 422.927 212.955 418.576 213.019H417.883V210.016H418.633C421.573 209.965 423.832 209.201 425.41 207.725C426.989 206.236 427.849 203.887 427.99 200.679ZM422.503 200.679C423.697 200.679 424.794 200.313 425.795 199.581C426.809 198.85 427.547 197.945 428.009 196.867V195.442C428.009 193.106 427.502 191.206 426.488 189.743C425.474 188.28 424.191 187.549 422.638 187.549C421.072 187.549 419.814 188.152 418.864 189.358C417.915 190.552 417.44 192.131 417.44 194.094C417.44 196.007 417.895 197.585 418.807 198.83C419.731 200.062 420.963 200.679 422.503 200.679ZM436.172 190.359C436.172 188.678 436.705 187.292 437.77 186.201C438.848 185.11 440.228 184.564 441.909 184.564C443.616 184.564 444.996 185.116 446.049 186.22C447.114 187.311 447.647 188.729 447.647 190.475V191.842C447.647 193.536 447.107 194.922 446.029 196C444.964 197.066 443.604 197.598 441.948 197.598C440.279 197.598 438.9 197.066 437.809 196C436.718 194.922 436.172 193.491 436.172 191.707V190.359ZM438.829 191.842C438.829 192.843 439.111 193.671 439.676 194.325C440.241 194.967 440.998 195.288 441.948 195.288C442.859 195.288 443.591 194.973 444.143 194.345C444.707 193.716 444.99 192.856 444.99 191.765V190.359C444.99 189.358 444.714 188.53 444.162 187.876C443.61 187.221 442.859 186.894 441.909 186.894C440.96 186.894 440.209 187.221 439.657 187.876C439.105 188.53 438.829 189.384 438.829 190.436V191.842ZM449.822 206.127C449.822 204.446 450.355 203.066 451.42 201.988C452.498 200.897 453.878 200.351 455.559 200.351C457.241 200.351 458.62 200.89 459.698 201.968C460.777 203.047 461.316 204.478 461.316 206.262V207.629C461.316 209.31 460.777 210.696 459.698 211.787C458.633 212.865 457.266 213.404 455.598 213.404C453.929 213.404 452.549 212.872 451.458 211.806C450.368 210.728 449.822 209.297 449.822 207.513V206.127ZM452.479 207.629C452.479 208.643 452.761 209.477 453.326 210.131C453.891 210.773 454.648 211.094 455.598 211.094C456.522 211.094 457.26 210.78 457.812 210.151C458.364 209.509 458.64 208.643 458.64 207.552V206.127C458.64 205.113 458.357 204.285 457.792 203.643C457.241 203.002 456.496 202.681 455.559 202.681C454.648 202.681 453.904 203.002 453.326 203.643C452.761 204.272 452.479 205.126 452.479 206.204V207.629ZM442.756 210.882L440.735 209.612L454.423 187.703L456.445 188.973L442.756 210.882Z" fill="#0088F0"/>
<path d="M390.67 239.157C390.67 238.226 390.852 237.388 391.215 236.644C391.584 235.899 392.094 235.325 392.745 234.921C393.401 234.517 394.148 234.314 394.986 234.314C396.281 234.314 397.327 234.763 398.124 235.659C398.926 236.556 399.328 237.748 399.328 239.236V239.351C399.328 240.276 399.149 241.108 398.792 241.847C398.44 242.579 397.933 243.15 397.271 243.561C396.615 243.971 395.859 244.176 395.003 244.176C393.714 244.176 392.668 243.728 391.866 242.831C391.069 241.935 390.67 240.748 390.67 239.271V239.157ZM392.305 239.351C392.305 240.405 392.548 241.252 393.035 241.891C393.527 242.529 394.183 242.849 395.003 242.849C395.83 242.849 396.486 242.526 396.972 241.882C397.458 241.231 397.702 240.323 397.702 239.157C397.702 238.114 397.453 237.271 396.955 236.626C396.462 235.976 395.806 235.65 394.986 235.65C394.183 235.65 393.536 235.97 393.043 236.608C392.551 237.247 392.305 238.161 392.305 239.351ZM409.4 239.351C409.4 240.798 409.069 241.964 408.407 242.849C407.745 243.733 406.848 244.176 405.717 244.176C404.563 244.176 403.655 243.81 402.993 243.077V247.656H401.367V234.49H402.852L402.931 235.545C403.593 234.725 404.513 234.314 405.691 234.314C406.833 234.314 407.736 234.745 408.398 235.606C409.066 236.468 409.4 237.666 409.4 239.201V239.351ZM407.774 239.166C407.774 238.094 407.545 237.247 407.088 236.626C406.631 236.005 406.004 235.694 405.208 235.694C404.223 235.694 403.485 236.131 402.993 237.004V241.548C403.479 242.415 404.223 242.849 405.225 242.849C406.004 242.849 406.623 242.541 407.08 241.926C407.542 241.305 407.774 240.385 407.774 239.166ZM413.68 232.188V234.49H415.456V235.747H413.68V241.645C413.68 242.025 413.759 242.312 413.917 242.506C414.076 242.693 414.345 242.787 414.726 242.787C414.914 242.787 415.171 242.752 415.5 242.682V244C415.072 244.117 414.656 244.176 414.251 244.176C413.525 244.176 412.977 243.956 412.608 243.517C412.239 243.077 412.054 242.453 412.054 241.645V235.747H410.323V234.49H412.054V232.188H413.68ZM419.129 244H417.503V234.49H419.129V244ZM417.372 231.968C417.372 231.704 417.451 231.481 417.609 231.3C417.773 231.118 418.013 231.027 418.33 231.027C418.646 231.027 418.886 231.118 419.05 231.3C419.214 231.481 419.296 231.704 419.296 231.968C419.296 232.231 419.214 232.451 419.05 232.627C418.886 232.803 418.646 232.891 418.33 232.891C418.013 232.891 417.773 232.803 417.609 232.627C417.451 232.451 417.372 232.231 417.372 231.968ZM421.309 239.157C421.309 238.226 421.491 237.388 421.854 236.644C422.223 235.899 422.733 235.325 423.383 234.921C424.04 234.517 424.787 234.314 425.625 234.314C426.919 234.314 427.965 234.763 428.762 235.659C429.565 236.556 429.966 237.748 429.966 239.236V239.351C429.966 240.276 429.788 241.108 429.43 241.847C429.079 242.579 428.572 243.15 427.91 243.561C427.253 243.971 426.498 244.176 425.642 244.176C424.353 244.176 423.307 243.728 422.504 242.831C421.708 241.935 421.309 240.748 421.309 239.271V239.157ZM422.944 239.351C422.944 240.405 423.187 241.252 423.673 241.891C424.166 242.529 424.822 242.849 425.642 242.849C426.468 242.849 427.125 242.526 427.611 241.882C428.097 241.231 428.34 240.323 428.34 239.157C428.34 238.114 428.091 237.271 427.593 236.626C427.101 235.976 426.445 235.65 425.625 235.65C424.822 235.65 424.174 235.97 423.682 236.608C423.19 237.247 422.944 238.161 422.944 239.351ZM433.543 234.49L433.596 235.686C434.323 234.771 435.272 234.314 436.444 234.314C438.454 234.314 439.467 235.448 439.485 237.716V244H437.859V237.707C437.853 237.021 437.695 236.515 437.384 236.187C437.08 235.858 436.602 235.694 435.952 235.694C435.424 235.694 434.961 235.835 434.563 236.116C434.165 236.397 433.854 236.767 433.631 237.224V244H432.005V234.49H433.543ZM454.62 244H446.235V242.831L450.665 237.909C451.321 237.165 451.772 236.562 452.018 236.099C452.27 235.63 452.396 235.146 452.396 234.648C452.396 233.98 452.194 233.433 451.79 233.005C451.385 232.577 450.846 232.363 450.172 232.363C449.364 232.363 448.734 232.595 448.283 233.058C447.837 233.515 447.615 234.153 447.615 234.974H445.989C445.989 233.796 446.367 232.844 447.123 232.117C447.884 231.391 448.901 231.027 450.172 231.027C451.362 231.027 452.302 231.341 452.994 231.968C453.685 232.589 454.031 233.418 454.031 234.455C454.031 235.715 453.228 237.215 451.623 238.955L448.195 242.673H454.62V244Z" fill="#8794BA"/>
<path d="M146.507 13H145.417V5.77539L143.232 6.57812V5.59375L146.337 4.42773H146.507V13ZM154.857 6.69531C154.857 7.12109 154.744 7.5 154.517 7.83203C154.294 8.16406 153.992 8.42383 153.609 8.61133C154.054 8.80273 154.406 9.08203 154.664 9.44922C154.925 9.81641 155.056 10.2324 155.056 10.6973C155.056 11.4355 154.806 12.0234 154.306 12.4609C153.81 12.8984 153.156 13.1172 152.343 13.1172C151.523 13.1172 150.865 12.8984 150.369 12.4609C149.876 12.0195 149.63 11.4316 149.63 10.6973C149.63 10.2363 149.755 9.82031 150.005 9.44922C150.259 9.07812 150.609 8.79688 151.054 8.60547C150.675 8.41797 150.376 8.1582 150.158 7.82617C149.939 7.49414 149.83 7.11719 149.83 6.69531C149.83 5.97656 150.06 5.40625 150.521 4.98438C150.982 4.5625 151.589 4.35156 152.343 4.35156C153.093 4.35156 153.699 4.5625 154.16 4.98438C154.625 5.40625 154.857 5.97656 154.857 6.69531ZM153.972 10.6738C153.972 10.1973 153.82 9.80859 153.515 9.50781C153.214 9.20703 152.82 9.05664 152.332 9.05664C151.843 9.05664 151.451 9.20508 151.154 9.50195C150.861 9.79883 150.714 10.1895 150.714 10.6738C150.714 11.1582 150.857 11.5391 151.142 11.8164C151.431 12.0938 151.832 12.2324 152.343 12.2324C152.851 12.2324 153.25 12.0938 153.539 11.8164C153.828 11.5352 153.972 11.1543 153.972 10.6738ZM152.343 5.24219C151.917 5.24219 151.572 5.375 151.306 5.64062C151.044 5.90234 150.914 6.25977 150.914 6.71289C150.914 7.14648 151.042 7.49805 151.3 7.76758C151.562 8.0332 151.91 8.16602 152.343 8.16602C152.777 8.16602 153.123 8.0332 153.38 7.76758C153.642 7.49805 153.773 7.14648 153.773 6.71289C153.773 6.2793 153.638 5.92578 153.369 5.65234C153.099 5.37891 152.757 5.24219 152.343 5.24219ZM158.789 9.81836H155.929V8.93359H158.789V9.81836ZM165.328 13H159.738V12.2207L162.691 8.93945C163.128 8.44336 163.429 8.04102 163.593 7.73242C163.761 7.41992 163.845 7.09766 163.845 6.76562C163.845 6.32031 163.71 5.95508 163.441 5.66992C163.171 5.38477 162.812 5.24219 162.363 5.24219C161.824 5.24219 161.404 5.39648 161.103 5.70508C160.806 6.00977 160.658 6.43555 160.658 6.98242H159.574C159.574 6.19727 159.826 5.5625 160.33 5.07812C160.837 4.59375 161.515 4.35156 162.363 4.35156C163.156 4.35156 163.783 4.56055 164.244 4.97852C164.705 5.39258 164.935 5.94531 164.935 6.63672C164.935 7.47656 164.4 8.47656 163.33 9.63672L161.044 12.1152H165.328V13ZM171.052 10.1348H172.236V11.0195H171.052V13H169.962V11.0195H166.078V10.3809L169.898 4.46875H171.052V10.1348ZM167.308 10.1348H169.962V5.95117L169.833 6.18555L167.308 10.1348Z" fill="#8794BA"/>
<path d="M289.535 91H283.945V90.2207L286.898 86.9395C287.335 86.4434 287.636 86.041 287.8 85.7324C287.968 85.4199 288.052 85.0977 288.052 84.7656C288.052 84.3203 287.917 83.9551 287.648 83.6699C287.378 83.3848 287.019 83.2422 286.57 83.2422C286.031 83.2422 285.611 83.3965 285.31 83.7051C285.013 84.0098 284.865 84.4355 284.865 84.9824H283.781C283.781 84.1973 284.033 83.5625 284.537 83.0781C285.044 82.5938 285.722 82.3516 286.57 82.3516C287.363 82.3516 287.99 82.5605 288.451 82.9785C288.912 83.3926 289.142 83.9453 289.142 84.6367C289.142 85.4766 288.607 86.4766 287.537 87.6367L285.251 90.1152H289.535V91ZM291.181 86.7227L291.615 82.4688H295.986V83.4707H292.535L292.277 85.7969C292.695 85.5508 293.169 85.4277 293.701 85.4277C294.478 85.4277 295.095 85.6855 295.552 86.2012C296.009 86.7129 296.238 87.4062 296.238 88.2812C296.238 89.1602 296 89.8535 295.523 90.3613C295.05 90.8652 294.388 91.1172 293.537 91.1172C292.783 91.1172 292.167 90.9082 291.691 90.4902C291.214 90.0723 290.943 89.4941 290.876 88.7559H291.902C291.968 89.2441 292.142 89.6133 292.423 89.8633C292.705 90.1094 293.076 90.2324 293.537 90.2324C294.041 90.2324 294.435 90.0605 294.72 89.7168C295.009 89.373 295.154 88.8984 295.154 88.293C295.154 87.7227 294.998 87.2656 294.685 86.9219C294.376 86.5742 293.964 86.4004 293.449 86.4004C292.976 86.4004 292.605 86.5039 292.335 86.7109L292.048 86.9453L291.181 86.7227ZM299.789 87.8184H296.929V86.9336H299.789V87.8184ZM302.314 86.207H303.128C303.64 86.1992 304.042 86.0645 304.335 85.8027C304.628 85.541 304.775 85.1875 304.775 84.7422C304.775 83.7422 304.277 83.2422 303.281 83.2422C302.812 83.2422 302.437 83.377 302.156 83.6465C301.878 83.9121 301.74 84.2656 301.74 84.707H300.656C300.656 84.0312 300.902 83.4707 301.394 83.0254C301.89 82.5762 302.519 82.3516 303.281 82.3516C304.085 82.3516 304.716 82.5645 305.173 82.9902C305.63 83.416 305.859 84.0078 305.859 84.7656C305.859 85.1367 305.738 85.4961 305.496 85.8438C305.257 86.1914 304.931 86.4512 304.517 86.623C304.986 86.7715 305.347 87.0176 305.601 87.3613C305.859 87.7051 305.988 88.125 305.988 88.6211C305.988 89.3867 305.738 89.9941 305.238 90.4434C304.738 90.8926 304.087 91.1172 303.287 91.1172C302.486 91.1172 301.833 90.9004 301.33 90.4668C300.83 90.0332 300.58 89.4609 300.58 88.75H301.669C301.669 89.1992 301.816 89.5586 302.109 89.8281C302.402 90.0977 302.794 90.2324 303.287 90.2324C303.81 90.2324 304.21 90.0957 304.488 89.8223C304.765 89.5488 304.904 89.1562 304.904 88.6445C304.904 88.1484 304.751 87.7676 304.447 87.502C304.142 87.2363 303.703 87.0996 303.128 87.0918H302.314V86.207ZM312.052 88.1348H313.236V89.0195H312.052V91H310.962V89.0195H307.078V88.3809L310.898 82.4688H312.052V88.1348ZM308.308 88.1348H310.962V83.9512L310.833 84.1855L308.308 88.1348Z" fill="#8794BA"/>
<path d="M285.521 217.207H286.335C286.847 217.199 287.25 217.064 287.542 216.803C287.835 216.541 287.982 216.188 287.982 215.742C287.982 214.742 287.484 214.242 286.488 214.242C286.019 214.242 285.644 214.377 285.363 214.646C285.085 214.912 284.947 215.266 284.947 215.707H283.863C283.863 215.031 284.109 214.471 284.601 214.025C285.097 213.576 285.726 213.352 286.488 213.352C287.292 213.352 287.923 213.564 288.38 213.99C288.837 214.416 289.066 215.008 289.066 215.766C289.066 216.137 288.945 216.496 288.703 216.844C288.464 217.191 288.138 217.451 287.724 217.623C288.193 217.771 288.554 218.018 288.808 218.361C289.066 218.705 289.195 219.125 289.195 219.621C289.195 220.387 288.945 220.994 288.445 221.443C287.945 221.893 287.294 222.117 286.494 222.117C285.693 222.117 285.041 221.9 284.537 221.467C284.037 221.033 283.787 220.461 283.787 219.75H284.876C284.876 220.199 285.023 220.559 285.316 220.828C285.609 221.098 286.001 221.232 286.494 221.232C287.017 221.232 287.417 221.096 287.695 220.822C287.972 220.549 288.111 220.156 288.111 219.645C288.111 219.148 287.958 218.768 287.654 218.502C287.349 218.236 286.91 218.1 286.335 218.092H285.521V217.207ZM291.181 217.723L291.615 213.469H295.986V214.471H292.535L292.277 216.797C292.695 216.551 293.169 216.428 293.701 216.428C294.478 216.428 295.095 216.686 295.552 217.201C296.009 217.713 296.238 218.406 296.238 219.281C296.238 220.16 296 220.854 295.523 221.361C295.05 221.865 294.388 222.117 293.537 222.117C292.783 222.117 292.167 221.908 291.691 221.49C291.214 221.072 290.943 220.494 290.876 219.756H291.902C291.968 220.244 292.142 220.613 292.423 220.863C292.705 221.109 293.076 221.232 293.537 221.232C294.041 221.232 294.435 221.061 294.72 220.717C295.009 220.373 295.154 219.898 295.154 219.293C295.154 218.723 294.998 218.266 294.685 217.922C294.376 217.574 293.964 217.4 293.449 217.4C292.976 217.4 292.605 217.504 292.335 217.711L292.048 217.945L291.181 217.723ZM299.789 218.818H296.929V217.934H299.789V218.818ZM305.314 219.135H306.498V220.02H305.314V222H304.224V220.02H300.339V219.381L304.16 213.469H305.314V219.135ZM301.57 219.135H304.224V214.951L304.095 215.186L301.57 219.135ZM312.052 219.135H313.236V220.02H312.052V222H310.962V220.02H307.078V219.381L310.898 213.469H312.052V219.135ZM308.308 219.135H310.962V214.951L310.833 215.186L308.308 219.135Z" fill="#8794BA"/>
<path d="M147.521 304.135H148.705V305.02H147.521V307H146.431V305.02H142.546V304.381L146.367 298.469H147.521V304.135ZM143.777 304.135H146.431V299.951L146.302 300.186L143.777 304.135ZM150.181 302.723L150.615 298.469H154.986V299.471H151.535L151.277 301.797C151.695 301.551 152.169 301.428 152.701 301.428C153.478 301.428 154.095 301.686 154.552 302.201C155.009 302.713 155.238 303.406 155.238 304.281C155.238 305.16 155 305.854 154.523 306.361C154.05 306.865 153.388 307.117 152.537 307.117C151.783 307.117 151.167 306.908 150.691 306.49C150.214 306.072 149.943 305.494 149.876 304.756H150.902C150.968 305.244 151.142 305.613 151.423 305.863C151.705 306.109 152.076 306.232 152.537 306.232C153.041 306.232 153.435 306.061 153.72 305.717C154.009 305.373 154.154 304.898 154.154 304.293C154.154 303.723 153.998 303.266 153.685 302.922C153.376 302.574 152.964 302.4 152.449 302.4C151.976 302.4 151.605 302.504 151.335 302.711L151.048 302.945L150.181 302.723ZM158.789 303.818H155.929V302.934H158.789V303.818ZM160.236 302.723L160.669 298.469H165.041V299.471H161.589L161.332 301.797C161.75 301.551 162.224 301.428 162.755 301.428C163.533 301.428 164.15 301.686 164.607 302.201C165.064 302.713 165.292 303.406 165.292 304.281C165.292 305.16 165.054 305.854 164.578 306.361C164.105 306.865 163.443 307.117 162.591 307.117C161.837 307.117 161.222 306.908 160.746 306.49C160.269 306.072 159.998 305.494 159.931 304.756H160.957C161.023 305.244 161.197 305.613 161.478 305.863C161.759 306.109 162.13 306.232 162.591 306.232C163.095 306.232 163.49 306.061 163.775 305.717C164.064 305.373 164.208 304.898 164.208 304.293C164.208 303.723 164.052 303.266 163.74 302.922C163.431 302.574 163.019 302.4 162.503 302.4C162.031 302.4 161.66 302.504 161.39 302.711L161.103 302.945L160.236 302.723ZM171.052 304.135H172.236V305.02H171.052V307H169.962V305.02H166.078V304.381L169.898 298.469H171.052V304.135ZM167.308 304.135H169.962V299.951L169.833 300.186L167.308 304.135Z" fill="#8794BA"/>
<path d="M2.44287 217.723L2.87646 213.469H7.24756V214.471H3.79639L3.53857 216.797C3.95654 216.551 4.43115 216.428 4.9624 216.428C5.73975 216.428 6.35693 216.686 6.81396 217.201C7.271 217.713 7.49951 218.406 7.49951 219.281C7.49951 220.16 7.26123 220.854 6.78467 221.361C6.31201 221.865 5.6499 222.117 4.79834 222.117C4.04443 222.117 3.4292 221.908 2.95264 221.49C2.47607 221.072 2.20459 220.494 2.13818 219.756H3.16357C3.22998 220.244 3.40381 220.613 3.68506 220.863C3.96631 221.109 4.3374 221.232 4.79834 221.232C5.30225 221.232 5.69678 221.061 5.98193 220.717C6.271 220.373 6.41553 219.898 6.41553 219.293C6.41553 218.723 6.25928 218.266 5.94678 217.922C5.63818 217.574 5.22607 217.4 4.71045 217.4C4.23779 217.4 3.8667 217.504 3.59717 217.711L3.31006 217.945L2.44287 217.723ZM9.18115 217.723L9.61475 213.469H13.9858V214.471H10.5347L10.2769 216.797C10.6948 216.551 11.1694 216.428 11.7007 216.428C12.478 216.428 13.0952 216.686 13.5522 217.201C14.0093 217.713 14.2378 218.406 14.2378 219.281C14.2378 220.16 13.9995 220.854 13.5229 221.361C13.0503 221.865 12.3882 222.117 11.5366 222.117C10.7827 222.117 10.1675 221.908 9.69092 221.49C9.21436 221.072 8.94287 220.494 8.87646 219.756H9.90186C9.96826 220.244 10.1421 220.613 10.4233 220.863C10.7046 221.109 11.0757 221.232 11.5366 221.232C12.0405 221.232 12.4351 221.061 12.7202 220.717C13.0093 220.373 13.1538 219.898 13.1538 219.293C13.1538 218.723 12.9976 218.266 12.6851 217.922C12.3765 217.574 11.9644 217.4 11.4487 217.4C10.9761 217.4 10.605 217.504 10.3354 217.711L10.0483 217.945L9.18115 217.723ZM17.7886 218.818H14.9292V217.934H17.7886V218.818ZM22.9917 213.463V214.383H22.7925C21.9487 214.398 21.2769 214.648 20.7769 215.133C20.2769 215.617 19.9878 216.299 19.9097 217.178C20.3589 216.662 20.9722 216.404 21.7495 216.404C22.4917 216.404 23.0835 216.666 23.5249 217.189C23.9702 217.713 24.1929 218.389 24.1929 219.217C24.1929 220.096 23.9526 220.799 23.4722 221.326C22.9956 221.854 22.355 222.117 21.5503 222.117C20.7339 222.117 20.0718 221.805 19.564 221.18C19.0562 220.551 18.8022 219.742 18.8022 218.754V218.338C18.8022 216.768 19.1362 215.568 19.8042 214.74C20.4761 213.908 21.4741 213.482 22.7983 213.463H22.9917ZM21.5679 217.307C21.1968 217.307 20.855 217.418 20.5425 217.641C20.23 217.863 20.0132 218.143 19.8921 218.479V218.877C19.8921 219.58 20.0503 220.146 20.3667 220.576C20.6831 221.006 21.0776 221.221 21.5503 221.221C22.0386 221.221 22.4214 221.041 22.6987 220.682C22.98 220.322 23.1206 219.852 23.1206 219.27C23.1206 218.684 22.978 218.211 22.6929 217.852C22.4116 217.488 22.0366 217.307 21.5679 217.307ZM30.0522 219.135H31.2358V220.02H30.0522V222H28.9624V220.02H25.0776V219.381L28.8979 213.469H30.0522V219.135ZM26.3081 219.135H28.9624V214.951L28.8335 215.186L26.3081 219.135Z" fill="#8794BA"/>
<path d="M11.1909 82.4629V83.3828H10.9917C10.1479 83.3984 9.47607 83.6484 8.97607 84.1328C8.47607 84.6172 8.18701 85.2988 8.10889 86.1777C8.55811 85.6621 9.17139 85.4043 9.94873 85.4043C10.6909 85.4043 11.2827 85.666 11.7241 86.1895C12.1694 86.7129 12.3921 87.3887 12.3921 88.2168C12.3921 89.0957 12.1519 89.7988 11.6714 90.3262C11.1948 90.8535 10.5542 91.1172 9.74951 91.1172C8.93311 91.1172 8.271 90.8047 7.76318 90.1797C7.25537 89.5508 7.00146 88.7422 7.00146 87.7539V87.3379C7.00146 85.7676 7.33545 84.5684 8.00342 83.7402C8.67529 82.9082 9.67334 82.4824 10.9976 82.4629H11.1909ZM9.76709 86.3066C9.396 86.3066 9.0542 86.418 8.7417 86.6406C8.4292 86.8633 8.2124 87.1426 8.09131 87.4785V87.877C8.09131 88.5801 8.24951 89.1465 8.56592 89.5762C8.88232 90.0059 9.27686 90.2207 9.74951 90.2207C10.2378 90.2207 10.6206 90.041 10.8979 89.6816C11.1792 89.3223 11.3198 88.8516 11.3198 88.2695C11.3198 87.6836 11.1772 87.2109 10.8921 86.8516C10.6108 86.4883 10.2358 86.3066 9.76709 86.3066ZM14.1733 86.7227L14.6069 82.4688H18.978V83.4707H15.5269L15.269 85.7969C15.687 85.5508 16.1616 85.4277 16.6929 85.4277C17.4702 85.4277 18.0874 85.6855 18.5444 86.2012C19.0015 86.7129 19.23 87.4062 19.23 88.2812C19.23 89.1602 18.9917 89.8535 18.5151 90.3613C18.0425 90.8652 17.3804 91.1172 16.5288 91.1172C15.7749 91.1172 15.1597 90.9082 14.6831 90.4902C14.2065 90.0723 13.9351 89.4941 13.8687 88.7559H14.894C14.9604 89.2441 15.1343 89.6133 15.4155 89.8633C15.6968 90.1094 16.0679 90.2324 16.5288 90.2324C17.0327 90.2324 17.4272 90.0605 17.7124 89.7168C18.0015 89.373 18.146 88.8984 18.146 88.293C18.146 87.7227 17.9897 87.2656 17.6772 86.9219C17.3687 86.5742 16.9565 86.4004 16.4409 86.4004C15.9683 86.4004 15.5972 86.5039 15.3276 86.7109L15.0405 86.9453L14.1733 86.7227ZM23.6304 86.4238H26.0093V87.4492H23.6304V90.1445H22.5405V87.4492H20.1616V86.4238H22.5405V83.9336H23.6304V86.4238Z" fill="#8794BA"/>
</svg>
