<svg width="112" height="95" viewBox="0 0 112 95" fill="none" xmlns="http://www.w3.org/2000/svg">
<path fill-rule="evenodd" clip-rule="evenodd" d="M0.49118 80.1627C17.1927 71.9197 25.5433 62.2343 25.5433 51.1063C18.4247 50.282 12.5381 47.3626 7.88361 42.3482C3.2291 37.3337 0.901878 31.5293 0.901878 24.9349C0.901878 17.9284 3.16065 12.021 7.67828 7.21258C12.1959 2.40417 17.8771 0 24.7219 0C32.3882 0 39.0277 3.12542 44.6405 9.37636C50.2533 15.6273 53.0596 23.2176 53.0596 32.1475C53.0596 58.9372 38.138 79.8878 8.29431 95L0.49118 80.1627ZM59.4316 80.1627C76.27 71.9197 84.6891 62.2343 84.6891 51.1063C77.4335 50.282 71.4785 47.3626 66.824 42.3482C62.1695 37.3337 59.8423 31.5293 59.8423 24.9349C59.8423 17.9284 62.1352 12.021 66.7213 7.21258C71.3074 2.40417 77.0228 0 83.8677 0C91.5339 0 98.1392 3.12542 103.684 9.37636C109.228 15.6273 112 23.2176 112 32.1475C112 58.9372 97.1468 79.8878 67.44 95L59.4316 80.1627Z" fill="#E6DCFE"/>
</svg>
